<svg xmlns="http://www.w3.org/2000/svg" viewBox="0 0 113.38 113.39"><defs><style>.cls-1{fill:none;}.cls-2{fill:#040000;}</style></defs><title>アセット 370</title><g id="レイヤー_2" data-name="レイヤー 2"><g id="waku"><rect class="cls-1" width="113.38" height="113.39"/></g><g id="編集モード"><polygon class="cls-2" points="46.53 55.24 37.26 90.79 17.06 90.79 17.06 96.46 41.64 96.46 50.9 60.94 46.56 55.24 46.53 55.24"/><path class="cls-2" d="M33.3,62.46A6.46,6.46,0,0,0,41,58a6.38,6.38,0,1,0-7.67,4.49Z"/><circle class="cls-2" cx="33.98" cy="102.05" r="2.83"/><circle class="cls-2" cx="22.68" cy="102.05" r="2.83"/><circle class="cls-2" cx="82.13" cy="14.82" r="8.5" transform="translate(-1.33 14.59) rotate(-10.07)"/><path class="cls-2" d="M90.18,35.34a8,8,0,0,0-13.94-5.41c-2.12,2.34-3,5.45-4.55,8.11A35.86,35.86,0,0,1,59.53,49.73a47.07,47.07,0,0,1-8.11,4.1l-.26.1L51,54,51,54l3.81,5,.08,0a60.67,60.67,0,0,0,7.43-2.11A51.33,51.33,0,0,0,74.1,51l0,8.46-.36.65a112.5,112.5,0,0,0-6.48,13.79A63.7,63.7,0,0,0,63.89,86.1a146.1,146.1,0,0,0-1.63,16.24l-.07,1.5,7.25.92A111.38,111.38,0,0,1,73.7,90a71.34,71.34,0,0,1,5.87-11.83c.39.91.8,1.82,1.22,2.73A72.23,72.23,0,0,0,91.35,96.78c2.45,2.91,5,5.71,7.66,8.45l5.67-4.61-.75-1.16q-2.66-4.12-5-8.42A63.25,63.25,0,0,1,92.2,74a72.67,72.67,0,0,1-2.11-15.81Z"/><path class="cls-2" d="M37.22,72.43h0a5.67,5.67,0,1,0-11-2.94v0h0L24,78.2a16.24,16.24,0,0,0-5.14,1.08,16.78,16.78,0,0,0-6.77,5l4,4A10.29,10.29,0,0,1,20.88,86a8.37,8.37,0,0,1,3.93.31,16.85,16.85,0,0,0,4.54,1.06,4.92,4.92,0,0,0,4.87-3.29C34.67,82.39,37.22,72.43,37.22,72.43Z"/></g></g></svg>