<svg xmlns="http://www.w3.org/2000/svg" viewBox="0 0 113.39 113.45"><defs><style>.cls-1{fill:none;}.cls-2{fill:#040000;}</style></defs><title>アセット 334</title><g id="レイヤー_2" data-name="レイヤー 2"><g id="waku"><rect class="cls-1" width="113.39" height="113.45"/></g><g id="編集モード"><path class="cls-2" d="M79.37,104.88H90.71V60.63h0V14.2A5.69,5.69,0,0,0,85,8.53H59.53V14.2H79.37v5.66H59.53v5.67H79.37V31.2H59.53v5.67H79.37v5.66H59.53V48.2H79.37v5.7H59.53v5.6H68A11.34,11.34,0,0,1,79.37,70.84Z"/><path class="cls-2" d="M27,82.31a11.35,11.35,0,1,0,5.26,2.11l5.18-12.94-3.05-7.64ZM25.51,99.21a5.66,5.66,0,1,1,5.67-5.67A5.68,5.68,0,0,1,25.51,99.21Z"/><path class="cls-2" d="M53.86,82.21a11.39,11.39,0,0,0-1.44.1L45.17,64.19,42.52,8.5H36.85l-2,42.36-.12,2.45h0L40.59,68h0l6.55,16.38a11.32,11.32,0,1,0,6.7-2.21Zm0,17a5.67,5.67,0,1,1,5.67-5.67A5.68,5.68,0,0,1,53.86,99.21Z"/></g></g></svg>