<svg xmlns="http://www.w3.org/2000/svg" viewBox="0 0 113.39 113.39"><defs><style>.cls-1{fill:none;}.cls-2{fill:#040000;}</style></defs><title>アセット 392</title><g id="レイヤー_2" data-name="レイヤー 2"><g id="waku"><rect class="cls-1" width="113.39" height="113.39"/></g><g id="編集モード"><path class="cls-2" d="M26.31,73.25a15.42,15.42,0,0,0,6-1.44c4.39-1.9,50.94-26.88,52.91-27.94a17.24,17.24,0,0,0,7.1-23.3l-1.85-3.46-5.23,2.23,2.08,3.9a11.57,11.57,0,0,1-4.77,15.63c-16.69,9-49.14,26.29-52.49,27.73-4.32,1.87-5.51.55-6,0-.88-1-.92-2.94,1.62-5.56,3.78-3.9,8.1-8.57,14.45-15.61,7.13-7.9,10.94-16.31,11.41-25.08l-5.64-.76c-.26,7.65-3.56,14.92-10,22S25.35,53.24,21.62,57.1c-4.93,5.09-4.43,10.36-1.74,13.32A8.34,8.34,0,0,0,26.31,73.25Z"/><path class="cls-2" d="M104.82,104.84v0c1.1-4.51,1.18-12.57,0-21.63s-3.37-16.82-5.61-20.89v0H68C54.21,72.4,38.93,79.23,19.3,85.43a11.36,11.36,0,0,0-8,10.82v8.6Z"/></g></g></svg>