<svg xmlns="http://www.w3.org/2000/svg" viewBox="0 0 113.39 113.39"><defs><style>.cls-1{fill:none;}.cls-2{fill:#040000;}</style></defs><title>アセット 366</title><g id="レイヤー_2" data-name="レイヤー 2"><g id="waku"><rect class="cls-1" width="113.39" height="113.39"/></g><g id="編集モード"><path class="cls-2" d="M42.26,28.35h0a5.42,5.42,0,0,0-5.42,5.42h0V61.22L30,68H22.7a17,17,0,1,0,0,34h5.67V96.37H22.7a11.33,11.33,0,1,1,0-22.67h9.68L77.74,28.35H93.57a11.33,11.33,0,1,1,0,22.67H87.9v5.67h5.67a17,17,0,1,0,0-34H75.39L56.71,41.35V33.77h0a5.42,5.42,0,0,0-5.42-5.42h-9Z"/><polygon class="cls-2" points="56.78 70.87 78.2 70.87 53.34 95.72 57.35 99.73 82.21 74.88 82.21 96.33 87.88 96.33 87.88 65.2 56.78 65.2 56.78 70.87"/><circle class="cls-2" cx="46.78" cy="19.59" r="5.42"/></g></g></svg>