<svg xmlns="http://www.w3.org/2000/svg" viewBox="0 0 113.39 113.39"><defs><style>.cls-1{fill:none;}.cls-2{fill:#040000;}</style></defs><title>アセット 336</title><g id="レイヤー_2" data-name="レイヤー 2"><g id="waku"><rect class="cls-1" width="113.39" height="113.39"/></g><g id="編集モード"><path class="cls-2" d="M91.9,50.52A116.19,116.19,0,0,1,79.36,30.33V17A11.34,11.34,0,0,0,68,5.67H39.69A11.34,11.34,0,0,0,28.35,17v87.87h51V88.8a28.34,28.34,0,0,0,12.28-4.67c5.66-3.93,8.78-9.6,8.78-16C100.41,62.1,96.66,57,91.9,50.52Zm-21-10.84h-34V17h34Zm8.46,41.09V46.61c2.14,3.25,4.22,6.09,6.09,8.65,4,5.5,7,9.47,7,12.91C92.41,72.22,88.53,79.44,79.36,80.78Z"/></g></g></svg>