<svg xmlns="http://www.w3.org/2000/svg" viewBox="0 0 113.38 113.39"><defs><style>.cls-1{fill:none;}.cls-2{fill:#040000;}</style></defs><title>アセット 363</title><g id="レイヤー_2" data-name="レイヤー 2"><g id="waku"><rect class="cls-1" width="113.38" height="113.39"/></g><g id="編集モード"><path class="cls-2" d="M54.95,75.74l-7.17-8.69-2.48-3,2.29-9.43,3.77,3.66a3.4,3.4,0,0,0,3.75.66l14.83-6.68-1.49-4.48-12.8,2.85-5-7.67a23.89,23.89,0,0,0-2.36-3.43c-2.14-2.25-5.17-2.56-8.11-2.68a35.24,35.24,0,0,0-14,2.12A26,26,0,0,0,18,44a29,29,0,0,0-5.77,7.15s4,2.53,4,2.52l0,0,.07-.08a23.26,23.26,0,0,1,5.49-4.47,20,20,0,0,1,10-2.68,25,25,0,0,1,3.9.28l-4,16.48a37.41,37.41,0,0,1-9.2,13.56c-4.69,4.51-11.92,7.56-15.53,8.63.48,2.49,1.24,6,1.24,6a51.84,51.84,0,0,0,15.22-4.21,39.32,39.32,0,0,0,9.45-5.93,54.14,54.14,0,0,0,6.17-6l6.62,5.49L39.89,95.12l5.46,2.79L55.84,81.42a4.24,4.24,0,0,0-.3-5Z"/><polygon class="cls-2" points="76.88 80.67 80.89 84.68 97.55 68.02 80.91 51.38 76.9 55.39 86.7 65.19 65.2 65.19 65.2 70.86 86.7 70.86 76.88 80.67"/><polygon class="cls-2" points="68.03 8.5 68.03 14.17 102.05 14.17 102.05 99.21 68.03 99.21 68.03 104.88 107.72 104.88 107.72 8.5 68.03 8.5"/><circle class="cls-2" cx="47.44" cy="27.14" r="7.09"/><circle class="cls-2" cx="47.44" cy="27.14" r="7.09"/></g></g></svg>