<svg xmlns="http://www.w3.org/2000/svg" viewBox="0 0 113.39 113.39"><defs><style>.cls-1{fill:none;}.cls-2{fill:#040000;}</style></defs><title>アセット 345</title><g id="レイヤー_2" data-name="レイヤー 2"><g id="waku"><rect class="cls-1" width="113.39" height="113.39"/></g><g id="編集モード"><path class="cls-2" d="M50.2,37.73a7.56,7.56,0,0,0-4.82,1.21h0a38.57,38.57,0,0,1-11.75,5.25,40.82,40.82,0,0,1-14.84.89l-1.22,4.81a45.65,45.65,0,0,0,16.81,2.65,44.59,44.59,0,0,0,6.94-.82l-.75,8.37c-2.19-.63-4.4-1.19-6.63-1.65-1-.21-2.09-.39-3.25-.53a15.7,15.7,0,0,0-6.12.27,21.21,21.21,0,0,0-5.18,2.42,59,59,0,0,0-5,3.43c-3.06,2.32-6.24,4.85-9.13,7.15l4.29,5.45c1.56-1.07,3-2,5.24-3.38a51.86,51.86,0,0,1,5.9-3.14,17.51,17.51,0,0,1,4.65-1.65,4.58,4.58,0,0,0-1.07,1.42L13.78,91.7l6,3.51L31.93,78.15,47.5,78h0a7.59,7.59,0,0,0,7.33-6.91L57.09,46A7.6,7.6,0,0,0,50.2,37.73Z"/><path class="cls-2" d="M80.55,64.24l0-19h0v-.08a7.6,7.6,0,0,0-15.19,0l0,25.2h0v.08A7.6,7.6,0,0,0,72.93,78H73l19,.15,11,15.31,6-3.51L99.59,69.87a4.53,4.53,0,0,0-3.19-2.5Z"/><circle class="cls-2" cx="72.94" cy="26.38" r="7.65"/><circle class="cls-2" cx="51.94" cy="26.63" r="7.65"/></g></g></svg>