<svg xmlns="http://www.w3.org/2000/svg" viewBox="0 0 113.39 113.39"><defs><style>.cls-1{fill:none;}.cls-2{fill:#040000;}</style></defs><title>アセット 337</title><g id="レイヤー_2" data-name="レイヤー 2"><g id="waku"><rect class="cls-1" width="113.39" height="113.39"/></g><g id="編集モード"><path class="cls-2" d="M110.55,59.51,97.81,36.89,85.07,59.51h9.26C90.15,75.89,76.65,88.26,60.24,89.83V59.53H70.87V52.44H60.24V40a14.91,14.91,0,1,0-7.09,0V52.44H42.52v7.09H53.15v30.3C36.74,88.26,23.24,75.89,19.06,59.51h9.26L15.58,36.89,2.83,59.51h9C16.45,81,34.81,97.1,56.69,97.1S96.94,81,101.6,59.51Zm-61.68-34a7.82,7.82,0,1,1,7.82,7.82A7.83,7.83,0,0,1,48.87,25.53Z"/></g></g></svg>