<svg xmlns="http://www.w3.org/2000/svg" viewBox="0 0 113.54 113.54"><defs><style>.cls-1{fill:none;}.cls-2{fill:#040000;}</style></defs><title>アセット 384</title><g id="レイヤー_2" data-name="レイヤー 2"><g id="waku"><rect class="cls-1" width="113.54" height="113.54" transform="translate(113.54 113.54) rotate(-180)"/></g><g id="編集モード"><polygon class="cls-2" points="96.53 99.21 17.16 99.21 17.16 59.49 11.49 59.49 11.49 104.88 102.2 104.88 102.2 59.56 96.53 59.56 96.53 99.21"/><circle class="cls-2" cx="72.54" cy="19.77" r="7.09"/><path class="cls-2" d="M66.64,29.76h0a7,7,0,0,0-7,7h0V68h4.65V95h7V68H73.6V95h7V68h4.63V48.68a36.64,36.64,0,0,0,7.63,4.24,34.2,34.2,0,0,0,7.51,2.34L102.2,51a40.85,40.85,0,0,1-13.8-12.11c-1.53-2-2.88-4.08-4.31-6.13a6.7,6.7,0,0,0-5.6-3Z"/></g></g></svg>