<svg xmlns="http://www.w3.org/2000/svg" viewBox="0 0 113.41 113.41"><defs><style>.cls-1{fill:none;}.cls-2{fill:#040000;}</style></defs><title>アセット 347</title><g id="レイヤー_2" data-name="レイヤー 2"><g id="waku"><rect class="cls-1" width="113.41" height="113.41"/></g><g id="編集モード"><circle class="cls-2" cx="29.02" cy="34.86" r="8.5" transform="matrix(0.84, -0.54, 0.54, 0.84, -14.26, 21.27)"/><path class="cls-2" d="M37.27,56.21,56.79,77.09h0l.06.06A8.61,8.61,0,0,0,66,79.4h0l18.28-6.52L98.44,88l6.44-5.26L91.2,61a5.58,5.58,0,0,0-5.41-2.43l-1.29.18L65.86,61.56l-15.94-17h0l-.06-.06A8.61,8.61,0,1,0,37.27,56.21Z"/><polygon class="cls-2" points="59.02 87.04 12.79 37.34 8.64 41.2 57.37 93.59 81.48 85.41 94.34 99.23 98.49 95.37 83.13 78.86 59.02 87.04"/></g></g></svg>