<svg xmlns="http://www.w3.org/2000/svg" viewBox="0 0 113.39 113.39"><defs><style>.cls-1{fill:none;}.cls-2{fill:#040000;}</style></defs><title>アセット 373</title><g id="レイヤー_2" data-name="レイヤー 2"><g id="waku"><rect class="cls-1" width="113.39" height="113.39"/></g><g id="編集モード"><path class="cls-2" d="M55.21,99.21A26.78,26.78,0,0,1,41.74,49.28V42.89A32.45,32.45,0,1,0,81.48,91.47l-3.53-4.89A26.79,26.79,0,0,1,55.21,99.21Z"/><circle class="cls-2" cx="54.88" cy="18.27" r="8.5"/><path class="cls-2" d="M63.77,51.63A65.52,65.52,0,0,0,85,59.54l1.48-5.7A71.48,71.48,0,0,1,71.25,45c-2.85-2.33-6.13-6.48-8.78-10.13-1.84-2.54-4.28-4.25-7.55-4.26A8.89,8.89,0,0,0,46,39.53s0,.06,0,.09v7.65l0,21.8v.09a9,9,0,0,0,3.47,7.06c3.21,2.47,7.73,2,11.53,2H77.18l2.93,4.06,2.85,4,.95,1.32,6.21,8.61,7-4.12L94.4,86.26,87.66,71.91l-1.58-3.37a5.3,5.3,0,0,0-3.74-2.92L63.77,61.95Z"/></g></g></svg>