<svg xmlns="http://www.w3.org/2000/svg" viewBox="0 0 113.39 113.39"><defs><style>.cls-1{fill:none;}.cls-2{fill:#040000;}</style></defs><title>アセット 354</title><g id="レイヤー_2" data-name="レイヤー 2"><g id="waku"><rect class="cls-1" width="113.39" height="113.39"/><rect class="cls-1" width="113.38" height="113.39"/></g><g id="編集モード"><path class="cls-2" d="M44.33,104.88h35V46.47h0a17.52,17.52,0,0,0-35,0Z"/><path class="cls-2" d="M34.44,37.75c-.87-5,.18-9.65,3-13C40.58,21,45.94,19,52.9,19h3.79V25.5h8.5V20.44l11.25,5.67V20L65.26,14.37H76.45V8.29H56.69v5.07H52.9c-11,0-16.84,4.24-19.83,7.79C29.19,25.76,27.69,32,28.86,38.72c.72,4.19,5,32,5.82,38.11,1.08,8.39-1.46,14.38-6.79,16L19.12,95.6,20.81,101l8.76-2.73c9.63-3,11.86-13.43,10.73-22.18C39.48,69.75,35.19,42.07,34.44,37.75Z"/></g></g></svg>