<svg xmlns="http://www.w3.org/2000/svg" viewBox="0 0 113.38 113.39"><defs><style>.cls-1{fill:none;}.cls-2{fill:#040000;}</style></defs><title>アセット 333</title><g id="レイヤー_2" data-name="レイヤー 2"><g id="waku"><rect class="cls-1" width="113.38" height="113.39"/></g><g id="編集モード"><path class="cls-2" d="M53.84,19.78v85h51v-85ZM99.19,99.15H59.51V25.45H99.19Z"/><rect class="cls-2" x="17" y="11.28" width="19.81" height="14.17"/><path class="cls-2" d="M85.83,32.54h-13a8,8,0,0,0-5.37,2,6.8,6.8,0,0,0-2.32,5.08c0,3.91,3.45,7.08,7.75,7.08H85.83c4.24,0,7.69-3.18,7.69-7.08S90.07,32.54,85.83,32.54ZM72.86,43c-2.18,0-4-1.5-4-3.35A3.11,3.11,0,0,1,70,37.33a4.29,4.29,0,0,1,2.88-1.05h6.49V43Z"/><path class="cls-2" d="M85.83,55.22h-13a8,8,0,0,0-5.37,2,6.8,6.8,0,0,0-2.32,5.08c0,3.91,3.45,7.08,7.75,7.08H85.83c4.24,0,7.69-3.18,7.69-7.08S90.07,55.22,85.83,55.22Zm-13,10.44c-2.18,0-4-1.5-4-3.35A3.11,3.11,0,0,1,70,60a4.29,4.29,0,0,1,2.88-1.05h6.49v6.71Z"/><path class="cls-2" d="M85.83,77.89h-13a8,8,0,0,0-5.37,2A6.8,6.8,0,0,0,65.17,85c0,3.91,3.45,7.08,7.75,7.08H85.83c4.24,0,7.69-3.18,7.69-7.08S90.07,77.89,85.83,77.89Zm-13,10.44c-2.18,0-4-1.5-4-3.35A3.11,3.11,0,0,1,70,82.68a4.29,4.29,0,0,1,2.88-1.05h6.49v6.71Z"/><path class="cls-2" d="M34.07,31.16H19.76A11.26,11.26,0,0,0,8.5,42.42v62.4H45.33V42.42A11.26,11.26,0,0,0,34.07,31.16Zm2.77,34.4H30.18v6.66H23.66V65.57H17V59h6.66V52.38h6.53V59h6.66Z"/></g></g></svg>