<svg xmlns="http://www.w3.org/2000/svg" viewBox="0 0 113.38 113.39"><defs><style>.cls-1{fill:none;}.cls-2{fill:#040000;}</style></defs><title>アセット 378</title><g id="レイヤー_2" data-name="レイヤー 2"><g id="waku"><rect class="cls-1" width="113.38" height="113.39"/></g><g id="編集モード"><path class="cls-2" d="M19.84,97c0,.31,0-.32,0,1.25a6.91,6.91,0,0,0,6.7,6.56l1.28,0H51.51l1.28,0a6.91,6.91,0,0,0,6.7-6.56c0-1.57,0-.95,0-1.25V93.54H19.84Z"/><path class="cls-2" d="M19.85,53.86H16.36c-.31,0,.32,0-1.25,0a6.91,6.91,0,0,0-6.56,6.7c0,1.6,0,1,0,1.28V85.52c0,.29,0-.32,0,1.28a6.91,6.91,0,0,0,6.56,6.7l1.25,0h3.49Z"/><path class="cls-2" d="M75,29.58a12.4,12.4,0,0,0,23.78,7h0l4.82-16.46L71.21,15.29l3.44,8L68,29.58Z"/><path class="cls-2" d="M107.71,104.88V62.26h0A11.27,11.27,0,0,0,96.44,51H91.84l-6.34,9.51L79.17,51v0H76.08A8.65,8.65,0,0,0,68,55.44h0c-1,1.48-2,2.95-2.66,3.9a62.68,62.68,0,0,1-6.09,7.14,58.18,58.18,0,0,1-11,8.52,76.38,76.38,0,0,1-12.42,5.95l1.67,7.64a69.35,69.35,0,0,0,14-3.39,89.38,89.38,0,0,0,14.85-6.86v26.55Z"/></g></g></svg>