<svg xmlns="http://www.w3.org/2000/svg" viewBox="0 0 113.39 113.39"><defs><style>.cls-1{fill:none;}.cls-2{fill:#040000;}</style></defs><title>アセット 380</title><g id="レイヤー_2" data-name="レイヤー 2"><g id="waku"><rect class="cls-1" width="113.39" height="113.39"/></g><g id="編集モード"><path class="cls-2" d="M55.83,42.41a20.35,20.35,0,0,0-4.39.44A14.18,14.18,0,0,0,40.55,56.63v8.61c0,2.43-2.8,4.49-6.1,4.49l-.49,0A7.53,7.53,0,0,1,31.12,69a4.41,4.41,0,0,1-2.78-3.74V32.6a9.93,9.93,0,0,1,9.92-9.92H68.08a8.51,8.51,0,0,1,8.5,8.5v5.67h5.67V31.18A14.19,14.19,0,0,0,68.08,17H38.27A15.61,15.61,0,0,0,22.68,32.6V65.24a10,10,0,0,0,5.61,8.64v31h54V89.29h3.85a11,11,0,0,0,11-11V60.47a11,11,0,0,0-11-11H82.25V42.41ZM90,78.3a3.91,3.91,0,0,1-3.91,3.91H82.25V56.56h3.85A3.91,3.91,0,0,1,90,60.47Z"/></g></g></svg>