<svg xmlns="http://www.w3.org/2000/svg" viewBox="0 0 113.39 113.39"><defs><style>.cls-1{fill:none;}.cls-2{fill:#040000;}</style></defs><title>アセット 339</title><g id="レイヤー_2" data-name="レイヤー 2"><g id="waku"><rect class="cls-1" width="113.39" height="113.39"/></g><g id="編集モード"><path class="cls-2" d="M13.67,40.18c.12,0-.12,0,0-.06"/><path class="cls-2" d="M110.55,31.26,94.93,34.4h0S79.3,31.25,54.3,31.25,13.67,34.4,13.67,34.4h0l-.36,0c-6.56.82-10.48,4.72-10.48,10.42v3.78A10.38,10.38,0,0,0,13.17,59.05h1.51C18.78,75.57,35,87.9,55.86,87.9a49.5,49.5,0,0,0,12.39-1.55l9,5.54,16.87-8.7L84.86,78A34.28,34.28,0,0,0,97.94,49.16l12.61,4.13ZM8.5,48.65V44.87c0-2.6,1.75-4.17,5.17-4.69V53.34h-.5A4.69,4.69,0,0,1,8.5,48.65Zm22.1-9.23a2.82,2.82,0,1,1-2.83,2.86A2.84,2.84,0,0,1,30.6,39.42ZM55.86,81.61C37,81.61,22,69.8,20.12,54.16c6,5.81,17.77,9,27.33.64,17.08-15,18.93,20.16,44.33-3.43C91.47,68.37,75.81,81.61,55.86,81.61Z"/></g></g></svg>