<svg xmlns="http://www.w3.org/2000/svg" viewBox="0 0 113.39 113.39"><defs><style>.cls-1{fill:none;}.cls-2{fill:#040000;}</style></defs><title>アセット 384</title><g id="レイヤー_2" data-name="レイヤー 2"><g id="waku"><rect class="cls-1" width="113.39" height="113.39"/></g><g id="編集モード"><path class="cls-2" d="M72.43,45.35a23.76,23.76,0,0,1,2.73,2.84,23.37,23.37,0,0,1,2,2.83,27.82,27.82,0,0,1,3.64,14h0V88.67a15.07,15.07,0,0,1-4.35,10.54H93.54l11.34-70.87H90.76l-.06-17-5.67,0,.06,17H53.85l1.55,9.71c1,.16,2,.34,3,.56s2,.51,3,.81L60.5,34H98.23L96.42,45.35Z"/><path class="cls-2" d="M18.42,87.87H14.16v.58A10.78,10.78,0,0,0,24.95,99.21H65.74A10.78,10.78,0,0,0,76.52,88.43v-.55Z"/><polygon class="cls-2" points="14.17 77.67 14.17 83.91 18.42 83.91 76.52 83.91 76.52 83.91 76.52 77.67 76.52 77.67 14.17 77.67"/><path class="cls-2" d="M21,72.53a6,6,0,0,1,3.54-1,6,6,0,0,1,3.54,1,12.58,12.58,0,0,0,6.86,1.87,12.57,12.57,0,0,0,6.85-1.87,6.53,6.53,0,0,1,7.08,0,12.58,12.58,0,0,0,6.86,1.87,12.37,12.37,0,0,0,5.32-1.08c.58-.26,1.09-.54,1.54-.79s.76-.42,1.11-.58h0a5.51,5.51,0,0,1,2.42-.46h.38a6.06,6.06,0,0,1,3.16,1,14.86,14.86,0,0,0,2.61,1.22,13,13,0,0,0,4.25.65V70.24a6,6,0,0,1-3.54-1l-.71-.39a12.27,12.27,0,0,0-6.14-1.48h-.29a13.72,13.72,0,0,0-2.82.32h0a11.78,11.78,0,0,0-2.71,1c-.38.19-.72.38-1,.55a6.53,6.53,0,0,1-7.08,0,12.58,12.58,0,0,0-6.86-1.87,12.57,12.57,0,0,0-6.85,1.87,6.53,6.53,0,0,1-7.08,0,12.58,12.58,0,0,0-6.86-1.87,12.27,12.27,0,0,0-6.14,1.48l-.71.39a6,6,0,0,1-3.54,1V74.4a13,13,0,0,0,4.25-.65A14.88,14.88,0,0,0,21,72.53Z"/><path class="cls-2" d="M18.44,64.41H76.52A21,21,0,0,0,72.21,51a19.32,19.32,0,0,0-2.78-2.83A22.9,22.9,0,0,0,65,45.35a28.62,28.62,0,0,0-2.93-1.26q-1.43-.53-3-1-1.42-.38-3-.67a58.33,58.33,0,0,0-10.74-.92h0c-22.86,0-31.18,10.24-31.18,22.86h4.28Z"/></g></g></svg>