<svg xmlns="http://www.w3.org/2000/svg" viewBox="0 0 113.39 113.39"><defs><style>.cls-1{fill:none;}.cls-2{fill:#040000;}</style></defs><title>アセット 381</title><g id="レイヤー_2" data-name="レイヤー 2"><g id="waku"><rect class="cls-1" width="113.39" height="113.39"/></g><g id="編集モード"><path class="cls-2" d="M86.06,49.31H82.21V22.7H28.35v82.18H82.21V89.13h3.85a11,11,0,0,0,11-11V60.31A11,11,0,0,0,86.06,49.31ZM49.45,75.64,39,72.59l3.05-10.45L52.5,65.19ZM46.77,36.15a4.25,4.25,0,0,0-4.25,4.25A4.21,4.21,0,0,0,43,42.25H34V28.36H59.84a4.25,4.25,0,1,0,7.87,0h8.83V42.25h-26A4.21,4.21,0,0,0,51,40.4,4.25,4.25,0,0,0,46.77,36.15ZM66,56.22A4.25,4.25,0,1,1,61.79,52,4.25,4.25,0,0,1,66,56.22Zm-5.7,35-5-9.68,9.68-5,5,9.68ZM90,78.14A3.91,3.91,0,0,1,86.06,82H82.21V56.4h3.85A3.91,3.91,0,0,1,90,60.31Z"/></g></g></svg>