<svg xmlns="http://www.w3.org/2000/svg" viewBox="0 0 113.39 113.39"><defs><style>.cls-1{fill:none;}.cls-2{fill:#040000;}</style></defs><title>アセット 341</title><g id="レイヤー_2" data-name="レイヤー 2"><g id="waku"><rect class="cls-1" width="113.39" height="113.39"/></g><g id="編集モード"><path class="cls-2" d="M56.65,88.13h0Z"/><path class="cls-2" d="M20.33,49.63l.07,0,0-.11Z"/><circle class="cls-2" cx="43.87" cy="28.6" r="2.83"/><circle class="cls-2" cx="69.35" cy="28.6" r="2.83"/><path class="cls-2" d="M49,73l1.22,5.57a19.45,19.45,0,0,0,12.7,0L64.15,73A33.63,33.63,0,0,1,49,73Z"/><path class="cls-2" d="M50.94,81.76l1.18,5.4a10.32,10.32,0,0,0,4.45,1h.07a10.35,10.35,0,0,0,4.4-.95l1.19-5.42a23.4,23.4,0,0,1-11.29,0Z"/><path class="cls-2" d="M93.74,26.16C91.54,18.61,85.09,11.94,77,11.25A17.41,17.41,0,0,0,59.28,23.12s0,.14-.07.25a8,8,0,0,0-5-.08,19,19,0,0,0-4.53-7.5A15.43,15.43,0,0,0,38.4,11.21a18.61,18.61,0,0,0-13.81,5.73c-4.38,4.64-6.46,11.55-6,20a106.07,106.07,0,0,0,1.8,12.64l0,.11c.81,4.3,1.83,9.11,2.93,14l-.09.12.14.1C27.53,82.29,32.84,102,32.84,102l2.74-2.83s-3.66-16.62-6.83-33.26L36.66,55l9.67,5.65,2,9.22A28.3,28.3,0,0,0,56.59,71a28.29,28.29,0,0,0,8.24-1.12l2-9.19L76.57,55l8.05,11c-.1.52-.2,1-.3,1.57q-3.08,15.79-6.51,31.5L80.54,102S94,52,94.81,36.92A32.51,32.51,0,0,0,93.74,26.16ZM35.1,47.54,27.32,58.21c-.43-2.37-.83-4.69-1.19-6.91l7.62-10.45,9.45,5.52,1.48,6.77Zm13.83-19.3L43.63,40.06,32.18,33.37l-7.26,10c-.35-2.64-.59-4.92-.69-6.7-.36-6.85,1.19-12.32,4.47-15.8a13.07,13.07,0,0,1,9.72-4h.06a10,10,0,0,1,7.17,2.94,14.37,14.37,0,0,1,3.72,7.46A8.15,8.15,0,0,0,48.93,28.24Zm15.32,0c-.09-.24-.21-.47-.33-.7a13.47,13.47,0,0,1,2.58-6.22c4.34-5.49,13.47-5.48,18.18-.49,5.66,5.95,4.83,15.09,3.77,22.7L81,33.37,69.55,40.08ZM86,58.4,78.13,47.54l-9.65,5.64L70,46.41l9.51-5.56,7.76,10.65Q86.67,55,86,58.4Z"/><path class="cls-2" d="M56.57,91H52.34L47.3,101a2.83,2.83,0,0,0,2.54,4.1h13.5a2.84,2.84,0,0,0,2.53-4.1L60.84,91H56.57Z"/></g></g></svg>