<svg xmlns="http://www.w3.org/2000/svg" viewBox="0 0 113.39 113.39"><defs><style>.cls-1{fill:none;}.cls-2{fill:#040000;}</style></defs><title>アセット 340</title><g id="レイヤー_2" data-name="レイヤー 2"><g id="waku"><rect class="cls-1" width="113.39" height="113.39"/></g><g id="編集モード"><path class="cls-2" d="M104.92,64.91V58.3L92.29,50.74l-11.77,7a17,17,0,0,0-15.29-9.59h-17a17,17,0,0,0-15.29,9.6l-11.77-7L8.54,58.3V64.9l12.63-7.56,10.15,6.07a17.19,17.19,0,0,0-.09,1.78V70L21.17,64,8.54,71.53v6.61l12.63-7.56,10.05,6v6.63l-10.05-6L8.54,84.77v6.61l12.63-7.56L34.76,92h0a8.46,8.46,0,0,0,5,1.6h34a8.45,8.45,0,0,0,4.95-1.6h0l13.6-8.14,12.63,7.56V84.77L92.29,77.21l-10,6V76.6l10-6,12.63,7.56V71.53L92.29,64l-10,6V65.2a17.19,17.19,0,0,0-.09-1.78l10.14-6.07Z"/><circle class="cls-2" cx="49.65" cy="42.52" r="2.83"/><circle class="cls-2" cx="63.82" cy="42.52" r="2.83"/><path class="cls-2" d="M23.19,46.41a31,31,0,0,0,10.87,1.78,6.09,6.09,0,0,0,5.63-5.67,31,31,0,0,0-1.78-10.87c-3.13-9.59-9.73-13.25-15.23-13.25V31.18H9.94C9.94,36.68,13.59,43.29,23.19,46.41Z"/><path class="cls-2" d="M79.34,48.19a31,31,0,0,0,10.87-1.78c9.59-3.12,13.25-9.73,13.25-15.23H90.72V18.41c-5.5,0-12.11,3.65-15.23,13.25a31,31,0,0,0-1.78,10.87A6.09,6.09,0,0,0,79.34,48.19Z"/></g></g></svg>