<svg xmlns="http://www.w3.org/2000/svg" viewBox="0 0 113.39 113.39"><defs><style>.cls-1{fill:none;}.cls-2{fill:#040000;}</style></defs><title>アセット 383</title><g id="レイヤー_2" data-name="レイヤー 2"><g id="waku"><rect class="cls-1" width="113.39" height="113.39"/></g><g id="編集モード"><path class="cls-2" d="M87.22,52.07H84.88V45.35H22.68V89.22a15.65,15.65,0,0,0,15.63,15.67H69.25a15.63,15.63,0,0,0,15-11.41h2.94a20.68,20.68,0,0,0,20.65-20.7A20.7,20.7,0,0,0,87.22,52.07Zm8.6,29.33A12.08,12.08,0,0,1,87.22,85H84.88V60.57h2.34a12.2,12.2,0,0,1,8.6,20.82Z"/><path class="cls-2" d="M34.67,30.19a7.13,7.13,0,0,1-3,4.74l3.24,4.66a12.8,12.8,0,0,0,3-18.13,7,7,0,0,1-1.29-5.37,7.14,7.14,0,0,1,3-4.74L36.4,6.69a12.8,12.8,0,0,0-3,18.13A7,7,0,0,1,34.67,30.19Z"/><path class="cls-2" d="M52.86,30.19a7.13,7.13,0,0,1-3,4.74l3.24,4.66a12.8,12.8,0,0,0,3-18.13,7,7,0,0,1-1.29-5.37,7.14,7.14,0,0,1,3-4.74L54.59,6.69a12.8,12.8,0,0,0-3,18.13A7,7,0,0,1,52.86,30.19Z"/><path class="cls-2" d="M71.06,30.19a7.13,7.13,0,0,1-3,4.74l3.24,4.66a12.8,12.8,0,0,0,3-18.13A7,7,0,0,1,73,16.08a7.14,7.14,0,0,1,3-4.74L72.79,6.69a12.8,12.8,0,0,0-3,18.13A7,7,0,0,1,71.06,30.19Z"/></g></g></svg>