<svg xmlns="http://www.w3.org/2000/svg" viewBox="0 0 113.39 113.39"><defs><style>.cls-1{fill:none;}.cls-2{fill:#040000;}</style></defs><title>アセット 345</title><g id="レイヤー_2" data-name="レイヤー 2"><g id="waku"><rect class="cls-1" width="113.39" height="113.39"/></g><g id="編集モード"><path class="cls-2" d="M52,90.12a13.34,13.34,0,0,1,2-6.67.9.9,0,0,0-.15-1,13.87,13.87,0,0,1-6.17-11.7,13.67,13.67,0,0,1,5.44-10.51A12.62,12.62,0,0,0,50.59,58a4.42,4.42,0,0,1-1.36-5.69,12.81,12.81,0,0,0-9.47-19.74A4.42,4.42,0,0,1,36.18,28,12.38,12.38,0,0,0,35,21.56c-2.26-4.71-7.2-7.39-12.6-7.39A17.17,17.17,0,0,0,15,15.88C7.24,19.61,3.61,28.18,6.9,35a13.25,13.25,0,0,0,10.29,7.21,4.42,4.42,0,0,1,3.58,4.62A12.32,12.32,0,0,0,26.2,58.2a4.42,4.42,0,0,1,1.36,5.69A12.81,12.81,0,0,0,37,83.63a4.42,4.42,0,0,1,3.58,4.62,12.41,12.41,0,0,0,1.16,6.41C44,99.37,49,102,54.37,102a16.74,16.74,0,0,0,3.56-.39A14,14,0,0,1,52,90.12Z"/><path class="cls-2" d="M67.13,100.26a12.82,12.82,0,0,1-.87-1.11,12.53,12.53,0,0,1-.74-1.23A12.24,12.24,0,0,1,64.71,96a10.66,10.66,0,0,1,.8-8.83,10.42,10.42,0,0,1,3.71-3.73,11.46,11.46,0,0,1-1.09-5,10.43,10.43,0,0,1,.2-1.83,11.12,11.12,0,0,1,1.19-3.22,10.55,10.55,0,0,1,6.78-5,10.64,10.64,0,0,0-1-2.4,3.68,3.68,0,0,1,1.14-4.78,10.77,10.77,0,0,0,.41-18.4A3.7,3.7,0,0,1,76,38.05a10.48,10.48,0,0,0,1.57-5.25,10.87,10.87,0,0,0-3.66-8.27,13.93,13.93,0,0,0-9.19-3.6h-.35c-7.15,0-12.87,5-13,11.28a11.07,11.07,0,0,0,5,9.31,3.69,3.69,0,0,1,.93,4.83A10.35,10.35,0,0,0,57,56.92a3.74,3.74,0,0,1-.13,3.74,3.29,3.29,0,0,1-1,1l0,0a13.17,13.17,0,0,0-1.16.83,10.86,10.86,0,0,0-4.19,8.22,11.08,11.08,0,0,0,5,9.32,3.69,3.69,0,0,1,.93,4.83,10.5,10.5,0,0,0-1.56,5.25,11.47,11.47,0,0,0,6.62,10.32,14,14,0,0,0,1.72.72,14.28,14.28,0,0,0,1.91.54,14.79,14.79,0,0,0,2.58.29H68c.33,0,.66,0,1,0A13.22,13.22,0,0,1,67.13,100.26Z"/><path class="cls-2" d="M98.34,48.21a10.38,10.38,0,0,0-5.17-1.42,8.15,8.15,0,0,0-7.22,3.91,8,8,0,0,0-.09,7.63,2.71,2.71,0,0,1-1.1,3.38,7.49,7.49,0,0,0-3.82,6.61,2.75,2.75,0,0,1-1.44,2.35,2.32,2.32,0,0,1-.95.28l-.48.06a9.13,9.13,0,0,0-1.4.27A7.73,7.73,0,0,0,72,74.84,7.5,7.5,0,0,0,71,77.61a8.09,8.09,0,0,0,.19,3,9.23,9.23,0,0,0,.66,1.83,2.2,2.2,0,0,1,.16.43v0a2.75,2.75,0,0,1-1,2.72,2.36,2.36,0,0,1-.28.2A7.59,7.59,0,0,0,68,88.64a7.87,7.87,0,0,0-.56,6.51c.07.21.16.42.24.62a9.53,9.53,0,0,0,.7,1.36,9.89,9.89,0,0,0,.85,1.18A10.57,10.57,0,0,0,72,100.63a10.8,10.8,0,0,0,1.08.53,10.46,10.46,0,0,0,2,.65,10,10,0,0,0,2.06.24l.37,0a8.09,8.09,0,0,0,6.85-3.89,8,8,0,0,0,.1-7.63,2.7,2.7,0,0,1,1.09-3.38,7.49,7.49,0,0,0,3.83-6.61,2.7,2.7,0,0,1,2.39-2.63,7.79,7.79,0,0,0,6.67-11.52A2.71,2.71,0,0,1,99.52,63a7.57,7.57,0,0,0,2.82-2.78C104.65,56.21,102.86,50.83,98.34,48.21Z"/></g></g></svg>