<svg xmlns="http://www.w3.org/2000/svg" viewBox="0 0 113.39 113.39"><defs><style>.cls-1{fill:none;}.cls-2{fill:#040000;}</style></defs><title>アセット 361</title><g id="レイヤー_2" data-name="レイヤー 2"><g id="waku"><rect class="cls-1" width="113.39" height="113.39"/></g><g id="編集モード"><path class="cls-2" d="M56.7,49.67,53,53.92l-2.37,2.71,3.78,3.31,2.31,2,2.3-2,3.78-3.31-2.38-2.71Z"/><path class="cls-2" d="M61.81,63.13l-1.87,1.64c2.35,2,4.78,4.1,7.11,6,1.05-1.12,2.12-2.26,3.17-3.42l.88-1c-1.75-2.15-3.65-4.38-5.52-6.55Z"/><path class="cls-2" d="M68.79,57.05q2.84,3.29,5.17,6.11c2.82-3.22,5-5.91,6.7-8.15-1.3-1.3-2.74-2.73-4.3-4.24C73.94,52.68,71.34,54.86,68.79,57.05Z"/><path class="cls-2" d="M68.33,26.44c-.44,0-2.38.06-8.1,4.1,1.23,1,2.56,2.08,4,3.3C66.74,30.48,68.41,27.73,68.33,26.44Z"/><path class="cls-2" d="M70.39,73.42c3.85,3,7.07,5,8.57,5.06,0-1.52-2.15-4.8-5.18-8.72l-1.53,1.67Z"/><path class="cls-2" d="M61.62,37.22c-1.83-1.56-3.47-2.89-4.93-4-1.46,1.14-3.09,2.47-4.92,4,1.54,1.92,3.22,3.94,4.93,5.94C58.41,41.16,60.09,39.14,61.62,37.22Z"/><path class="cls-2" d="M49.79,51.11c1.28-1.46,2.68-3,4.1-4.69q-3-3.48-5.34-6.4c-1,.85-2,1.74-3,2.7-1.86,1.69-3.68,3.41-5.43,5.07,2.19,1.75,4.61,3.77,7.27,6.06Z"/><path class="cls-2" d="M63.61,51.11,66,53.84c2.66-2.29,5.07-4.31,7.27-6.06-1.75-1.67-3.58-3.38-5.44-5.08q-1.56-1.42-3-2.68Q62.5,43,59.51,46.42C60.93,48.06,62.33,49.65,63.61,51.11Z"/><path class="cls-2" d="M86.45,44.59c-1.21,0-3.65,1.38-6.67,3.57,1.2,1.17,2.35,2.3,3.4,3.35C86.3,46.85,86.49,45.09,86.45,44.59Z"/><path class="cls-2" d="M39.62,69.76c-3,3.92-5.17,7.2-5.18,8.72,1.5,0,4.72-2.1,8.57-5.06l-1.86-2Z"/><path class="cls-2" d="M45.07,26.47c-.05,1.3,1.61,4,4.1,7.38,1.43-1.22,2.76-2.31,4-3.3C47.61,26.65,45.6,26.43,45.07,26.47Z"/><path class="cls-2" d="M56.7,11.34A45.35,45.35,0,1,0,102,56.69,45.35,45.35,0,0,0,56.7,11.34ZM90,61.57a2.13,2.13,0,0,1-3-.08s-1.28-1.35-3.33-3.43c-1.83,2.39-4.14,5.18-7,8.46,5.9,7.59,8.1,12.34,5.39,15s-7.27.6-14.61-5c-2.85,3-5.53,5.68-7.72,7.85,1.38,1.34,2.22,2.14,2.24,2.17A2.13,2.13,0,1,1,59,89.63s-.9-.86-2.34-2.27c-1.44,1.41-2.32,2.24-2.34,2.27a2.13,2.13,0,0,1-2.93-3.08s.87-.83,2.24-2.17c-2.19-2.17-4.86-4.87-7.72-7.85-7.34,5.65-12,7.71-14.61,5s-.52-7.46,5.39-15c-2.89-3.28-5.2-6.08-7-8.46-2,2.08-3.3,3.39-3.33,3.43a2.13,2.13,0,1,1-3.08-2.93s1.5-1.58,3.87-4c-3.76-5.45-4.43-8.16-4.45-9.85a4.35,4.35,0,0,1,1.22-3.25c2.43-2.43,6.5-.91,12.79,3.68,1.54-1.47,3.14-3,4.78-4.5s3.06-2.79,4.45-4c-4.83-6.52-6.46-10.71-4-13.2a4.33,4.33,0,0,1,3.17-1.22h.07c1.85,0,4.93.82,11.49,5.61,6.56-4.79,9.64-5.59,11.49-5.62a4.45,4.45,0,0,1,3.25,1.22c2.48,2.49.85,6.68-4,13.2,1.4,1.24,2.88,2.57,4.45,4s3.24,3,4.78,4.5C83,40.58,87,39.06,89.47,41.49a4.35,4.35,0,0,1,1.22,3.25c0,1.69-.69,4.4-4.46,9.85,2.36,2.4,3.83,3.94,3.87,4A2.13,2.13,0,0,1,90,61.57Z"/><path class="cls-2" d="M26.92,44.59c0,.39.05,2.1,3.3,6.92,1-1,2.19-2.17,3.39-3.34C30.57,46,28.12,44.53,26.92,44.59Z"/><path class="cls-2" d="M51.59,63.13l-3.77-3.29C46,62,44.06,64.24,42.3,66.38l.87,1c1.06,1.16,2.12,2.3,3.17,3.42,2.33-1.9,4.76-4,7.11-6Z"/><path class="cls-2" d="M37,50.78c-1.55,1.51-3,2.94-4.29,4.23,1.7,2.24,3.88,4.92,6.7,8.15q2.33-2.83,5.17-6.1C42.05,54.87,39.45,52.69,37,50.78Z"/><path class="cls-2" d="M49.3,73.87c2.74,2.85,5.3,5.44,7.4,7.53,2.1-2.09,4.66-4.67,7.4-7.53-2.24-1.84-4.71-3.94-7.4-6.27C54,69.93,51.54,72,49.3,73.87Z"/></g></g></svg>