<svg xmlns="http://www.w3.org/2000/svg" viewBox="0 0 113.39 113.39"><defs><style>.cls-1{fill:none;}.cls-2{fill:#040000;}</style></defs><title>アセット 366</title><g id="レイヤー_2" data-name="レイヤー 2"><g id="waku"><rect class="cls-1" width="113.39" height="113.39"/></g><g id="編集モード"><path class="cls-2" d="M100,64.21,76.42,25.3A22.88,22.88,0,0,0,56.7,14.17h0A22.88,22.88,0,0,0,37,25.29L13.43,64.21a23.05,23.05,0,0,0,19.73,35H80.23a23.05,23.05,0,0,0,19.73-35ZM95.38,84.68a17.18,17.18,0,0,1-15.14,8.85H73.7V53.84h-34V93.53H33.15A17.38,17.38,0,0,1,18.28,67.15L41.82,28.23a17.26,17.26,0,0,1,14.88-8.39h0a17.25,17.25,0,0,1,14.87,8.39L95.11,67.15A17.18,17.18,0,0,1,95.38,84.68Z"/></g></g></svg>