<svg xmlns="http://www.w3.org/2000/svg" viewBox="0 0 113.39 113.39"><defs><style>.cls-1{fill:none;}.cls-2{fill:#040000;}</style></defs><title>アセット 337</title><g id="レイヤー_2" data-name="レイヤー 2"><g id="waku"><rect class="cls-1" width="113.39" height="113.39"/></g><g id="編集モード"><path class="cls-2" d="M18.23,65.89c-.36.64-.72,1.28-1.08,1.92a47.36,47.36,0,0,0-2.37,5,42.09,42.09,0,0,0-2.69,10c-1,7.42-.06,15,1.73,22.15H73.94l3.42-5.13a69.08,69.08,0,0,0-11-12.87A84.37,84.37,0,0,0,30.15,67.81a102.84,102.84,0,0,0-11.68-2.35h0Z"/><path class="cls-2" d="M42.89,35.13c14,2.43,27.68,7.71,39.22,16.6a59.91,59.91,0,0,1,9,8.1l13.24,0,3.4-5.09c-10.31-15.63-25.95-26-43-31a127.36,127.36,0,0,0-14.06-2.94v0A26.68,26.68,0,0,0,43,10.2q-.79-.7-1.68-1.39l-.1.08A27.46,27.46,0,0,0,32.09,20.8a19.61,19.61,0,0,0-5.22-4.62c-3,4.27-5.11,11.58-4.36,16.57A12.89,12.89,0,0,0,17,29.65a28.24,28.24,0,0,0-.49,15.7,14.49,14.49,0,0,0-6.42-3c-2,9.75,2.1,20.74,8.35,23.14l5.94-8.37C39.56,59.24,54.5,64.58,67,74.14a73.48,73.48,0,0,1,9.09,8.23H89.23l3.41-5.11c-10.41-15.78-26.78-26-43.94-31a103.58,103.58,0,0,0-14.33-3.16l5.92-8.34C41.17,34.84,42.08,35,42.89,35.13Z"/></g></g></svg>