<svg xmlns="http://www.w3.org/2000/svg" viewBox="0 0 113.39 113.39"><defs><style>.cls-1{fill:none;}.cls-2{fill:#040000;}</style></defs><title>アセット 335</title><g id="レイヤー_2" data-name="レイヤー 2"><g id="waku"><rect class="cls-1" width="113.39" height="113.39"/></g><g id="編集モード"><path class="cls-2" d="M13.6,68.46a31.59,31.59,0,0,0,2.74,8.37c5,10.14,14.68,16,26.2,16q1.14,0,2.3-.08a290,290,0,0,0,30.51-3.51C90.14,86.71,97.5,79,98.8,64.56l-5.61-.4c-.83,10.07-5,17.14-18.79,19.51a280.73,280.73,0,0,1-29.93,3.44c-10.31.68-18.71-4-23-12.78a25.53,25.53,0,0,1-1.53-3.89Z"/><path class="cls-2" d="M108.57,51c3.2,4.45,2.39,8.7-2.46,8.61s-8.34-2-20.17-.9c-11.14,1-19.9,2-28.45,3.59-7.71,1.39-15.82,2.88-17.93,3.29a41.5,41.5,0,0,1-16.26-.51C16.13,63.25,6.26,59.53,3,50.21c-1-3,.11-6.55,4.84-8.68C29.05,32,51,29,64.22,29c11.29,0,19,1.88,26.15,5.47C99.42,39.07,105.37,46.55,108.57,51Z"/></g></g></svg>