<svg xmlns="http://www.w3.org/2000/svg" viewBox="0 0 113.39 113.39"><defs><style>.cls-1{fill:none;}.cls-2{fill:#040000;}</style></defs><title>アセット 374</title><g id="レイヤー_2" data-name="レイヤー 2"><g id="waku"><rect class="cls-1" width="113.39" height="113.39"/></g><g id="編集モード"><path class="cls-2" d="M103.93,76.82a32.79,32.79,0,0,1,.8-20.2l2.65-7.19a5.24,5.24,0,0,0-7.06-6.59l-9.45,4.24L82.23,21.74a5.66,5.66,0,0,0-6-3.81A153.56,153.56,0,0,0,61,20.37C46.64,13.91,29.89,15.63,19,22a71.59,71.59,0,0,1,.67,12.51,5.65,5.65,0,0,1-5.06,5.44,65.93,65.93,0,0,1-7.76.35C5.42,54.23,13,73,30.32,82.82A53.48,53.48,0,0,0,43.77,88.2l1.92,3a11.34,11.34,0,0,0,14,4.25l14.38-6.16a153.25,153.25,0,0,0,27.69,6.39A5.24,5.24,0,0,0,107.35,89ZM30,33.34a6.38,6.38,0,1,1,6.39,6.37A6.38,6.38,0,0,1,30,33.34ZM92.24,88.08l-14-5.76-4-1.65a19.72,19.72,0,0,0,2.67-2l3.71,1.52,12.72,5.22Zm3.1-10.58L84.27,75.82l-4.18-.64a21.42,21.42,0,0,0,1.61-2.62l4.13.63,9.94,1.51ZM88.13,67.33l-4.54.11a28.8,28.8,0,0,0,.56-2.85l4.58-.11,8-.19.07,2.83Zm1-9-4.75,1.19A21.65,21.65,0,0,0,84,56.74l4.9-1.23,7.93-2,.69,2.75Z"/><circle class="cls-2" cx="36.41" cy="33.33" r="3.12" transform="translate(-0.04 0.04) rotate(-0.07)"/><path class="cls-2" d="M9.85,28.6c.18.26.42.56.69.88a70.24,70.24,0,0,0,6.65,6.34c.26-4.3.33-9.56-.28-11a4.2,4.2,0,0,0-2-2.08l-.17-.09A4,4,0,0,0,9.48,28,3.64,3.64,0,0,0,9.85,28.6Z"/><path class="cls-2" d="M15.84,37.39A47.25,47.25,0,0,0,9.29,31.6a3.24,3.24,0,0,0-.59-.29,3.42,3.42,0,0,0-1-.18h-.1a3.44,3.44,0,0,0-3.25,2.32,3.48,3.48,0,0,0,2.14,4.37,3.49,3.49,0,0,0,.72.14A48.23,48.23,0,0,0,15.84,37.39Z"/></g></g></svg>