<svg xmlns="http://www.w3.org/2000/svg" viewBox="0 0 113.39 113.39"><defs><style>.cls-1{fill:none;}.cls-2{fill:#040000;}</style></defs><title>アセット 355</title><g id="レイヤー_2" data-name="レイヤー 2"><g id="waku"><rect class="cls-1" width="113.39" height="113.39"/></g><g id="編集モード"><path class="cls-2" d="M50.41,79.89l4.22-3.78A8.52,8.52,0,1,0,41.95,87.47l4.22-3.78a2.85,2.85,0,1,1,4.24-3.8Z"/><path class="cls-2" d="M65,60.5,59.93,63a8.52,8.52,0,1,0,15.25-7.6L70.1,58A2.85,2.85,0,1,1,65,60.5Z"/><path class="cls-2" d="M29.75,73.31a15.79,15.79,0,0,0,.77,2.9l5.31-2A10,10,0,0,1,49,61.55a20.25,20.25,0,0,0,0,2.19l5.66-.35a14.24,14.24,0,0,1,12-15l-3-5.14A19.95,19.95,0,0,0,50.11,55.91,15.63,15.63,0,0,0,29.92,67.32a13.93,13.93,0,0,0-9.86,8.27,14.08,14.08,0,0,0,5.86,17.6l3.76-4.43a8.41,8.41,0,0,1,.08-15.45Z"/><path class="cls-2" d="M89.29,42.68a19.13,19.13,0,0,0-2.14-6.16l17.32-20.57c-4.85-4.08-13.43-1.86-19.16,5l-.24.3c0-.08,0-.16,0-.24C83,12.29,76.36,6.42,70.19,7.85l5.68,24.39-.92,1.81a32.49,32.49,0,0,1-5.68,7.59l1.48,2.51.23.39,1.24,2.11a36.43,36.43,0,0,0,4.43-4.85c.74-1,1.43-1.95,2.05-2.93l.15-.22.21.06,2.55.71.81.22a13.7,13.7,0,0,1,1.28,4,21.18,21.18,0,0,1-2.34,13.06l0,0h0a16.26,16.26,0,0,1-7.86,19.35,15.68,15.68,0,0,0-2-3.45L67,76a9.91,9.91,0,0,1-9.66,15.78,15.85,15.85,0,0,0,.79-4.62l-5.67-.12A10.1,10.1,0,0,1,34,92.47L30.2,96.9A15.77,15.77,0,0,0,54.52,97a15.43,15.43,0,0,0,4.61.72A15.6,15.6,0,0,0,74.72,81.77,21.94,21.94,0,0,0,87.36,57.23,26.32,26.32,0,0,0,89.29,42.68Z"/></g></g></svg>