<svg xmlns="http://www.w3.org/2000/svg" viewBox="0 0 113.39 113.39"><defs><style>.cls-1{fill:none;}.cls-2{fill:#040000;}</style></defs><title>アセット 367</title><g id="レイヤー_2" data-name="レイヤー 2"><g id="waku"><rect class="cls-1" width="113.39" height="113.39"/></g><g id="編集モード"><path class="cls-2" d="M96.06,43c-3-11.32-10.43-17.3-22.54-22-11.21-4.36-24.26-6.39-35,3.39-10.3,9.42-18.71,10.18-19.71,23.83-.85,11.64,4.78,15.62,3.53,28-1,10,4,14.6,7.92,16.94a27.36,27.36,0,0,0,18,3.84c7.08-.85,9.95-1.37,18.63.07,7.7,1.27,14.58-.21,20.22-4.6,4.59-3.57,8.1-9.62,7-19.08C92.73,60.75,100,57.87,96.06,43ZM48.28,64.15a.85.85,0,0,1-1.7,0,14.13,14.13,0,0,0-5-9.65,13.13,13.13,0,0,0-9.65-3,2.85,2.85,0,1,1-.11-5.68h.11a18.13,18.13,0,0,1,6.82,1.85,17.59,17.59,0,0,1,5.43,4.21A16.84,16.84,0,0,1,48.28,64.15ZM54.17,41c10.3-3.54,12.21-4.74,15.8-11.69.48-.92,2-.39,1.69.59-2.45,7.38-1.53,10.71,4.26,18.52,2.61,3.53-2.06,5.5-3.46,2.77-4.67-9.08-7.19-10.56-17.72-8.48C53.65,42.88,53.12,41.31,54.17,41ZM83.74,65a14.26,14.26,0,0,0-6.86,5.69c-1.65,2.48-2.56,5.72-4.87,8.76a17.88,17.88,0,0,1-9.28,6.14,16.47,16.47,0,0,1-11.41-1.1l-.07,0a2.84,2.84,0,0,1,2.46-5.12l.19.1a11.55,11.55,0,0,0,7.75,1.36,13.46,13.46,0,0,0,7.29-3.93c1.95-2,3.19-5.18,5.44-8a15,15,0,0,1,8.91-5.49A.85.85,0,0,1,83.74,65Z"/></g></g></svg>