<svg xmlns="http://www.w3.org/2000/svg" viewBox="0 0 113.39 113.39"><defs><style>.cls-1{fill:none;}.cls-2{fill:#040000;}</style></defs><title>アセット 353</title><g id="レイヤー_2" data-name="レイヤー 2"><g id="waku"><rect class="cls-1" width="113.39" height="113.39"/></g><g id="編集モード"><path class="cls-2" d="M96.38,28.35h-8.5L79.38,8.5l-8.5,19.84H42.52L34,8.5l-8.5,19.84H11.14v4.59A19.89,19.89,0,0,0,23.87,51.49l11,37.09a22.78,22.78,0,0,0,43.68,0l11-37.15a19.89,19.89,0,0,0,12.56-18.49V28.35ZM39,64.69a3.54,3.54,0,1,1,3.54-3.54A3.54,3.54,0,0,1,39,64.69ZM56.69,97a8.29,8.29,0,0,1-8.29-8.28h4.25a4,4,0,0,0,8.07,0H65A8.29,8.29,0,0,1,56.69,97ZM74.42,64.69A3.54,3.54,0,1,1,78,61.14,3.54,3.54,0,0,1,74.42,64.69Z"/></g></g></svg>