<svg xmlns="http://www.w3.org/2000/svg" viewBox="0 0 113.39 113.39"><defs><style>.cls-1{fill:none;}.cls-2{fill:#040000;}</style></defs><title>アセット 346</title><g id="レイヤー_2" data-name="レイヤー 2"><g id="waku"><rect class="cls-1" width="113.39" height="113.39"/></g><g id="編集モード"><polygon class="cls-2" points="11.34 88.24 11.34 93.91 102.05 93.88 102.05 85.39 11.34 88.24"/><polygon class="cls-2" points="11.34 102.41 102.05 105.23 102.05 96.74 11.34 96.74 11.34 102.41"/><path class="cls-2" d="M45.36,73.45v6.34H70.87V73.45C85.6,69.8,96.38,56.4,96.38,40.1H19.85C19.85,56.41,30.62,69.81,45.36,73.45Z"/><path class="cls-2" d="M28.38,35.85c0-.05,0-.1,0-.16a11.57,11.57,0,0,1,8.26-11.14l1.45-.44.44-1.45A11.72,11.72,0,0,1,49.67,14.4a11.54,11.54,0,0,1,6.79,2.2l1.66,1.19,1.66-1.19a11.56,11.56,0,0,1,6.79-2.2A11.72,11.72,0,0,1,77.7,22.67l.44,1.45,1.45.44A11.57,11.57,0,0,1,87.85,35.7c0,.05,0,.1,0,.16h5.67c0-.05,0-.1,0-.16A17.2,17.2,0,0,0,82.64,19.62a17.29,17.29,0,0,0-24.52-8.68A17.29,17.29,0,0,0,33.6,19.62,17.2,17.2,0,0,0,22.71,35.7c0,.05,0,.1,0,.16Z"/></g></g></svg>