<svg xmlns="http://www.w3.org/2000/svg" viewBox="0 0 113.39 113.39"><defs><style>.cls-1{fill:none;}.cls-2{fill:#040000;}</style></defs><title>アセット 352</title><g id="レイヤー_2" data-name="レイヤー 2"><g id="waku"><rect class="cls-1" width="113.39" height="113.39"/></g><g id="編集モード"><rect class="cls-2" x="25.51" y="90.71" width="62.36" height="5.67"/><rect class="cls-2" x="25.51" y="14.17" width="62.36" height="5.67"/><path class="cls-2" d="M34.21,82.61c12.6-9.27,13.86-26.3,25-36.81a6.14,6.14,0,0,0-.35-9.35L48.51,28.37a6.08,6.08,0,0,0-7.47,0,37.37,37.37,0,0,0-9.24,11.27h-29v5.67h26c-3.51,7.13-6.68,14.45-12.69,19.83l-.05.05H2.83v5.67H14.32a6.18,6.18,0,0,0,2.25,3.6l10.31,8A6.09,6.09,0,0,0,34.21,82.61Z"/><path class="cls-2" d="M97.22,45.8a6.43,6.43,0,0,0,.5-.53h12.83V39.61H99a6,6,0,0,0-2.11-3.16L86.49,28.37a6.08,6.08,0,0,0-7.47,0C66.68,38,65.4,55,54.11,65.11a6.11,6.11,0,0,0,.43,9.33l10.31,8a6.09,6.09,0,0,0,7.34.14,36,36,0,0,0,9.87-11.78h28.49V65.16H85C88.38,58.28,91.5,51.19,97.22,45.8Z"/></g></g></svg>