<svg xmlns="http://www.w3.org/2000/svg" viewBox="0 0 113.39 113.39"><defs><style>.cls-1{fill:none;}.cls-2{fill:#040000;}</style></defs><title>アセット 302</title><g id="レイヤー_2" data-name="レイヤー 2"><g id="waku"><rect class="cls-1" width="113.39" height="113.39"/></g><g id="編集モード"><path class="cls-2" d="M81.18,51.63c2.61-5.61,3.44-10.76,1.59-16.72a67.24,67.24,0,0,1,8.54,2.19h0a13.85,13.85,0,0,0,4.23.66c6.66,0,12.06-4.62,12.05-10.31s-5.41-10.29-12.07-10.29a14,14,0,0,0-3.17.37c-2-5.24-7.74-9-14.54-9s-12.38,3.71-14.43,8.84A14.13,14.13,0,0,0,60.25,17c-6.73,0-12.18,4.67-12.18,10.41s5.46,10.4,12.19,10.39a14,14,0,0,0,4.2-.65h0a58.34,58.34,0,0,1,6.87-1.89c2.11,5.57-.78,10.69-6.25,15.24A64,64,0,0,0,52,65.07a18.67,18.67,0,0,1-15.2-11,35.71,35.71,0,0,1,6.06,1.39h0a10,10,0,0,0,3,.46c4.86,0,8.79-3.41,8.79-7.6s-3.95-7.59-8.8-7.59a10.09,10.09,0,0,0-2.31.28c-1.44-3.87-5.64-6.66-10.6-6.66s-9,2.73-10.52,6.52a10.19,10.19,0,0,0-2.29-.27c-4.91,0-8.88,3.44-8.88,7.68s4,7.67,8.89,7.66A10.14,10.14,0,0,0,23,55.5h0a36.17,36.17,0,0,1,5.85-1.41,29.09,29.09,0,0,0,1.85,5.83,27.43,27.43,0,0,0,5.34,8,28.39,28.39,0,0,0,7.89,5.74,30.37,30.37,0,0,0,3.57,1.46A30.44,30.44,0,0,0,45.74,85L14.11,85l8.56,17,68-.06,8.44-17L74.77,85a12,12,0,0,1-4.35-9.39C70.43,66.77,76.18,62.36,81.18,51.63Z"/></g></g></svg>