<svg xmlns="http://www.w3.org/2000/svg" viewBox="0 0 113.39 113.39"><defs><style>.cls-1{fill:none;}.cls-2{fill:#040000;}</style></defs><title>アセット 285</title><g id="レイヤー_2" data-name="レイヤー 2"><g id="waku"><rect class="cls-1" width="113.39" height="113.39"/></g><g id="編集モード"><polygon class="cls-2" points="52.15 68.03 66.27 32.31 62.36 22.68 49.01 55.6 32.63 14.17 11.34 68.03 28.39 68.03 28.39 82.2 36.87 82.2 36.87 68.03 52.15 68.03"/><polygon class="cls-2" points="73.76 68.09 73.76 82.27 82.25 82.27 82.25 68.09 99.27 68.09 77.98 14.23 68.58 38.01 56.69 68.09 73.76 68.09"/><path class="cls-2" d="M65.4,85.57c2.17-2.21,1.33-5.29-2.58-7.67A28.91,28.91,0,0,0,51,73.7H42.5c7.34,4.3,6.65,9-.52,11.15-11,3.28-9.45,11.32.55,14.35H82.22C71.88,95,59.83,91.23,65.4,85.57Z"/></g></g></svg>