<svg xmlns="http://www.w3.org/2000/svg" viewBox="0 0 113.39 113.39"><defs><style>.cls-1{fill:none;}.cls-2{fill:#040000;}</style></defs><title>アセット 305</title><g id="レイヤー_2" data-name="レイヤー 2"><g id="waku"><rect class="cls-1" width="113.39" height="113.39"/></g><g id="編集モード"><path class="cls-2" d="M101.93,27.27l-9.5-.05A61.77,61.77,0,0,0,56.81,38.31l-29.66-27-.05,9.5A61.77,61.77,0,0,0,38.19,56.46l-27,29.66,9.5.05A61.77,61.77,0,0,0,56.33,75.08l29.66,27,.05-9.5A61.77,61.77,0,0,0,75,56.93Zm-39.25,35a8.26,8.26,0,1,1-.55-11.66A8.26,8.26,0,0,1,62.68,62.25Z"/></g></g></svg>