<svg xmlns="http://www.w3.org/2000/svg" viewBox="0 0 113.39 113.39"><defs><style>.cls-1{fill:none;}.cls-2{fill:#040000;}</style></defs><title>アセット 290</title><g id="レイヤー_2" data-name="レイヤー 2"><g id="waku"><rect class="cls-1" width="113.39" height="113.39"/></g><g id="編集モード"><path class="cls-2" d="M49.61,58.53c-4.25-2.46-5.43-3.26-9.21-3.26s-6,1.39-10.67,3C39.69,59.89,45.36,59.89,49.61,58.53Z"/><path class="cls-2" d="M83.65,58.3c-4.71-1.64-6.89-3-10.67-3s-5,.8-9.21,3.26C68,59.89,73.68,59.89,83.65,58.3Z"/><path class="cls-2" d="M48.19,31.17c0-1.57-1.77-2.83-5.67-2.83s-5.67,1.27-5.67,2.83S39.39,34,42.52,34,48.19,32.74,48.19,31.17Z"/><path class="cls-2" d="M83.3,17.13"/><path class="cls-2" d="M56.69,104.87c21,0,36.84-21.51,36.85-50l0-.06c0-18.75-3.93-29.63-10.25-37.67C77.48,9.71,70,5.67,59.53,5.67v5.88c0,2.7,1,4.2,3.63,4.69,12.57,2.35,17.59,10.27,21.13,24.2,3.36,13.21,3.48,27.4-1.49,39.3C77.33,91.64,67.87,99.2,56.69,99.2S36.06,91.64,30.58,79.74c-5-11.89-4.84-26.09-1.49-39.3,3.54-13.93,8.56-21.86,21.13-24.2,2.64-.49,3.63-2,3.63-4.69V5.67c-10.45,0-18,4-23.78,11.46-6.32,8-10.25,18.92-10.25,37.67l0,.06c0,28.51,15.86,50,36.85,50Z"/><path class="cls-2" d="M76.52,31.17c0-1.57-1.77-2.83-5.67-2.83s-5.67,1.27-5.67,2.83S67.72,34,70.85,34,76.52,32.74,76.52,31.17Z"/><path class="cls-2" d="M66.62,81.29S62.26,85,56.89,85s-10.11-3.74-10.11-3.74a30.11,30.11,0,0,1,10.11-1.93A26.69,26.69,0,0,1,66.62,81.29Z"/></g></g></svg>