<svg xmlns="http://www.w3.org/2000/svg" viewBox="0 0 113.39 113.39"><defs><style>.cls-1{fill:none;}.cls-2{fill:#040000;}</style></defs><title>アセット 292</title><g id="レイヤー_2" data-name="レイヤー 2"><g id="waku"><rect class="cls-1" width="113.39" height="113.39"/></g><g id="編集モード"><path class="cls-2" d="M65.37,73.59l-.19.33A94.46,94.46,0,0,1,45.06,98.08l-2.54,2.18-9.37-8-5.4-4.6-9.44-8,2-3.22c.22-.35.45-.69.67-1a51.36,51.36,0,0,1,11.42,6.77A20.34,20.34,0,0,1,35.33,85s5.36-22.17,5.85-24.15c-6.76,2.69-18.08,2.6-27.83.52L6.49,60,5.61,63.6h0l-1.47,6h0a105.1,105.1,0,0,1,11.5,3.55l-.16.25L10.93,80.8,24.11,92l-7,8.33,5.43,4.56,7-8.29,13,11.09,6.22-5.34A100.12,100.12,0,0,0,70.08,76.77l2.58-4.42L59.37,61,88.68,26.1,99.38,35l2.73-3.26L91.42,22.85l2.72-3.24,10.7,8.94,2.73-3.26L97.41,16.8l3.82-3.18a2.35,2.35,0,0,0,0-3.64L96.52,6.19A2.35,2.35,0,0,0,93,6.93L88.72,15h0l-10-8.33L76,10l10,8.33L54,56.44l-12.92-11L36.76,49a102.31,102.31,0,0,0-10,9.58,46.58,46.58,0,0,0,8.32-.44c1.15-1.17,3.48-3.25,5.32-4.78l.63-.52Z"/></g></g></svg>