<svg xmlns="http://www.w3.org/2000/svg" viewBox="0 0 113.39 113.39"><defs><style>.cls-1{fill:none;}.cls-2{fill:#040000;}</style></defs><title>アセット 288</title><g id="レイヤー_2" data-name="レイヤー 2"><g id="waku"><rect class="cls-1" width="113.39" height="113.39"/></g><g id="編集モード"><path class="cls-2" d="M87.67,69c4.42-5.51,6.59-10.82,6.45-15.84A14.73,14.73,0,0,0,88.67,42c-4.82-4-12.57-5.94-20.22-6.75a12.85,12.85,0,0,1-3.11,3.32,12.67,12.67,0,0,1-7.59,2.53h-.09a12.68,12.68,0,0,1-7.51-2.53,12.85,12.85,0,0,1-2.76-2.81,30.09,30.09,0,0,0-15.09,9.57l-.3.34a58.21,58.21,0,0,1-6.27,6.6A31.34,31.34,0,0,1,18,56.93c-1,.45-2.06.87-3.1,1.27l2.32,8.18A48.44,48.44,0,0,0,29.71,61.7c.47-.27.93-.55,1.39-.84s1.2-.78,1.78-1.19h1a15.36,15.36,0,0,0,2.86,8.06,18.47,18.47,0,0,0,3.11,3.37,26.55,26.55,0,0,0,14,5.77,31.86,31.86,0,0,0,8.53-.1A25.84,25.84,0,0,0,76.3,70.47q.43-.41.83-.83l1.16,1.24,1.88,2a21.35,21.35,0,0,1-3.83,4,24.05,24.05,0,0,1-6.9,3.83V93.54H66.61v-12a32.77,32.77,0,0,1-3.48.67l-.72.09c-.94.11-1.91.19-2.91.23v11H56.67v-11q-1.46,0-2.82-.17-.76-.07-1.5-.17-1.57-.22-3-.56V93.54H46.5V80.85a24.51,24.51,0,0,1-6.64-3.44A21.28,21.28,0,0,1,32.61,68C18.54,70,18.1,83.74,21.9,99.21H34c-2.07-10.79-1.26-16.16,5.81-17.09l-.13,17.09H76.54l-.14-17.1c7.11.91,7.93,6.29,5.86,17.1h12.1C97.76,85.37,97.78,72.87,87.67,69Z"/><path class="cls-2" d="M54.25,37.61h0a9.85,9.85,0,0,0,3.39.64h.09a9.85,9.85,0,0,0,3.48-.64h0a9.91,9.91,0,0,0,1.2-18,4.91,4.91,0,0,0,.26-1.45s0-.06,0-.09a5,5,0,0,0-5-5h0a5,5,0,0,0-5,5s0,.06,0,.09a4.91,4.91,0,0,0,.26,1.45,9.92,9.92,0,0,0,1.2,18Z"/></g></g></svg>