<svg xmlns="http://www.w3.org/2000/svg" viewBox="0 0 113.39 113.39"><defs><style>.cls-1{fill:none;}.cls-2{fill:#040000;}</style></defs><title>アセット 404</title><g id="レイヤー_2" data-name="レイヤー 2"><g id="waku"><rect class="cls-1" width="113.39" height="113.39"/></g><g id="編集モード"><path class="cls-2" d="M56.69,14.17c-24.88,23.41-53.85,34-53.85,34H110.54S81.57,37.58,56.69,14.17Z"/><polygon class="cls-2" points="93.54 60.85 104.88 52.44 8.5 52.44 19.84 60.85 93.54 60.85"/><polygon class="cls-2" points="85.04 66.52 76.54 66.52 76.54 90.71 68.98 90.71 68.98 66.52 60.47 66.52 60.47 90.71 52.91 90.71 52.91 66.52 44.41 66.52 44.41 90.71 36.85 90.71 36.85 66.52 28.35 66.52 28.35 90.71 5.67 90.71 5.67 96.38 107.71 96.38 107.71 90.71 85.04 90.71 85.04 66.52"/></g></g></svg>