<svg xmlns="http://www.w3.org/2000/svg" viewBox="0 0 113.39 113.39"><defs><style>.cls-1{fill:none;}.cls-2{fill:#040000;}</style></defs><title>アセット 412</title><g id="レイヤー_2" data-name="レイヤー 2"><g id="waku"><rect class="cls-1" width="113.39" height="113.39"/></g><g id="編集モード"><path class="cls-2" d="M82.23,68V34h0C82.19,20,71.4,8.53,58.14,8.53S34.1,20,34.09,34h0V45.35H11.36V99.21h90.71V68ZM45.38,85H39.71V68h5.67Zm0-22.68H39.71v-17h5.67ZM45.44,34H39.76a20.19,20.19,0,0,1,8.9-16.94C45.94,22,45.44,28.32,45.44,34ZM56.72,85H51V68h5.67Zm0-22.68H51v-17h5.67ZM51.11,34c0-13,3.3-16.68,6.79-18.17,3.49,1.49,6.79,5.21,6.79,18.17Zm19.26,0c0-5.89-.54-12.5-3.5-17.44A20.12,20.12,0,0,1,76.53,34Z"/></g></g></svg>