<svg xmlns="http://www.w3.org/2000/svg" viewBox="0 0 113.39 113.39"><defs><style>.cls-1{fill:none;}.cls-2{fill:#040000;}</style></defs><title>アセット 411</title><g id="レイヤー_2" data-name="レイヤー 2"><g id="waku"><rect class="cls-1" width="113.39" height="113.39"/></g><g id="編集モード"><path class="cls-2" d="M98,93.54c-.65-3-1.29-6.11-1.91-9.11C89.22,51.28,82.1,17,56.73,17l0,.09V17C31.35,17,24.23,51.28,17.34,84.43c-.62,3-1.26,6.07-1.91,9.11H2.87v5.67H110.58V93.54Zm-60.6,0c.54-2.49,1.07-5,1.58-7.47,1.29-6.21,2.59-12.48,4.16-18A30.14,30.14,0,0,1,46,61.13c2.69-4.66,6-7.18,10.73-7.18h0c4.94,0,8.4,2.8,11.15,7.93a28.82,28.82,0,0,1,2.27,5.68c1.63,5.68,3,12.13,4.3,18.51.51,2.46,1,5,1.58,7.47Zm44.67,0c-.4-1.92-.8-3.84-1.2-5.73l0-.21c-2.07-10-4.22-20.3-6.78-29.22a41.89,41.89,0,0,0-3.29-8.22c-5-9.23-10.11-10.41-14.06-10.41-5.58,0-9.72,2.88-13.44,9.33a43.53,43.53,0,0,0-4.1,10c-2.47,8.74-4.55,18.79-6.57,28.5l0,.21c-.39,1.89-.79,3.81-1.2,5.73H27c.48-2.28,1-4.56,1.42-6.81,2.06-9.9,4.14-19.91,6.64-28.79a48.08,48.08,0,0,1,4.5-11c2.77-4.8,6-8.16,9.93-10a17.15,17.15,0,0,1,7.2-1.5h0A17.14,17.14,0,0,1,63.94,37c4.26,1.94,7.67,5.72,10.58,11.15a46,46,0,0,1,3.63,9.06c2.6,9.06,4.74,19.35,6.85,29.53.47,2.24.94,4.52,1.42,6.81Z"/></g></g></svg>