<svg xmlns="http://www.w3.org/2000/svg" viewBox="0 0 113.39 113.39"><defs><style>.cls-1{fill:none;}.cls-2{fill:#040000;}</style></defs><title>アセット 277</title><g id="レイヤー_2" data-name="レイヤー 2"><g id="waku"><rect class="cls-1" width="113.39" height="113.39"/></g><g id="編集モード"><path class="cls-2" d="M110.19,62a9.91,9.91,0,0,0-5.7-5.91L103,52c2.68-.81,4.29-3.1,3.18-6-2.55-6.69-18.11-17.69-49.53-17.69S9.72,39.35,7.17,46c-1.11,2.91.5,5.21,3.18,6L8.89,56.12A9.91,9.91,0,0,0,3.19,62a6.61,6.61,0,0,0,.13,4.77c2.22-2.34,6.56-4.46,11.25-5.68a168.63,168.63,0,0,1,42.11-4.59,168.63,168.63,0,0,1,42.11,4.59c4.69,1.22,9,3.34,11.25,5.68A6.61,6.61,0,0,0,110.19,62ZM25.42,50.52a79.49,79.49,0,0,0-10.19,3l-.92.35.18-.52,2.73-7.66A80,80,0,0,1,28,41.4Zm19-6.93-.77,4.47a125.15,125.15,0,0,0-13.39,1.51L33,40l.71-.18a90.74,90.74,0,0,1,11.7-2Zm12.31,4.13s-5.91,0-8.64.13l1.79-10.39c2.18-.13,6.55-.18,6.85-.19s4.67.06,6.85.19l1.79,10.39C62.6,47.75,56.69,47.72,56.69,47.72Zm13.09.35L69,43.59l-1-5.77a90.75,90.75,0,0,1,11.7,2l.71.18,2.74,9.56A125.15,125.15,0,0,0,69.78,48.06Zm28.38,5.45a79.49,79.49,0,0,0-10.19-3L85.35,41.4a80,80,0,0,1,10.81,4.28l2.73,7.66.18.52Z"/><path class="cls-2" d="M110,72.92a11.66,11.66,0,0,0-5.71-4.27c-6.16-2.31-23.83-6.29-47.55-6.29s-41.38,4-47.55,6.29a11.66,11.66,0,0,0-5.71,4.27,4.9,4.9,0,0,0-.3,4c1.74-1.25,4.65-2.38,10.28-3.27C21.49,72.41,35.8,71,56.72,71S91.95,72.41,100,73.68c5.63.89,8.53,2,10.28,3.27A4.9,4.9,0,0,0,110,72.92Z"/><path class="cls-2" d="M56.72,85l53.56,0a3.61,3.61,0,0,0,.07-2.59,4.94,4.94,0,0,0-3.55-2.19c-8.51-1.79-24.65-3.18-50.08-3.18S15.14,78.47,6.63,80.27a5,5,0,0,0-3.55,2.19,3.61,3.61,0,0,0,.07,2.59l53.56,0"/><path class="cls-2" d="M110,72.92a11.66,11.66,0,0,0-5.71-4.27c-6.16-2.31-23.83-6.29-47.55-6.29s-41.38,4-47.55,6.29a11.66,11.66,0,0,0-5.71,4.27,4.9,4.9,0,0,0-.3,4c1.74-1.25,4.65-2.38,10.28-3.27C21.49,72.41,35.8,71,56.72,71S91.95,72.41,100,73.68c5.63.89,8.53,2,10.28,3.27A4.9,4.9,0,0,0,110,72.92Z"/></g></g></svg>