<svg xmlns="http://www.w3.org/2000/svg" viewBox="0 0 113.39 113.39"><defs><style>.cls-1{fill:none;}.cls-2{fill:#040000;}</style></defs><title>アセット 401</title><g id="レイヤー_2" data-name="レイヤー 2"><g id="waku"><rect class="cls-1" width="113.39" height="113.39"/></g><g id="編集モード"><path class="cls-2" d="M54.43,14.79c-10.76,0-17,5.46-24.88,12.36-5.48,4.79-11.69,10.23-21,15.39l2.74,5c1.59-.88,3.09-1.77,4.53-2.66A129,129,0,0,0,33.28,31.42c7.54-6.6,12.52-11,21.15-11,5.44,0,9.35,2,13.45,5.16l4.7-3.52C67.38,17.92,62.12,14.79,54.43,14.79Z"/><path class="cls-2" d="M62.36,104.88H66.8l5.15-32.54a8.5,8.5,0,0,0-8.38-10H36.85L26,51.6l3.85-2.69-2.43-3.49-7.3,5.09-.17.09-8.61,5.68v3.21h9.73l8.86,19.27L34,104.88h4.52l-.11-25.51H62.36Z"/><polygon class="cls-2" points="104.88 45.35 93.54 36.85 76.53 36.85 65.2 45.35 104.88 45.35"/><polygon class="cls-2" points="104.88 56.69 93.54 48.19 76.53 48.19 65.2 56.69 104.88 56.69"/><polygon class="cls-2" points="104.88 34.02 85.04 19.84 65.2 34.02 104.88 34.02"/></g></g></svg>