<svg xmlns="http://www.w3.org/2000/svg" viewBox="0 0 113.39 113.39"><defs><style>.cls-1{fill:none;}.cls-2{fill:#040000;}</style></defs><title>アセット 272</title><g id="レイヤー_2" data-name="レイヤー 2"><g id="waku"><rect class="cls-1" width="113.39" height="113.39"/></g><g id="編集モード"><path class="cls-2" d="M5.69,75.94a95.12,95.12,0,0,0,20.7-8.82c6.75-3.8,13.1-8.22,19.64-12.36,6.12-3.87,12.5-7.52,19.51-9.51a44.94,44.94,0,0,1,21.05-.7c8.47,1.67,16.23,5.34,24,9V22.69H48C36.22,15,23.53,8.55,5.69,13v6A42.59,42.59,0,0,1,25,18.65,46,46,0,0,1,37.61,23c4.26,2.3,8.25,5.11,12.26,7.82,2.23,1.51,4.28,3.21,6.46,4.8s4.42,3.08,6.72,4.47c-16.26,4.93-29.1,17-44.08,24.54A84.1,84.1,0,0,1,5.69,70.05Z"/><path class="cls-2" d="M102.3,77.64l-4.38-15.3a3.15,3.15,0,0,0-6-.19L87.37,75,83.75,62.34a3.17,3.17,0,0,0-2.93-2.28,3.18,3.18,0,0,0-1.75.48,3.25,3.25,0,0,0-1.32,1.61l-6,17c-.52-.67-.86-4.17-.86-8.32V61.67h-5l-3.29,2.2L56.31,68v2.83h8.88c-.11,2-.21,4-.21,6a51,51,0,0,0,.3,6.53,19.25,19.25,0,0,0,2.13,7.28A10.94,10.94,0,0,0,69.21,93v11.83h5.67V93.09H96.64v11.73h5.67Z"/></g></g></svg>