<svg xmlns="http://www.w3.org/2000/svg" viewBox="0 0 113.39 113.39"><defs><style>.cls-1{fill:none;}.cls-2{fill:#040000;}</style></defs><title>アセット 317</title><g id="レイヤー_2" data-name="レイヤー 2"><g id="waku"><rect class="cls-1" width="113.39" height="113.39"/></g><g id="編集モード"><path class="cls-2" d="M81.46,96.34l3.3-18.62h0a10.2,10.2,0,0,0,.18-1.84v-.54A10.14,10.14,0,0,0,74.79,65.2H46l-6.23-4.81L25.51,71v5.49H35.2l3.59,19.8H5.67V102h102V96.34Zm-36.11-7.6H73.7v7.6H45.35Z"/><path class="cls-2" d="M35,36.22l3.13,4.72c.24-.16,24.86-16.2,64-17.17L102,18.11a148.23,148.23,0,0,0-50.08,9.82C41.32,22.2,29,17,11.34,17v5.67A72.92,72.92,0,0,1,45.12,30.8,81.36,81.36,0,0,0,35,36.22Z"/></g></g></svg>