<svg xmlns="http://www.w3.org/2000/svg" viewBox="0 0 113.39 113.39"><defs><style>.cls-1{fill:none;}.cls-2{fill:#040000;}</style></defs><title>アセット 323</title><g id="レイヤー_2" data-name="レイヤー 2"><g id="waku"><rect class="cls-1" width="113.39" height="113.39"/></g><g id="編集モード"><polygon class="cls-2" points="56.7 5.67 56.69 5.67 56.7 5.67 56.7 5.67"/><polygon class="cls-2" points="56.71 5.67 56.7 5.67 56.7 5.67 56.71 5.67"/><path class="cls-2" d="M91.3,25c-7.1-12.12-20-19.36-34.58-19.36h0S72,26.07,72,50.45a75.21,75.21,0,0,1-6.39,29H47.76a75.22,75.22,0,0,1-6.39-29c0-24.38,15.31-44.78,15.31-44.78h0C42.12,5.67,29.2,12.91,22.1,25c-6.24,10.66-6.78,23.32-1.39,33A96.75,96.75,0,0,0,46,87h0l5,20.78H62.36l5-20.79,0,0A96.75,96.75,0,0,0,92.69,58.07C98.07,48.36,97.54,35.7,91.3,25ZM52.67,96.38l-2-8.5H62.75l-2,8.5Z"/></g></g></svg>