<svg xmlns="http://www.w3.org/2000/svg" viewBox="0 0 113.39 113.39"><defs><style>.cls-1{fill:none;}.cls-2{fill:#040000;}</style></defs><title>アセット 319</title><g id="レイヤー_2" data-name="レイヤー 2"><g id="waku"><rect class="cls-1" width="113.39" height="113.39"/></g><g id="編集モード"><path class="cls-2" d="M57.22,18.28l16,19.51a25.24,25.24,0,0,1,7.35.16L56.72,8.5,37.5,37.45a24.88,24.88,0,0,1,6.19.83Z"/><path class="cls-2" d="M105.91,49.61l-3.27-4.44c-3.5,2.89-9.43,3.18-13.49,1.4-.55-.24-1.08-.52-1.61-.81a35.12,35.12,0,0,0-5.57-3,17.89,17.89,0,0,0-6.91-1,19.06,19.06,0,0,0-6.55,1.4c-1.89.79-3.49,2.09-5.3,3l-.4.2a14.32,14.32,0,0,1-12.51-.5,38,38,0,0,0-5.85-3.08,18.89,18.89,0,0,0-7.11-1,20.1,20.1,0,0,0-6.74,1.4c-2,.81-3.68,2.17-5.61,3.1a13.81,13.81,0,0,1-13.64-1.4L8.05,49.24c6.76,5.06,16,4.43,22.79-.05l-11,16L65.2,102,102,65.2,91.79,52.92A19.29,19.29,0,0,0,105.91,49.61Z"/></g></g></svg>