<svg xmlns="http://www.w3.org/2000/svg" viewBox="0 0 113.39 113.39"><defs><style>.cls-1{fill:none;}.cls-2{fill:#040000;}</style></defs><title>アセット 325</title><g id="レイヤー_2" data-name="レイヤー 2"><g id="waku"><rect class="cls-1" width="113.39" height="113.39"/></g><g id="編集モード"><path class="cls-2" d="M61.27,76.7l.4.15v0c-3.46-1.25-6.92-2.33-10.26-3.29C54.73,74.51,58.05,75.57,61.27,76.7Z"/><path class="cls-2" d="M41,67.71l4,1.1c1.74.47,3.56,1,5.43,1.49l1.46-6.82,9.92,1.84-.11,8.48a94.15,94.15,0,0,1,11.67,4.94l3.46-18.46h0a7.54,7.54,0,0,0-.15-3.22L71,35.92s4.81-2.44,10.76-9a54.26,54.26,0,0,0,9.83-16.17L86.81,8.5S82.53,15,77.86,18.77a46.12,46.12,0,0,1-11,6.55c-4.32,1.78-10.17,2.91-15.12,5a36.32,36.32,0,0,0-9,5.66c-2.89,2.5-7,6.56-10.21,16.26l5.14,2.09c5-8.71,10.61-12.3,18.88-14l3,11.21-11.41.05h-1A4.91,4.91,0,0,0,42.22,56L40.94,67.69h0Z"/><path class="cls-2" d="M95.31,100.82c-2.34-3.46-9.1-12-22.5-19.1v-.07A87.93,87.93,0,0,0,61.67,76.8v0l-.4-.15c-3.22-1.13-6.53-2.18-9.86-3.18-4-1.14-7.77-2.13-11.13-3.06-9.9-2.45-19-4-24.91-3.95-.46,0-.91,0-1.34,0a2.83,2.83,0,0,0-2.53,1.9L9,75.54A2.83,2.83,0,0,0,9.8,78.6C16.95,84.93,35.62,94,53.05,100.15c21.2,7.43,36.5,4.27,41.49,2.82A1.41,1.41,0,0,0,95.31,100.82Z"/><circle class="cls-2" cx="56.69" cy="16.19" r="7.79" transform="translate(-1.14 4.71) rotate(-4.71)"/></g></g></svg>