<svg xmlns="http://www.w3.org/2000/svg" viewBox="0 0 113.39 113.39"><defs><style>.cls-1{fill:none;}.cls-2{fill:#040000;}</style></defs><title>アセット 313</title><g id="レイヤー_2" data-name="レイヤー 2"><g id="waku"><rect class="cls-1" width="113.39" height="113.39"/></g><g id="編集モード"><path class="cls-2" d="M48.18,91.58l-.05-57.51c-.2-6.1-1.71-11.69-4.36-15.8s-6.63-6.88-11.56-6.9H23a19.42,19.42,0,0,1,6.28,6.19c3,4.64,4.65,11,4.65,17.94,0,5.83,0,53,0,53C41.08,88.29,44.82,89.82,48.18,91.58Z"/><path class="cls-2" d="M56.78,94.86a11.55,11.55,0,0,1-5.05-1.1V93.4c0-16.53,0-51.06,0-57.91,0-11.16-3.5-19.67-9.88-24.13h7.73c5,.13,8.87,3,11.54,7.36A32,32,0,0,1,65.13,34s.06,56.51.06,57.66C62.44,93.37,61.08,94.86,56.78,94.86Z"/><path class="cls-2" d="M82.11,33.28c.09-10.61-6.36-21.92-15.91-21.92H58.82c6.38,4.46,9.88,13,9.88,24.13,0,6.5,0,37.16,0,54.58a26.32,26.32,0,0,1,8.8-1.49,27.49,27.49,0,0,1,3.24.21c.48.06,1,.12,1.43.21C82.2,89,82,43.89,82.11,33.28Z"/><path class="cls-2" d="M107.35,96.65a14.54,14.54,0,0,1-8.72,2.6c-9.63,0-9.13-6.42-21.1-6.42A21.6,21.6,0,0,0,65.3,96.58a13.93,13.93,0,0,1-8.62,2.67,13.93,13.93,0,0,1-8.62-2.67,21.6,21.6,0,0,0-12.23-3.75c-12,0-11.47,6.42-21.1,6.42A14.54,14.54,0,0,1,6,96.65l-3.26,4.71a19.81,19.81,0,0,0,12,3.5c12,0,11.43-6.28,21.08-6.28,9.48,0,9.43,6.28,20.84,6.28S68,98.59,77.53,98.59c9.65,0,9.07,6.28,21.08,6.28a19.81,19.81,0,0,0,12-3.5Z"/></g></g></svg>