<svg xmlns="http://www.w3.org/2000/svg" viewBox="0 0 113.39 113.39"><defs><style>.cls-1{fill:none;}.cls-2{fill:#040000;}</style></defs><title>アセット 310</title><g id="レイヤー_2" data-name="レイヤー 2"><g id="waku"><rect class="cls-1" width="113.39" height="113.39"/></g><g id="編集モード"><path class="cls-2" d="M104.87,87.87V8.5H8.49v51H17V79.37H8.49v8.5H17v17h8.5v-17H45.35v17H59.53v-17H79.37v17h8.5v-17Zm-59.52-8.5H25.51V59.53H45.35ZM32.21,43.74A13.13,13.13,0,0,1,19.84,35,12,12,0,0,0,36.6,18.23a13.13,13.13,0,0,1-4.39,25.51ZM68,68h-8.5v-8.5H68Zm0-17h-8.5v-8.5H68ZM79.37,25.51h8.5V34h-8.5Zm0,17h8.5V51h-8.5Zm0,17h8.5V68h-8.5Z"/></g></g></svg>