<svg xmlns="http://www.w3.org/2000/svg" viewBox="0 0 113.39 113.39"><defs><style>.cls-1{fill:none;}.cls-2{fill:#040000;}</style></defs><title>アセット 293</title><g id="レイヤー_2" data-name="レイヤー 2"><g id="waku"><rect class="cls-1" width="113.39" height="113.39"/></g><g id="編集モード"><path class="cls-2" d="M99.21,21.68A10.77,10.77,0,0,0,88.44,10.91H24.94A10.77,10.77,0,0,0,14.17,21.68v69h5.67V102H32.6V90.71H80.79V102H93.54V90.71h5.67ZM34,18.43H79.37v8.5H34ZM23.08,36.71A2.69,2.69,0,0,1,25.77,34H87.71a2.69,2.69,0,0,1,2.69,2.69V65.32A2.69,2.69,0,0,1,87.71,68H25.77a2.69,2.69,0,0,1-2.69-2.69ZM28.35,85a5.39,5.39,0,1,1,5.39-5.39A5.39,5.39,0,0,1,28.35,85ZM85,74.2a5.39,5.39,0,1,1-5.39,5.39A5.39,5.39,0,0,1,85,74.2Z"/></g></g></svg>