<svg xmlns="http://www.w3.org/2000/svg" viewBox="0 0 113.39 113.39"><defs><style>.cls-1{fill:none;}.cls-2{fill:#040000;}</style></defs><title>アセット 302</title><g id="レイヤー_2" data-name="レイヤー 2"><g id="waku"><rect class="cls-1" width="113.39" height="113.39"/></g><g id="編集モード"><path class="cls-2" d="M105,73.62V62.3L64.31,37.86c0-3.26.06-6.88.06-11,0-6.72-1.86-12.72-3.84-15.9C58.39,7.53,55,7.55,52.91,11c-2,3.2-3.86,9.2-3.86,15.85,0,4.15,0,7.77.06,11L8.41,62.3V73.62L50,59.74c.53,6.89,1.32,14,2.45,25.29l-9.9,9.46v4.72l14.05-2.83,14.29,2.83V94.49L60.95,85c1.16-11.27,2-18.4,2.49-25.3Z"/></g></g></svg>