<svg xmlns="http://www.w3.org/2000/svg" viewBox="0 0 113.39 113.39"><defs><style>.cls-1{fill:none;}.cls-2{fill:#040000;}</style></defs><title>アセット 291</title><g id="レイヤー_2" data-name="レイヤー 2"><g id="waku"><rect class="cls-1" width="113.39" height="113.39"/></g><g id="編集モード"><path class="cls-2" d="M84.41,92.35A11.33,11.33,0,0,0,90.71,82.2V25.51A11.34,11.34,0,0,0,79.37,14.17H34A11.34,11.34,0,0,0,22.68,25.51V82.2A11.33,11.33,0,0,0,29,92.35L22.68,102H33l5.47-8.5H74.92l5.47,8.5H90.71ZM36.85,22.68H76.54v5.67H36.85ZM79.37,36.85a2.83,2.83,0,0,1,2.83,2.83V59.53a2.83,2.83,0,0,1-2.83,2.83H34a2.83,2.83,0,0,1-2.83-2.83V39.68A2.83,2.83,0,0,1,34,36.85ZM36.85,82.2a5.66,5.66,0,1,1,5.67-5.67A5.68,5.68,0,0,1,36.85,82.2ZM61,83.11l-4.27-2.25-4.28,2.24.82-4.76-2.59-2.53L49.78,75l1.6-.23,3.18-.46L56.7,70l2.13,4.33,3.16.46,1.62.24-.87.85-2.59,2.52Zm9.9-6.58a5.67,5.67,0,1,1,6.52,5.6,5.63,5.63,0,0,1-6.52-5.6Z"/></g></g></svg>