<svg xmlns="http://www.w3.org/2000/svg" viewBox="0 0 113.39 113.39"><defs><style>.cls-1{fill:none;}.cls-2{fill:#040000;}</style></defs><title>アセット 295</title><g id="レイヤー_2" data-name="レイヤー 2"><g id="waku"><rect class="cls-1" width="113.39" height="113.39"/></g><g id="編集モード"><path class="cls-2" d="M79.4,14.17H34A11.34,11.34,0,0,0,22.7,25.51V82.2h0c0,17,19.84,25.53,19.84,25.53h5.68V90.14a8.51,8.51,0,0,1,17,.58v2.82h0v14.19h5.65s19.78-8.5,19.84-25.46c0,0,0,0,0-.07h0V25.51A11.34,11.34,0,0,0,79.4,14.17Zm-8.5,62.36a5.67,5.67,0,1,1,5.67,5.67A5.67,5.67,0,0,1,70.89,76.53Zm-34-53.86H76.56v5.67H36.88Zm0,59.53a5.67,5.67,0,1,1,5.67-5.67A5.67,5.67,0,0,1,36.88,82.2ZM34,62.36a2.83,2.83,0,0,1-2.83-2.83V39.68A2.83,2.83,0,0,1,34,36.85H79.4a2.83,2.83,0,0,1,2.83,2.83V59.53a2.83,2.83,0,0,1-2.83,2.83Z"/></g></g></svg>