<svg xmlns="http://www.w3.org/2000/svg" viewBox="0 0 113.39 113.39"><defs><style>.cls-1{fill:none;}.cls-2{fill:#040000;}</style></defs><title>アセット 297</title><g id="レイヤー_2" data-name="レイヤー 2"><g id="waku"><rect class="cls-1" width="113.39" height="113.39"/></g><g id="編集モード"><path class="cls-2" d="M73.72,48.19H45.37a25.51,25.51,0,0,0,0,51H73.71a25.51,25.51,0,0,0,0-51ZM45.19,73.74h-17a17,17,0,0,1,17-17ZM68.05,62V73.7H51V56.84H68.05Zm5.67,11.71v-17a17,17,0,0,1,17,17Z"/><path class="cls-2" d="M63.87,19.85a11.61,11.61,0,0,0-7.17,10.29V43.9h5.67V30.14a6,6,0,0,1,3.46-5l36.24-13.35h0v-6Z"/><polygon class="cls-2" points="53.86 23.54 11.35 39.2 11.35 45.24 53.86 29.58 53.86 23.54"/></g></g></svg>