<svg xmlns="http://www.w3.org/2000/svg" viewBox="0 0 113.39 113.39"><defs><style>.cls-1{fill:none;}.cls-2{fill:#040000;}</style></defs><title>アセット 294</title><g id="レイヤー_2" data-name="レイヤー 2"><g id="waku"><rect class="cls-1" width="113.39" height="113.39"/></g><g id="編集モード"><polygon class="cls-2" points="13.31 13.17 19.71 13.17 19.71 31.15 25.18 31.15 25.18 13.17 31.57 13.17 31.57 8.5 13.31 8.5 13.31 13.17"/><path class="cls-2" d="M48.55,8.5H43.24l-9.5,22.65h5.95l1.12-3h9.85l1.21,3H58ZM42.38,23.78l3.42-9.24,3.36,9.24Z"/><polygon class="cls-2" points="83.67 8.5 77.31 8.5 73.15 15.54 68.93 8.5 62.34 8.5 69.63 19.19 61.7 31.15 68.23 31.15 72.99 23.15 77.95 31.15 84.7 31.15 76.51 19.19 83.67 8.5"/><rect class="cls-2" x="93.63" y="8.5" width="5.5" height="22.65"/><path class="cls-2" d="M90.23,59.78,85.46,47a11.39,11.39,0,0,0-10.62-7.36H38.44A11.39,11.39,0,0,0,27.82,47L23,59.81a11.34,11.34,0,0,0-8.86,11.06V93.54h5.67v11.34H31.18V93.54h51v11.34H93.54V93.54h5.67V70.87A11.34,11.34,0,0,0,90.23,59.78Zm-58.86-.25,3.91-10.48a5.67,5.67,0,0,1,5.31-3.69h32.2a5.67,5.67,0,0,1,5.31,3.69L82,59.53ZM31.18,82.2a5.67,5.67,0,1,1,5.67-5.67A5.67,5.67,0,0,1,31.18,82.2Zm45.35-5.67A5.67,5.67,0,1,1,82.2,82.2,5.67,5.67,0,0,1,76.54,76.54Z"/></g></g></svg>