<svg xmlns="http://www.w3.org/2000/svg" viewBox="0 0 113.39 113.39"><defs><style>.cls-1{fill:none;}.cls-2{fill:#040000;}</style></defs><title>アセット 299</title><g id="レイヤー_2" data-name="レイヤー 2"><g id="waku"><rect class="cls-1" width="113.39" height="113.39"/></g><g id="編集モード"><path class="cls-2" d="M51.06,45.4h-8.5a5.69,5.69,0,0,0-5.67,5.67v8.5H56.73v-8.5A5.69,5.69,0,0,0,51.06,45.4Z"/><path class="cls-2" d="M79.41,45.4H70.9a5.69,5.69,0,0,0-5.67,5.67v8.5H85.07v-8.5A5.69,5.69,0,0,0,79.41,45.4Z"/><path class="cls-2" d="M93.58,51.07v8.5h11.33V45.4H99.25A5.69,5.69,0,0,0,93.58,51.07Z"/><path class="cls-2" d="M18.78,84.45a9.83,9.83,0,0,0,10.69,0,15.56,15.56,0,0,1,17.66,0h0a9.83,9.83,0,0,0,10.69,0,15.56,15.56,0,0,1,17.66,0h0a9.83,9.83,0,0,0,10.69,0,15.56,15.56,0,0,1,17.66,0h0a7.09,7.09,0,0,0,1.1.65v-.45h0V65.25H2.87L17.68,83.73a12.8,12.8,0,0,1,1.1.72Z"/><polygon class="cls-2" points="32.6 38.46 104.91 38.46 104.91 32.79 28.77 32.79 17.96 59.58 24.08 59.58 32.6 38.46"/></g></g></svg>