<svg xmlns="http://www.w3.org/2000/svg" viewBox="0 0 113.39 113.39"><defs><style>.cls-1{fill:none;}.cls-2{fill:#040000;}</style></defs><title>アセット 352</title><g id="レイヤー_2" data-name="レイヤー 2"><g id="waku"><rect class="cls-1" width="113.39" height="113.39"/></g><g id="編集モード"><path class="cls-2" d="M36.14,77.93a6.38,6.38,0,1,0,.1,12.76,6.46,6.46,0,0,0,6.28-6.29A6.38,6.38,0,0,0,36.14,77.93Z"/><polygon class="cls-2" points="41.81 26.93 37.56 26.93 37.56 49.13 21.97 49.13 21.97 44.65 32.6 44.65 32.6 40.39 21.97 40.39 21.97 36.14 32.6 36.14 32.6 31.89 21.97 31.89 21.97 26.93 17.72 26.93 17.72 53.38 41.81 53.38 41.81 26.93"/><rect class="cls-2" x="25.51" y="95.05" width="45.35" height="5.67"/><path class="cls-2" d="M100.2,59.68v-.06h0a7.9,7.9,0,0,0-1.68-4.55L82.25,34.35a7.94,7.94,0,0,0-14.17,4.47h0A40.75,40.75,0,0,1,67,46.73a24.7,24.7,0,0,1-5.51,11.14A42.43,42.43,0,0,1,52,65.57l2.24,5.1c2-.65,4.34-1.75,4.83-2a48.57,48.57,0,0,0,4.6-2.46,32.67,32.67,0,0,0,8.45-7.15,53.06,53.06,0,0,0,4.37-6.32L84.8,63.33l1.71,18.33,2.18,23.13,7.25,0,2.11-23.1L100,61.83A8,8,0,0,0,100.2,59.68Z"/><circle class="cls-2" cx="62.9" cy="22.6" r="8.5" transform="matrix(0.79, -0.62, 0.62, 0.79, -0.57, 43.55)"/><path class="cls-2" d="M32.6,12.64V8.5H26.93v4.14c-5.68,1.11-9.92,5.45-9.92,10H42.52C42.52,18.09,38.28,13.76,32.6,12.64Z"/><path class="cls-2" d="M69.8,72a16.79,16.79,0,0,0-7.19,4.35,15.93,15.93,0,0,0-2.27,3H51V72.29H45.37V82.59a.36.36,0,0,0,0,0h0V85s0,0,0,0A5.67,5.67,0,0,0,51,90.68h0l12.11,0a5.19,5.19,0,0,0,4.95-5V80.93l.05-.1a10.29,10.29,0,0,1,3.84-3.58Z"/></g></g></svg>