<svg xmlns="http://www.w3.org/2000/svg" viewBox="0 0 113.54 113.54"><defs><style>.cls-1{fill:none;}.cls-2{fill:#040000;}</style></defs><title>アセット 383</title><g id="レイヤー_2" data-name="レイヤー 2"><g id="waku"><rect class="cls-1" width="113.54" height="113.54"/></g><g id="編集モード"><path class="cls-2" d="M35,29.76a6.7,6.7,0,0,0-5.6,3c-1.43,2.05-2.78,4.15-4.31,6.13A40.84,40.84,0,0,1,11.34,51l1.87,4.24a34.2,34.2,0,0,0,7.51-2.34,36.63,36.63,0,0,0,7.63-4.24V68H33V95h7V68h2.32V95h7V68h4.65V36.72h0a7,7,0,0,0-7-7H35Z"/><polygon class="cls-2" points="96.38 99.21 17.01 99.21 17.01 59.56 11.34 59.56 11.34 104.88 102.05 104.88 102.05 59.49 96.38 59.49 96.38 99.21"/><circle class="cls-2" cx="41" cy="19.77" r="7.09"/></g></g></svg>