<svg xmlns="http://www.w3.org/2000/svg" viewBox="0 0 113.39 113.39"><defs><style>.cls-1{fill:none;}.cls-2{fill:#040000;}</style></defs><title>アセット 335</title><g id="レイヤー_2" data-name="レイヤー 2"><g id="waku"><rect class="cls-1" width="113.39" height="113.39"/></g><g id="編集モード"><polygon class="cls-2" points="29.56 37.6 18.43 26.29 14.48 30.3 23.99 39.95 23.99 92.1 29.56 92.1 29.56 37.6"/><rect class="cls-2" x="8.54" y="96.35" width="94.81" height="5.67"/><path class="cls-2" d="M93.11,46.82a27.13,27.13,0,0,0-2.33-4,29.72,29.72,0,0,0-2.89-3.51,25.53,25.53,0,0,0-7.63-5.49,32,32,0,0,0-9-2.64,35.06,35.06,0,0,0-5.45-.36c-3,0-6.09.32-8.06,3l-7.24,9.82L38.12,40l-1.74,4.37L50.54,52a3.3,3.3,0,0,0,3.73-.42l.61-.53,3.32-2.89L60,58.45,50.34,69.82l-.58.69a3.74,3.74,0,0,0-.86,2.76l1.75,19h5.89l1.52-16.53,7.23-5.82a53.75,53.75,0,0,0,4.38,5.66A38.85,38.85,0,0,0,78,82.79a50.57,50.57,0,0,0,14.22,6.34s1.11-3.06,2-5.54a47.5,47.5,0,0,1-13.83-11c-4.07-4.65-5.81-8.25-7.12-15L70.36,40.92a20.83,20.83,0,0,1,12.72,2.78,22.92,22.92,0,0,1,6,5.41Z"/><ellipse class="cls-2" cx="60.05" cy="20.83" rx="6.97" ry="7.09"/><ellipse class="cls-2" cx="60.05" cy="20.83" rx="6.97" ry="7.09"/></g></g></svg>