<svg xmlns="http://www.w3.org/2000/svg" viewBox="0 0 113.39 113.39"><defs><style>.cls-1{fill:none;}.cls-2{fill:#040000;}</style></defs><title>アセット 385</title><g id="レイヤー_2" data-name="レイヤー 2"><g id="waku"><rect class="cls-1" width="113.39" height="113.39"/></g><g id="編集モード"><polygon class="cls-2" points="83.35 86.45 111.82 51.65 98.47 18.26 80.36 24.29 59.33 3.25 39.77 26.73 14.32 18 4.68 69.41 43.02 101.68 57.57 83.94 50.64 81.22 42.09 91.64 12.4 66.65 19.77 27.36 34.91 32.55 26.14 43.09 31.58 47.62 59.8 13.75 78.45 32.4 94.37 27.1 103.68 50.4 81.14 77.96 50.35 65.88 57.22 45.92 73.14 51.3 75.41 44.58 52.81 36.95 41.45 69.99 83.35 86.45"/></g></g></svg>