<svg xmlns="http://www.w3.org/2000/svg" viewBox="0 0 113.39 113.39"><defs><style>.cls-1{fill:none;}.cls-2{fill:#040000;}</style></defs><title>アセット 326</title><g id="レイヤー_2" data-name="レイヤー 2"><g id="waku"><rect class="cls-1" width="113.39" height="113.39"/></g><g id="編集モード"><path class="cls-2" d="M49.42,107.73H85V62.83c0-.21,0,.13,0-.59,0-.14,0-.27,0-.41a13.56,13.56,0,0,0-4-9.59Z"/><path class="cls-2" d="M35.76,48.24l8.65-10.42-6.12-6.24L14.77,50.35a7,7,0,0,0,3,12.41l1.48.3,20.43,4.19v40.42l34-59.45Z"/><path class="cls-2" d="M49.28,24.35A13.61,13.61,0,0,0,75.38,32h0L80.68,14,45.14,8.67l3.77,8.8-7.26,6.88Z"/></g></g></svg>