<svg xmlns="http://www.w3.org/2000/svg" viewBox="0 0 113.39 113.39"><defs><style>.cls-1{fill:none;}.cls-2{fill:#040000;}</style></defs><title>アセット 358</title><g id="レイヤー_2" data-name="レイヤー 2"><g id="waku"><rect class="cls-1" width="113.39" height="113.39"/></g><g id="編集モード"><path class="cls-2" d="M43.91,91.24h0Z"/><path class="cls-2" d="M75.16,5.67a14.17,14.17,0,0,0-13,8.5H29.8l-5.67,5.67,5.67,5.67h7l4.25-5.67,4.25,5.67h2.83l4.25-5.67,4.25,5.67h5.47a14.17,14.17,0,1,0,13-19.84Zm4.92,17.72a3.54,3.54,0,1,1,3.54-3.54A3.55,3.55,0,0,1,80.08,23.39Z"/><path class="cls-2" d="M14.21,39.68v65.2h85V39.68Zm65.41,51H33.84V62.34H46.26V52.45H67.52v9.89h12.1Z"/><rect class="cls-2" x="50.52" y="56.7" width="12.76" height="5.64"/><path class="cls-2" d="M43.91,91.24h0Z"/></g></g></svg>