<svg xmlns="http://www.w3.org/2000/svg" viewBox="0 0 113.39 113.39"><defs><style>.cls-1{fill:none;}.cls-2{fill:#040000;}</style></defs><title>アセット 359</title><g id="レイヤー_2" data-name="レイヤー 2"><g id="waku"><rect class="cls-1" width="113.39" height="113.39"/></g><g id="編集モード"><path class="cls-2" d="M59.7,34.37V29.69A10.8,10.8,0,1,0,46.07,19.27h5.67a5.13,5.13,0,1,1,5.13,5.13H54v10A89.89,89.89,0,0,0,13.82,45.7l2.71,5A83.75,83.75,0,0,1,56.87,40,83.68,83.68,0,0,1,97,50.54l2.7-5A89.81,89.81,0,0,0,59.7,34.37Z"/><path class="cls-2" d="M70.94,50.48H42.59V61.82H27.12V99.21H86.36V61.82H70.94ZM48.26,56.15h17v5.67h-17Z"/></g></g></svg>