<svg xmlns="http://www.w3.org/2000/svg" viewBox="0 0 113.39 113.39"><defs><style>.cls-1{fill:none;}.cls-2{fill:#040000;}</style></defs><title>アセット 403</title><g id="レイヤー_2" data-name="レイヤー 2"><g id="waku"><rect class="cls-1" width="113.39" height="113.39"/></g><g id="編集モード"><path class="cls-2" d="M95.19,82.17V29.07a9.21,9.21,0,0,0-12.76-8.5v-3a9.2,9.2,0,0,0-15.59-6.63,9.2,9.2,0,0,0-15.58,6.5,9.2,9.2,0,0,0-12.75,8.19l5.65,5.64V25.93a3.54,3.54,0,1,1,7.09,0V38.32L56.92,44V17.56a3.54,3.54,0,0,1,7.09,0V51h5.67V17.56h0a3.54,3.54,0,1,1,7.09,0V51h5.67v-22a3.54,3.54,0,0,1,7.09,0V76.48Z"/><path class="cls-2" d="M44,50.77l54.86,54.7,5.82-5.84,0,0L14.34,9.53,8.52,15.36l30,29.89V62.16L34,57.74a9.07,9.07,0,0,0-12.63-.12,9,9,0,0,0-.12,12.87L43.88,93.08l4-4L25.3,66.48a3.35,3.35,0,0,1,0-4.78,3.37,3.37,0,0,1,4.7,0l14,13.9Z"/></g></g></svg>