<svg xmlns="http://www.w3.org/2000/svg" viewBox="0 0 113.38 113.39"><defs><style>.cls-1{fill:none;}.cls-2{fill:#040000;}</style></defs><title>アセット 374</title><g id="レイヤー_2" data-name="レイヤー 2"><g id="waku"><rect class="cls-1" width="113.38" height="113.39"/></g><g id="編集モード"><circle class="cls-2" cx="68.05" cy="13.12" r="8.61" transform="translate(42.99 77.74) rotate(-79.72)"/><path class="cls-2" d="M75.89,57.78h0V33.69A7.83,7.83,0,0,0,68,25.87a8,8,0,0,0-6.93,4.2c-3.17,5.83-6.24,15.36-17,21.47l3.34,5.78c3.66-1.23,9.89-4.48,12.81-7.13V58a108.86,108.86,0,0,0-13.73,42.16L53.38,102C57,91.67,62.32,80,66.06,75.45,68.89,83.1,75,93.52,82.91,103l6-3.82C78.93,80.84,75.89,57.78,75.89,57.78Z"/><polygon class="cls-2" points="16.2 99.18 21.15 101.93 44.25 60.36 40.95 54.64 16.2 99.18"/></g></g></svg>