<svg xmlns="http://www.w3.org/2000/svg" viewBox="0 0 113.38 113.39"><defs><style>.cls-1{fill:none;}.cls-2{fill:#040000;}</style></defs><title>アセット 380</title><g id="レイヤー_2" data-name="レイヤー 2"><g id="waku"><rect class="cls-1" width="113.38" height="113.39"/></g><g id="編集モード"><path class="cls-2" d="M32.28,47V45L28,41c.51-4.94.85-7.88,1.08-10.76l17.67,5.9V31.32L29.49,20.93c0-1.21,0-2.54,0-4.05a16.64,16.64,0,0,0-1.64-7.41C27,8,25.54,8,24.63,9.49A16.66,16.66,0,0,0,23,16.88c0,1.51,0,2.85,0,4.06L5.7,31.32v4.82l17.67-5.9c.23,2.87.57,5.81,1.06,10.76l-4.21,4v2Z"/><path class="cls-2" d="M93.23,47V45L89,41c.51-4.94.85-7.88,1.08-10.76l17.67,5.9V31.32L90.44,20.93c0-1.21,0-2.54,0-4.05a16.64,16.64,0,0,0-1.64-7.41C87.92,8,86.49,8,85.59,9.49a16.66,16.66,0,0,0-1.64,7.39c0,1.51,0,2.85,0,4.06L66.65,31.32v4.82l17.67-5.9c.23,2.87.57,5.81,1.06,10.76l-4.21,4v2Z"/><circle class="cls-2" cx="56.77" cy="38.97" r="6.39" transform="translate(8.02 87.61) rotate(-79.4)"/><path class="cls-2" d="M56.3,48.47a16,16,0,0,0-9.1,2.59,22.71,22.71,0,0,0-8.34,8.15A28.37,28.37,0,0,0,36,67.08L40,68.66A16.52,16.52,0,0,1,44,62a14.5,14.5,0,0,1,6.88-3.79L50.8,73s0-4.94,0,.05c-3.43,10.08-8.43,20.08-14.06,26.67l3.49,3.94c9.61-7.27,15-14.62,17.91-20.48,4.6,6.27,6.41,11,6.93,20.92l5.21.77c2.49-12.75-.56-23.71-7.94-33.57l0-6.16a37.8,37.8,0,0,0,8.75,4.74A52.14,52.14,0,0,0,78.36,72l1-3.93a40.17,40.17,0,0,1-10.42-6.58,22.77,22.77,0,0,1-5.85-7.67C61.5,50.36,59.58,48.47,56.3,48.47Z"/><rect class="cls-2" x="25.23" y="64.32" width="14.17" height="24.09" transform="translate(-50.59 77.94) rotate(-68.16)"/></g></g></svg>