<svg xmlns="http://www.w3.org/2000/svg" viewBox="0 0 113.39 113.39"><defs><style>.cls-1{fill:none;}.cls-2{fill:#040000;}</style></defs><title>アセット 406</title><g id="レイヤー_2" data-name="レイヤー 2"><g id="waku"><rect class="cls-1" width="113.39" height="113.39"/></g><g id="編集モード"><path class="cls-2" d="M69.78,50.84A6.71,6.71,0,0,0,71.84,49h0l0-.07a6.85,6.85,0,0,0,.67-1.12L82.07,32,92.36,15l-5-3.7L74.12,26.1l-12,13.44-7,4,10,10Z"/><circle class="cls-2" cx="28.11" cy="51.15" r="7.65" transform="translate(-30.08 55.68) rotate(-65.65)"/><path class="cls-2" d="M17.09,9.53l-5.82,5.84L45.21,49.21l-1.77,1A6.77,6.77,0,0,0,41,52.56h0L22.51,80.27l3.66,3.06L50.65,61.77l4.55-2.6L80.64,84.53a20.37,20.37,0,0,0-11.95,3.66c-4.77,3.52-12.85,3.49-17.64-.07-6.68-5-17.53-5-24.19-.08C22.08,91.55,14,91.51,9.22,88L5.93,92.37c6.68,5,17.53,5,24.19.09C34.9,88.94,43,89,47.76,92.53c6.67,5,17.52,5,24.19.09,4.17-3.07,10.87-3.44,15.69-1.1l14,14,5.82-5.84Z"/></g></g></svg>