<svg xmlns="http://www.w3.org/2000/svg" viewBox="0 0 113.39 113.39"><defs><style>.cls-1{fill:none;}.cls-2{fill:#040000;}</style></defs><title>アセット 353</title><g id="レイヤー_2" data-name="レイヤー 2"><g id="waku"><rect class="cls-1" width="113.39" height="113.39"/></g><g id="編集モード"><path class="cls-2" d="M51,10.15A8.65,8.65,0,0,1,57.56,8.3c3.28.31,6,2.54,6.36,5.18.28,2.2-.29,3.59-1.92,4.64-5.6,3.61-8.06,6-8.06,13.58h5.47c0-5.25,1.06-6.13,5.57-9,2.37-1.53,5.05-4.48,4.36-9.86-.67-5.17-5.41-9.33-11.27-9.88A14,14,0,0,0,47.35,6.14a10,10,0,0,0-3.42,7.5H49.4A4.66,4.66,0,0,1,51,10.15Z"/><ellipse class="cls-2" cx="56.72" cy="38.91" rx="3.65" ry="3.61"/><rect class="cls-2" x="8.53" y="53.86" width="14.13" height="5.67"/><path class="cls-2" d="M99.21,53.22H85V42.52L25.49,53.86v5.67L85,70.87v-12H99.21a3.47,3.47,0,0,1,0,6.94H95V71.5h4.25a9.14,9.14,0,1,0,0-18.28Z"/><rect class="cls-2" x="50.28" y="80.56" width="12.78" height="0.06"/><path class="cls-2" d="M67.31,80.56V72.09H46v8.47H35.45v27.16H77.94V80.56Zm-17-4.22H63.06v4.28H50.28V76.34Z"/></g></g></svg>