<svg xmlns="http://www.w3.org/2000/svg" viewBox="0 0 113.39 113.39"><defs><style>.cls-1{fill:none;}.cls-2{fill:#040000;}</style></defs><title>アセット 422</title><g id="レイヤー_2" data-name="レイヤー 2"><g id="waku"><rect class="cls-1" width="113.39" height="113.39"/></g><g id="編集モード"><path class="cls-2" d="M88.53,34C87,22.24,87.9,17.91,93.45,5.67H65.29C70.84,17.91,71.71,22.24,70.21,34c-1.28,10.05-6.48,18.17-10.65,26.93H75.12V86.46H90.21a16.34,16.34,0,0,1-.92,5.5,19.07,19.07,0,0,1-5.8,8.44,35.82,35.82,0,0,1-6.12,4.49H93.94c6.92-4.15,10.79-11.82,10.79-22.68C104.73,63,90.74,51.43,88.53,34Z"/><path class="cls-2" d="M19.84,65.2V86.46h5.67V70.87H42.73v0c7.63,0,6.46,11.14,11.33,12.56a3.84,3.84,0,0,0,1.09.15c5.56,0,3.94-8.63,10.05-10.32V86.46h5.67V65.2Z"/><path class="cls-2" d="M28.4,104.88c-13.3,0-22.73-11-22.73-14.17H85c0,3.15-9.43,14.17-22.73,14.17Z"/></g></g></svg>