<svg xmlns="http://www.w3.org/2000/svg" viewBox="0 0 113.39 113.39"><defs><style>.cls-1{fill:none;}.cls-2{fill:#040000;}</style></defs><title>アセット 363</title><g id="レイヤー_2" data-name="レイヤー 2"><g id="waku"><rect class="cls-1" width="113.39" height="113.39"/></g><g id="編集モード"><path class="cls-2" d="M41.62,97.62c-2-3.21-7.18-5.5-13.24-5.5-7.83,0-14.17,3.81-14.17,8.5s6.35,8.5,14.17,8.5c6.06,0,11.22-2.29,13.24-5.5l54.79,1.25v-8.5Z"/><path class="cls-2" d="M56.73,5.67A42.52,42.52,0,1,0,99.24,48.19,42.57,42.57,0,0,0,56.73,5.67ZM26.3,50.83a8.5,8.5,0,0,1,0-12h0l6,6ZM48.14,64.21h-8.5v-8.5a8.5,8.5,0,0,1,8.5,8.5ZM53.2,77.76h0l6-6,6,6A8.5,8.5,0,0,1,53.2,77.76ZM76.38,64.9c-3-.12-5.16-.21-7.63-2.68s-2.56-4.64-2.68-7.63c-.13-3.28-.3-7.37-4.34-11.41S53.6,39,50.32,38.84c-3-.12-5.15-.21-7.63-2.68S40.13,31.53,40,28.53c-.13-3.15-.29-7-3.86-10.9A36.83,36.83,0,0,1,87.29,68.76C83.41,65.19,79.53,65,76.38,64.9Z"/></g></g></svg>