<svg xmlns="http://www.w3.org/2000/svg" viewBox="0 0 113.39 113.39"><defs><style>.cls-1{fill:none;}.cls-2{fill:#040000;}</style></defs><title>アセット 376</title><g id="レイヤー_2" data-name="レイヤー 2"><g id="waku"><rect class="cls-1" width="113.39" height="113.39"/></g><g id="編集モード"><rect class="cls-2" x="87.85" y="49.95" width="5.71" height="7.09" transform="translate(-11.26 79.81) rotate(-45)"/><rect class="cls-2" x="75.32" y="62.48" width="5.71" height="7.09" transform="translate(-23.79 74.61) rotate(-45)"/><polygon class="cls-2" points="45.71 65.62 50.65 70.56 50.66 70.56 54.69 66.53 49.75 61.58 45.71 65.62"/><path class="cls-2" d="M107,55.93a19.24,19.24,0,0,0-4.77-12.41,19.15,19.15,0,0,0-10.84-6.86,19.43,19.43,0,0,0-10-8.17,19.25,19.25,0,0,0-12.56-.79,19.57,19.57,0,0,0-12.09-3.82c-4.91,0-9.93,1.52-13,3.83-2.76-.89-6.73-1.18-12,.86a18.09,18.09,0,0,0-9.5,7.8l-.33.33a19.23,19.23,0,0,0-10.65,6.81A19.24,19.24,0,0,0,6.42,55.93c-2.51,3.14-3.82,7.78-3.55,12.71.37,6.59,3.34,11.19,5.93,13.25A14.23,14.23,0,0,0,18,85.24H95.42a14.18,14.18,0,0,0,9.1-3.3c2.65-2.11,5.62-6.71,6-13.3C110.79,63.71,109.48,59.07,107,55.93Zm-73.23-22a15.09,15.09,0,0,1,5.45-1.15h.2L30.15,42l-2.93-2.93A12.64,12.64,0,0,1,33.74,33.89ZM18,79.53a8.58,8.58,0,0,1-5.55-2.06C10.81,76.2,8.83,73,8.57,68.33a15.16,15.16,0,0,1,.84-6.08,11.31,11.31,0,0,1,.71-1.56,7.85,7.85,0,0,1,1.26-1.75l1-1-.1-.64-.12-.79a7.24,7.24,0,0,1,0-1.77,14.38,14.38,0,0,1,3.43-7.56,13.9,13.9,0,0,1,6.92-4.74l3.6,3.6-8,8,4,4L49,31.19h0a16.64,16.64,0,0,1,1.6-.62,19.47,19.47,0,0,1,6.07-1,13.91,13.91,0,0,1,8.42,2.49l-8.42,8.42L51.22,35l-4,4,5.47,5.47-10,10-5.47-5.47-4,4,5.47,5.47-8,8,4,4L72.5,32.77a12.6,12.6,0,0,1,1.46,0,14.1,14.1,0,0,1,2.23.21,16.53,16.53,0,0,1,3.07.87A14.1,14.1,0,0,1,86.08,39l-2.93,2.93L76.28,35l-4,4,6.87,6.87-8.5,8.5-6.87-6.87-4,4,6.87,6.87-8,8,4,4L90.74,42.39h0a12,12,0,0,1,4.07,2,16.1,16.1,0,0,1,3,2.79,14.36,14.36,0,0,1,3.43,7.57,7.24,7.24,0,0,1,0,1.76l0,.19L101,57.91l1,1a9.25,9.25,0,0,1,2,3.31c.08.23.16.47.23.72s.17.58.25.89a15.27,15.27,0,0,1,.38,2.78c0,.55,0,1.11,0,1.7-.26,4.71-2.24,7.87-3.91,9.2a8.52,8.52,0,0,1-5.49,2Z"/></g></g></svg>