<svg xmlns="http://www.w3.org/2000/svg" viewBox="0 0 113.39 113.39"><defs><style>.cls-1{fill:none;}.cls-2{fill:#040000;}</style></defs><title>アセット 368</title><g id="レイヤー_2" data-name="レイヤー 2"><g id="waku"><rect class="cls-1" width="113.39" height="113.39"/></g><g id="編集モード"><path class="cls-2" d="M26.2,42.86c5.81,23.26,4.2,49.48-1.89,62.08H80.25c-3-6-5.07-15.76-5.81-27.08h0l-.26.15a14.94,14.94,0,0,1-5.28,1.71h-.06l-.33.05v9.74a6.34,6.34,0,0,1-12.68-.25V77c-.69-.37-1.37-.77-2-1.2a25.67,25.67,0,0,1-3.63-2.93v3.44a6.72,6.72,0,0,1-13.41.28c-.25-12.31,1.81-28.18,4.26-36C36.69,43.14,31.52,44.74,26.2,42.86Z"/><path class="cls-2" d="M66.51,75.67c4.4,0,6.68-1.3,8.47-4,2-2.94,1.64-7.56-.81-11.51h0V53.49h0V33.16L102,34V25.54H47.65q.19-.64.32-1.27a15.19,15.19,0,0,0,.26-1.57h0l53.8,0V14.18L46.87,15.91a7.89,7.89,0,0,0-1.48-1.74,8.67,8.67,0,0,0-5.81-2c-4.13,0-8.88,2.3-12.52,6.48C21.91,24.53,20.71,32,24.2,36.37c2.72,3.39,7.46,3.77,11.42,2.17a19.55,19.55,0,0,0,8.46-6.31l6,.19V53.68a7.82,7.82,0,0,0-.82,1c-2.12,3.21-1.64,7.57.83,11.54a18.65,18.65,0,0,0,5.67,5.83A18.79,18.79,0,0,0,66.51,75.67Zm-10-43.06L67.78,33v10a5.63,5.63,0,0,1-11.26,0Z"/></g></g></svg>