<svg xmlns="http://www.w3.org/2000/svg" viewBox="0 0 113.39 113.39"><defs><style>.cls-1{fill:none;}.cls-2{fill:#040000;}</style></defs><title>アセット 382</title><g id="レイヤー_2" data-name="レイヤー 2"><g id="waku"><rect class="cls-1" width="113.39" height="113.39"/></g><g id="編集モード"><path class="cls-2" d="M56.69,14.17A5.67,5.67,0,0,0,51,8.5V39.68H43.94V8.5H38.27V39.68H31.19V8.5a5.67,5.67,0,0,0-5.67,5.67V40.62h0v4.73h0A11.34,11.34,0,0,0,36.86,56.69v51h8.5v-51A11.34,11.34,0,0,0,56.69,45.36h0V41.7h0Z"/><path class="cls-2" d="M79.37,70.87A11.34,11.34,0,0,1,68,59.53V39.69h0V25.52A19.84,19.84,0,0,1,81.24,6.83a12.56,12.56,0,0,1,5.22-1.16h1.42v34h0v68h-8.5Z"/></g></g></svg>