<svg xmlns="http://www.w3.org/2000/svg" viewBox="0 0 113.39 113.39"><defs><style>.cls-1{fill:none;}.cls-2{fill:#040000;}</style></defs><title>アセット 294</title><g id="レイヤー_2" data-name="レイヤー 2"><g id="waku"><rect class="cls-1" width="113.39" height="113.39"/></g><g id="編集モード"><polygon class="cls-2" points="52.44 102.05 60.94 102.05 60.94 55.43 52.44 50.28 52.44 102.05"/><path class="cls-2" d="M31.18,48.19a17,17,0,1,0,17,17A17,17,0,0,0,31.18,48.19Zm3.54,20.55H27.64V61.65h7.09Z"/><path class="cls-2" d="M90.71,31A21.22,21.22,0,1,0,69.45,52.27,21.26,21.26,0,0,0,90.71,31Zm-24.8-3.54H73v7.09H65.91Z"/><path class="cls-2" d="M60.95,102h11.3c0-19.26,6.57-36.62,15.63-45.35C72.83,61.74,61.57,80,60.95,102Z"/></g></g></svg>