<svg xmlns="http://www.w3.org/2000/svg" viewBox="0 0 113.39 113.39"><defs><style>.cls-1{fill:none;}.cls-2{fill:#040000;}</style></defs><title>アセット 286</title><g id="レイヤー_2" data-name="レイヤー 2"><g id="waku"><rect class="cls-1" width="113.39" height="113.39"/></g><g id="編集モード"><path class="cls-2" d="M77,83.53c-23.87-1.44-35.57-3.47-26.63-7.67,10.63-5-5-8.86-25-7.48C4.82,69.79,1.75,77,9.7,78.7c12.82,2.81,32,1.79,16.44,9.86C12.84,95.45,40.35,102,69.29,102c27.51,0,37.36-4.24,38.3-8.56C108.47,89.49,105.23,85.23,77,83.53Z"/><path class="cls-2" d="M60.86,73.7h8.5a12.76,12.76,0,0,1,25.51,0h8.5A21.25,21.25,0,0,0,93.16,55.56L103.33,51v-5.9H93.41V32.32h9.92c0-9.29-8.61-16.89-19.54-17.6a4.84,4.84,0,1,0-3.34,0c-10.93.71-19.54,8.31-19.54,17.6h9.87v12.8H60.91V51l10.17,4.54A21.25,21.25,0,0,0,60.86,73.7ZM77.23,32.32H87v12.8H77.23Z"/></g></g></svg>