<svg xmlns="http://www.w3.org/2000/svg" viewBox="0 0 113.39 113.39"><defs><style>.cls-1{fill:none;}.cls-2{fill:#040000;}</style></defs><title>アセット 295</title><g id="レイヤー_2" data-name="レイヤー 2"><g id="waku"><rect class="cls-1" width="113.39" height="113.39"/></g><g id="編集モード"><path class="cls-2" d="M102.06,17.23,90.88,8.5l-42,54.08c-.36,0-.72,0-1.08,0-6.06,0-12.62,3.34-17.08,9.35-6.72,9-1.65,20.4-16.39,33,23.44,0,36.2-4,43.18-13.63,5.15-7.14,6-15,3.2-20.8ZM53,87.94l-.13.18c-11.43,2.73-6.18-8.73-20.64-4.58.73-3.3,1.42-6,3.12-8.25,3.24-4.36,8-7.06,12.53-7.06A8.63,8.63,0,0,1,53,69.79C58,73.38,58,81,53,87.94Z"/></g></g></svg>