<svg xmlns="http://www.w3.org/2000/svg" viewBox="0 0 113.39 113.39"><defs><style>.cls-1{fill:none;}.cls-2{fill:#040000;}</style></defs><title>アセット 283</title><g id="レイヤー_2" data-name="レイヤー 2"><g id="waku"><rect class="cls-1" width="113.39" height="113.39"/></g><g id="編集モード"><rect class="cls-2" x="45.2" y="5.68" width="22.68" height="8.5"/><path class="cls-2" d="M73.6,68.59a2.24,2.24,0,0,0-2.33-2.5H61.36v5H73.6Z"/><polygon class="cls-2" points="52.03 51.3 52.03 43.42 46.92 43.41 46.92 51.31 52.03 51.3"/><path class="cls-2" d="M42.12,66.09a2.24,2.24,0,0,0-2.33,2.5V71.1H52v-5Z"/><polygon class="cls-2" points="73.6 74.96 61.36 74.96 61.36 79.35 73.6 79.36 73.6 74.96"/><path class="cls-2" d="M42.14,43.4H36.55l-.05.89s-.38,3.9-.7,7.06l6.34,0Z"/><polygon class="cls-2" points="66.47 43.41 61.36 43.42 61.36 51.3 66.47 51.31 66.47 43.41"/><path class="cls-2" d="M68.73,17H44.38C30.07,17.2,18.51,30.9,18.51,56.7S30.07,96.2,44.38,96.38H68.73c14.44,0,26.15-13.71,26.15-39.69S83.17,17,68.73,17ZM85,61.47c-2.56,1-5.89-2.11-6.82-5.38H61.36v4.77h9c2.38,0,3.16-1.07,5.48-.25,2.06.73,4.71,3.49,5,5.27a5.28,5.28,0,0,1-.27,2.79A11.19,11.19,0,0,0,80,73.1,32.47,32.47,0,0,0,80.45,79a4.57,4.57,0,0,1-.31,3.18,5.73,5.73,0,0,1-3.51,2.76c-1.56.42-4.21-.08-7.25-.31-3.28-.25-8.16-.48-12.69-.48s-9.41.23-12.69.48c-3,.23-5.69.73-7.25.31a5.73,5.73,0,0,1-3.51-2.76A4.57,4.57,0,0,1,32.93,79a32.48,32.48,0,0,0,.44-5.85,11.19,11.19,0,0,0-.5-4.44,5.28,5.28,0,0,1-.27-2.79c.25-1.78,2.89-4.54,5-5.27,2.32-.82,3.1.25,5.48.25h9V56.09H35.2c-.93,3.26-4.26,6.41-6.82,5.38-1.67-.68-2.34-3-1.75-4.77.49-1.53,1.2-1.79,1.66-4.06.71-3.48,1.28-6.1,1.4-7s-.35-1.47-.08-3.41c.22-1.55,2.23-3.31,4.15-3.73a17.51,17.51,0,0,1,3.74-.32H52V34.69h-7.8c-2.46,0-3.43.37-4.39.26-1.37-.16-1.72-1.41-1.72-2.4,0-1.85,1.14-4,3.3-4l15.28-.06L72,28.6c2.16,0,3.3,2.11,3.3,4,0,1-.35,2.24-1.72,2.4-1,.11-1.92-.26-4.39-.26h-7.8V38.2H75.88a17.51,17.51,0,0,1,3.74.32c1.92.42,3.93,2.19,4.15,3.73.27,1.94-.19,2.66-.08,3.41s.69,3.5,1.4,7c.46,2.26,1.17,2.53,1.66,4.06C87.34,58.51,86.68,60.79,85,61.47Z"/><path class="cls-2" d="M77.58,51.35c-.32-3.17-.7-7.06-.7-7.06l-.05-.89H71.24v7.92Z"/><polygon class="cls-2" points="39.79 74.96 39.79 79.36 52.03 79.35 52.03 74.96 39.79 74.96"/><rect class="cls-2" x="45.2" y="99.22" width="22.68" height="8.5"/></g></g></svg>