<svg xmlns="http://www.w3.org/2000/svg" viewBox="0 0 113.39 113.39"><defs><style>.cls-1{fill:none;}.cls-2{fill:#040000;}</style></defs><title>アセット 397</title><g id="レイヤー_2" data-name="レイヤー 2"><g id="waku"><rect class="cls-1" width="113.39" height="113.39"/></g><g id="編集モード"><polygon class="cls-2" points="36.85 102.05 42.52 102.05 42.52 56.69 70.86 56.69 70.86 102.05 76.53 102.05 76.53 51.02 36.85 51.02 36.85 102.05"/><polygon class="cls-2" points="48.19 70.86 48.19 70.86 48.19 102.05 53.85 102.05 53.85 70.86 59.53 70.86 59.53 102.05 65.18 102.05 65.18 70.86 65.19 70.86 65.19 65.21 48.19 65.21 48.19 70.86"/><path class="cls-2" d="M107.71,22.68v-8.5H5.66v8.5H19.29l-.41,14.17H8.5v8.5H18.64L17,102H31.18V45.35h51V102H96.38L94.75,45.35h10.13v-8.5H94.51L94.1,22.68ZM82.2,36.85h-51V22.68h51Z"/></g></g></svg>