<svg xmlns="http://www.w3.org/2000/svg" viewBox="0 0 113.39 113.39"><defs><style>.cls-1{fill:none;}.cls-2{fill:#040000;}</style></defs><title>アセット 405</title><g id="レイヤー_2" data-name="レイヤー 2"><g id="waku"><rect class="cls-1" width="113.39" height="113.39"/></g><g id="編集モード"><path class="cls-2" d="M51,78.08a106.28,106.28,0,0,0-15.59,2.55V86.5A98.3,98.3,0,0,1,51,83.78Z"/><path class="cls-2" d="M62.36,78.08v5.7A98.39,98.39,0,0,1,78,86.5V80.64A106.35,106.35,0,0,0,62.36,78.08Z"/><path class="cls-2" d="M93.37,23.46h14.37V14.11H5.7v9.35H20L17.66,87.24A70.47,70.47,0,0,0,11.34,91V84.88H5.67v19.94h5.67V97.89a63.69,63.69,0,0,1,6.07-4l-.4,11h15.6V51.53H80.79v53.29H96.38l-.4-11a63.63,63.63,0,0,1,6.07,4v6.93h5.67V84.88H102V91a70.45,70.45,0,0,0-6.32-3.72ZM80.79,42.17H32.6V23.46H80.79Z"/><path class="cls-2" d="M35.44,93.54s-.07,11.19,0,11.27H78V93.54c-5.43-1.41-13.86-3.13-21.26-3.13S40.87,92.13,35.44,93.54Z"/></g></g></svg>