<svg xmlns="http://www.w3.org/2000/svg" viewBox="0 0 113.39 113.39"><defs><style>.cls-1{fill:none;}.cls-2{fill:#040000;}</style></defs><title>アセット 410</title><g id="レイヤー_2" data-name="レイヤー 2"><g id="waku"><rect class="cls-1" width="113.39" height="113.39"/></g><g id="編集モード"><path class="cls-2" d="M27.65,39.69H14.21v8.51H27.34L26,84.85a16.07,16.07,0,0,1,1.72,1.21,3.69,3.69,0,0,0,2.23.65,3.59,3.59,0,0,0,2.18-.63,17,17,0,0,1,7.62-3.52V48.19h34V82.57a17.12,17.12,0,0,1,7.59,3.49,3.69,3.69,0,0,0,2.23.65,3.59,3.59,0,0,0,2.18-.63,16,16,0,0,1,1.75-1.24L86.13,48.19H99.25V39.69H85.81l-.63-17h19.73v-8.5H8.54v8.5H28.28Zm12.07-17h34v17h-34Z"/><path class="cls-2" d="M105.45,89.35q-.44-.36-.91-.68a12.78,12.78,0,0,0-3.07-1.49h0A14.33,14.33,0,0,0,90.58,88c-1.94,1-3.34,2.5-5.59,2.88a8.09,8.09,0,0,1-6.35-1.5h0a14,14,0,0,0-14.25-1.69c-2.31,1-3.93,2.94-6.57,3.23a8.1,8.1,0,0,1-6-1.54h0a14,14,0,0,0-16.88-.09,8.29,8.29,0,0,1-9.06.65A36.47,36.47,0,0,0,22,87.56a14,14,0,0,0-4.19-1A13.58,13.58,0,0,0,8,89.36l3.61,4.37h0a8.22,8.22,0,0,1,9.11-.45,27.64,27.64,0,0,0,4.06,2.41,14.44,14.44,0,0,0,10.08.07,20,20,0,0,0,4.07-2.39,8.24,8.24,0,0,1,9.3.38h0a14,14,0,0,0,14,1.77c2.12-.91,3.67-2.64,6-3.15A8.14,8.14,0,0,1,75,93.74h0a14,14,0,0,0,14.11,1.76c2.28-1,3.9-2.89,6.45-3.27a8.18,8.18,0,0,1,6.26,1.51h0Z"/></g></g></svg>