<svg xmlns="http://www.w3.org/2000/svg" viewBox="0 0 113.39 113.39"><defs><style>.cls-1{fill:none;}.cls-2{fill:#040000;}</style></defs><title>アセット 403</title><g id="レイヤー_2" data-name="レイヤー 2"><g id="waku"><rect class="cls-1" width="113.39" height="113.39"/></g><g id="編集モード"><path class="cls-2" d="M85.63,57q0,.79,0,1.59,0,1.5-.07,3a73.82,73.82,0,0,1,17.57,8.61l1.61-2.33,1.62-2.34a79.82,79.82,0,0,0-20.77-9.93C85.61,56.06,85.63,56.54,85.63,57Z"/><path class="cls-2" d="M27.38,58.73q0-.86,0-1.72c0-.44,0-.87,0-1.29A79.6,79.6,0,0,0,7.06,65.51l1.62,2.34,1.61,2.33a73.52,73.52,0,0,1,17.17-8.47Q27.4,60.23,27.38,58.73Z"/><circle class="cls-2" cx="56.69" cy="21.98" r="10.58"/><path class="cls-2" d="M56.49,36.82h0c-14.89,0-23.38,7.91-24.68,17.58A19.7,19.7,0,0,0,31.62,57c0,.14,0,.26,0,.4q0,1.54,0,3A62.53,62.53,0,0,0,33,72.86c0,.2.1.39.14.58A10.1,10.1,0,0,0,25.1,85.75H87.89a10.12,10.12,0,0,0-8.07-12.31c0-.19.1-.38.14-.58a62.81,62.81,0,0,0,1.37-12.59c0-1,0-1.95,0-3,0-.1,0-.19,0-.28a19.68,19.68,0,0,0-.21-2.73c-1.34-9.62-9.82-17.47-24.66-17.47v.43"/><rect class="cls-2" x="24.83" y="90" width="63.78" height="9.86"/></g></g></svg>