<svg xmlns="http://www.w3.org/2000/svg" viewBox="0 0 113.39 113.39"><defs><style>.cls-1{fill:none;}.cls-2{fill:#040000;}</style></defs><title>アセット 402</title><g id="レイヤー_2" data-name="レイヤー 2"><g id="waku"><rect class="cls-1" width="113.39" height="113.39"/></g><g id="編集モード"><circle class="cls-2" cx="57.79" cy="18.79" r="10.58"/><path class="cls-2" d="M25.92,80.22a10.15,10.15,0,0,0,.26,2.27c1.73-1.18,3.16-2,3.54-2.18l.73-.39.78.29a32.24,32.24,0,0,1,8.38,4.73A32.24,32.24,0,0,1,48,80.21l.64-.24.64.24A32,32,0,0,1,57.79,85a32,32,0,0,1,8.51-4.83l.64-.24.64.24A32.24,32.24,0,0,1,76,84.93a32.24,32.24,0,0,1,8.38-4.73l.78-.29.73.39c.36.19,1.62.89,3.19,1.94a10.1,10.1,0,0,0-4.37-10.51,9.65,9.65,0,0,0,3.8-11.11H81.21a19.46,19.46,0,0,0,1.26-6.81c0-10.82-8.65-20.19-24.87-20.19h0c-7.88,0-14,2.22-18.14,5.74a7.07,7.07,0,0,0-5.59-2.87,7.33,7.33,0,0,0-7.18,7.36V54.62a14.17,14.17,0,0,0,2.53,8.09l5.22,7.51A10.14,10.14,0,0,0,25.92,80.22Z"/><path class="cls-2" d="M93.83,92.45c-.34-2.07-3.38-4.73-6.21-6.7-1-.69-1.95-1.3-2.76-1.77-1.63.69-5.46,2.46-7.53,4.74L76,90.22l-1.36-1.5c-2-2.17-5.74-4-7.65-4.8-1.57.65-5.67,2.51-7.77,4.91l-1.39,1.59L56.4,88.83c-1.93-2.22-5.8-4.1-7.76-4.91-1.55.64-5.53,2.45-7.66,4.8l-1.36,1.5-1.36-1.5c-1.92-2.12-5.57-3.92-7.52-4.74-.95.55-2,1.22-3,2-2.83,2-5.59,4.53-5.92,6.52a6.76,6.76,0,0,0,1.64,5.27,5.63,5.63,0,0,0,4.18,2.13H88a5.62,5.62,0,0,0,4.18-2.13A6.76,6.76,0,0,0,93.83,92.45Z"/></g></g></svg>