<svg xmlns="http://www.w3.org/2000/svg" viewBox="0 0 113.39 113.39"><defs><style>.cls-1{fill:none;}.cls-2{fill:#040000;}</style></defs><title>アセット 276</title><g id="レイヤー_2" data-name="レイヤー 2"><g id="waku"><rect class="cls-1" width="113.39" height="113.39"/></g><g id="編集モード"><path class="cls-2" d="M43.55,56.63H67.09a100.28,100.28,0,0,1-3.75-16.88h-16A100.28,100.28,0,0,1,43.55,56.63Z"/><polygon class="cls-2" points="76.56 70.93 79.39 59.47 31.2 59.47 34.03 70.93 76.56 70.93"/><rect class="cls-2" x="42.56" y="25.51" width="25.51" height="11.4"/><polygon class="cls-2" points="58.15 22.68 58.15 5.68 52.48 5.68 52.48 22.68 52.48 22.69 58.15 22.69 58.15 22.68"/><path class="cls-2" d="M55.27,87.89c10.84,0,15.6,8.51,25.52,17H98.91A117.24,117.24,0,0,1,74.3,73.76h-38a117.24,117.24,0,0,1-24.61,31.12h18C39.67,96.39,44.43,87.89,55.27,87.89Z"/></g></g></svg>