<svg xmlns="http://www.w3.org/2000/svg" viewBox="0 0 113.39 113.39"><defs><style>.cls-1{fill:none;}.cls-2{fill:#040000;}</style></defs><title>アセット 320</title><g id="レイヤー_2" data-name="レイヤー 2"><g id="waku"><rect class="cls-1" width="113.39" height="113.39"/></g><g id="編集モード"><path class="cls-2" d="M8.5,11.34V22.68H19.84a6.61,6.61,0,0,1,6.61,6.61V51h0c0,4.7,3,8.5,6.61,8.5s6.61-3.81,6.61-8.5V26.46a6.61,6.61,0,0,1,13.23,0V36.85h0c0,4.7,3,8.5,6.61,8.5s6.61-3.81,6.61-8.5V32.12a6.61,6.61,0,0,1,13.23,0V51h0c0,4.7,3,8.5,6.61,8.5s6.61-3.81,6.61-8.5h0V26.46a6.61,6.61,0,0,1,6.61-6.61h5.68v-8.5H8.5Z"/><path class="cls-2" d="M104.89,90.71H91.33a6.61,6.61,0,0,1-6.61-6.61V70.87h0c0-4.7-3-8.5-6.61-8.5s-6.61,3.81-6.61,8.5v10.4a6.61,6.61,0,0,1-13.23,0V59.53h0c0-4.7-3-8.5-6.61-8.5S45,54.83,45,59.53h0V84.1a6.61,6.61,0,0,1-13.23,0V73.7h0c0-4.7-3-8.5-6.61-8.5S18.57,69,18.57,73.7V86.93A6.61,6.61,0,0,1,12,93.54H8.5v8.51h96.37Z"/></g></g></svg>