<svg xmlns="http://www.w3.org/2000/svg" viewBox="0 0 113.39 113.39"><defs><style>.cls-1{fill:none;}.cls-2{fill:#040000;}</style></defs><title>アセット 334</title><g id="レイヤー_2" data-name="レイヤー 2"><g id="waku"><rect class="cls-1" width="113.39" height="113.39"/></g><g id="編集モード"><path class="cls-2" d="M57.79,68.86"/><path class="cls-2" d="M37.7,46"/><path class="cls-2" d="M56.67,37.91s-6.25,11-9.48,16.88c-3.08,5.63.07,11.42-2.18,18.31-1.25,3.83-4,6.91-7.13,9.36L43.8,84l2.38.62c4.55-2.45,8.83-7,11.61-15.77L66,74,60.5,88.38l6.39,1.67.83.22,9.9-16.09a4.85,4.85,0,0,0-.83-6.09l-.75-.7L64.52,56.7l5.69-10.13s3.26,4.4,12.17,6.31c8.07,1.72,16.16-1,16.16-1l-1-5.19a28,28,0,0,1-14-2.08c-3.45-1.42-6-4.75-7.69-9.92-1-3.06-2.12-4.77-4.63-6.18-2.68-1.5-11-2.49-20.35.33C38.58,32.51,33.17,43.25,33.17,43.25l4.48,2.83c4.6-4.65,8.59-6.86,12.92-7.81A15.06,15.06,0,0,1,56.67,37.91Z"/><path class="cls-2" d="M103.53,95.5l-3.32,1.81a15.6,15.6,0,0,1-11.46,1.4L66.18,92.8,59.49,91,44.13,87,34,84.37,21.65,81.15a15.59,15.59,0,0,1-9.4-7L9.89,70.3l-4.84,3,2.36,3.85a21.23,21.23,0,0,0,12.8,9.51l67.1,17.56a21.26,21.26,0,0,0,15.6-1.9l3.32-1.81Z"/><circle class="cls-2" cx="76.46" cy="18.24" r="7.8" transform="translate(13.8 65.7) rotate(-50.56)"/></g></g></svg>