<svg xmlns="http://www.w3.org/2000/svg" viewBox="0 0 113.39 113.39"><defs><style>.cls-1{fill:none;}.cls-2{fill:#040000;}</style></defs><title>アセット 332</title><g id="レイヤー_2" data-name="レイヤー 2"><g id="waku"><rect class="cls-1" width="113.39" height="113.39"/></g><g id="編集モード"><circle class="cls-2" cx="23.01" cy="19.97" r="7.8"/><path class="cls-2" d="M38.19,55.76a41.65,41.65,0,0,0,4.4-12.3l8.84,6.44L66.57,43.2a7,7,0,0,0-2.5-3.13L43.43,25a7.7,7.7,0,0,0-10.76,1.69,8.77,8.77,0,0,0-1.16,6.47c1.41,9.08,1.28,19.29-.7,25.87Z"/><path class="cls-2" d="M105.42,59.46,22.15,96.35a2.91,2.91,0,0,1-2.1.08l-6.3-2.26-1.91,5.34,6.3,2.26a8.47,8.47,0,0,0,6.31-.23l83.27-36.89ZM21,96.59l-.29,0,.33,0Z"/><path class="cls-2" d="M65.3,51.52,91.2,40l-1.72-3.89L26.65,64l1.72,3.89L45.93,60.1c0,.06-.28.49-2.29,3.86s-.29,7.29,3.09,8,16.12,3.25,16.12,3.25l1.81-.8,8-3.57-15.79-6.7Z"/><path class="cls-2" d="M21,96.59h0l-.33,0Z"/></g></g></svg>