<svg xmlns="http://www.w3.org/2000/svg" viewBox="0 0 113.39 113.39"><defs><style>.cls-1{fill:none;}.cls-2{fill:#040000;}</style></defs><title>アセット 328</title><g id="レイヤー_2" data-name="レイヤー 2"><g id="waku"><rect class="cls-1" width="113.39" height="113.39"/></g><g id="編集モード"><polygon class="cls-2" points="85.11 103.81 90.77 103.36 85.96 38.09 80.31 38.54 85.11 103.81"/><path class="cls-2" d="M65.65,39.08c-2.54-2.7-5.31-6.17-6.57-7.85A7.39,7.39,0,0,0,54.3,28a8,8,0,0,0-9.48,6.18l-5,25.72c-3.11,15.85-6.72,24.21-17.16,38.83l5.3,4.89c9.24-8.44,17.55-19.16,20.92-26.21,4.56,7.56,7.37,16.87,10.29,27.48l7.12-1.11c-1.15-18.61-4-30.94-10.41-43.59L58.42,47a54.23,54.23,0,0,0,20.2,7.29l-.52-7.07A36.28,36.28,0,0,1,65.65,39.08Z"/><circle class="cls-2" cx="56.25" cy="16.26" r="7.8"/><path class="cls-2" d="M39.88,37.46a5.67,5.67,0,1,0-11.12-2.21L24.89,54.66,36,56.87Z"/></g></g></svg>