<svg xmlns="http://www.w3.org/2000/svg" viewBox="0 0 113.39 113.39"><defs><style>.cls-1{fill:none;}.cls-2{fill:#040000;}</style></defs><title>アセット 394</title><g id="レイヤー_2" data-name="レイヤー 2"><g id="waku"><rect class="cls-1" width="113.39" height="113.39"/></g><g id="編集モード"><path class="cls-2" d="M84.86,45.82a18.77,18.77,0,0,0-17.45-8.19C66,34.07,63.93,30.54,59.6,30,55.49,29.58,52,33,50,36.37a33.25,33.25,0,0,0-3.21,7.43c-.55,2-.88,3.77-.88,3.77L40.7,51.9c1.06-5.21,1-11.1-2.34-15.24a6.92,6.92,0,0,0-3.25-2.36c-2.08-.65-3.61.1-3.87,2-.54,3.91,3.51,4.58.83,13.58A35.8,35.8,0,0,0,31.85,67a12.66,12.66,0,0,0,5.09,7.8c1.38.88,3.84,1.4,5.25.24s1.27-2.58.79-4.12-2-3.35-2.45-8.42a51.07,51.07,0,0,1,6-5.33,23.44,23.44,0,0,0,13.2,14.89A24.68,24.68,0,0,1,49.6,83.27c2.44,1.5,6.48,1.82,10.64-.06a18.27,18.27,0,0,0,8.51-9A18.14,18.14,0,0,0,85.36,65.1,18.77,18.77,0,0,0,84.86,45.82ZM53.08,37.75c1.31-2.17,2.8-3.47,4.53-3.2s2.62,2.36,3.18,4.52a39.37,39.37,0,0,0-10.47,5.39A25,25,0,0,1,53.08,37.75ZM61,66.85c-.29-.18-9.37-5.18-11.15-12.64a41.36,41.36,0,0,1,11.94-7.64A59.52,59.52,0,0,1,61,66.85Zm10,.12a1.84,1.84,0,0,1-.81.27,50,50,0,0,0-.52-22.67,8.4,8.4,0,0,1,2.87.29c4.45,1.09,6,6.24,6,10.31C78.51,61.31,76,65.28,70.94,67Z"/><path class="cls-2" d="M56.69,8.5a48.19,48.19,0,1,0,48.19,48.19A48.24,48.24,0,0,0,56.69,8.5Zm0,90.71A42.52,42.52,0,1,1,99.21,56.69,42.57,42.57,0,0,1,56.69,99.21Z"/></g></g></svg>