<svg xmlns="http://www.w3.org/2000/svg" viewBox="0 0 113.39 113.39"><defs><style>.cls-1{fill:none;}.cls-2{fill:#040000;}</style></defs><title>アセット 289</title><g id="レイヤー_2" data-name="レイヤー 2"><g id="waku"><rect class="cls-1" width="113.39" height="113.39"/></g><g id="編集モード"><path class="cls-2" d="M84.43,92.35A11.33,11.33,0,0,0,90.72,82.2V25.51A11.34,11.34,0,0,0,79.38,14.17H34A11.37,11.37,0,0,0,22.69,25.51V82.2A11.33,11.33,0,0,0,29,92.35l-6.3,9.7H33l5.48-8.5H74.93l5.46,8.5H90.71ZM36.86,22.68H76.55v5.67H36.86ZM79.38,36.85a2.83,2.83,0,0,1,2.83,2.83V59.53a2.83,2.83,0,0,1-2.83,2.83H34a2.83,2.83,0,0,1-2.83-2.83V39.68A2.83,2.83,0,0,1,34,36.85ZM36.86,82.2a5.66,5.66,0,1,1,5.67-5.67A5.68,5.68,0,0,1,36.86,82.2Zm34-5.67a5.67,5.67,0,1,1,6.52,5.6,5.63,5.63,0,0,1-6.52-5.6Z"/></g></g></svg>