<svg xmlns="http://www.w3.org/2000/svg" viewBox="0 0 113.39 113.39"><defs><style>.cls-1{fill:none;}.cls-2{fill:#040000;}</style></defs><title>アセット 298</title><g id="レイヤー_2" data-name="レイヤー 2"><g id="waku"><rect class="cls-1" width="113.39" height="113.39"/></g><g id="編集モード"><path class="cls-2" d="M105,34V28.35H85.16v-17H71l-4.86,17H52.06L46.39,42.52H32.23L23.08,65.2H3L19.51,90.45a9.89,9.89,0,0,0,10-.38,15.56,15.56,0,0,1,17.66,0h0a9.83,9.83,0,0,0,10.69,0,15.56,15.56,0,0,1,17.66,0h0a9.83,9.83,0,0,0,10.69,0,15.56,15.56,0,0,1,17.66,0h0a7.1,7.1,0,0,0,1.1.65V65.2H29.19l6.86-17h69V42.52H52.5L55.9,34Z"/><rect class="cls-2" x="42.64" y="53.86" width="17.01" height="5.67"/><rect class="cls-2" x="65.32" y="53.86" width="17.01" height="5.67"/><rect class="cls-2" x="88" y="53.86" width="17.01" height="5.67"/></g></g></svg>