<svg xmlns="http://www.w3.org/2000/svg" viewBox="0 0 113.39 113.39"><defs><style>.cls-1{fill:none;}.cls-2{fill:#040000;}</style></defs><title>アセット 307</title><g id="レイヤー_2" data-name="レイヤー 2"><g id="waku"><rect class="cls-1" width="113.39" height="113.39"/></g><g id="編集モード"><path class="cls-2" d="M38.88,76.07A36.27,36.27,0,1,1,75.94,39.82a36,36,0,0,1-2.71,13.74h-5.6a30.75,30.75,0,0,0,3.2-13.74A31.17,31.17,0,1,0,39.67,71l1.15,0Z"/><path class="cls-2" d="M49.51,73.46a8.68,8.68,0,0,0-6.77,8.45V99.22h4.33v8.66h8.66V99.22h39v8.66h8.66V99.22h4.33V81.9a8.66,8.66,0,0,0-6.86-8.47l-3.65-9.73a8.7,8.7,0,0,0-8.11-5.62H61.28a8.7,8.7,0,0,0-8.11,5.62Zm6.22,17.1a4.33,4.33,0,1,1,4.33-4.33A4.33,4.33,0,0,1,55.74,90.56Zm3.08-25.19a4.54,4.54,0,0,1,4.25-2.95h24.3a4.54,4.54,0,0,1,4.25,2.95l2.94,7.87H55.88ZM94.7,90.56A4.33,4.33,0,1,1,99,86.23,4.33,4.33,0,0,1,94.7,90.56Z"/><polygon class="cls-2" points="42.6 48.88 42.6 45.4 51.33 45.4 51.33 39.97 45.73 39.97 55.51 23.71 48.46 23.71 39.47 39.06 30.88 23.89 30.78 23.71 23.83 23.71 33.52 39.98 28 39.98 28 45.4 36.73 45.4 36.73 48.88 28 48.88 28 53.84 36.73 53.84 36.73 61.45 42.6 61.45 42.6 53.84 47.61 53.84 47.61 53.84 51.33 53.84 51.33 48.88 42.6 48.88"/><polygon class="cls-2" points="47.61 53.84 51.33 53.84 51.33 53.84 47.61 53.84 47.61 53.84"/></g></g></svg>