<svg xmlns="http://www.w3.org/2000/svg" viewBox="0 0 113.39 113.39"><defs><style>.cls-1{fill:none;}.cls-2{fill:#040000;}</style></defs><title>アセット 310</title><g id="レイヤー_2" data-name="レイヤー 2"><g id="waku"><rect class="cls-1" width="113.39" height="113.39"/></g><g id="編集モード"><circle class="cls-2" cx="38.6" cy="12.19" r="3.68"/><path class="cls-2" d="M42.43,51v-12h2.93V22.48h0a3.68,3.68,0,0,0-3.68-3.68H35.53a3.68,3.68,0,0,0-3.68,3.68h0V39.06h2.93V51Z"/><circle class="cls-2" cx="19.85" cy="12.19" r="3.68"/><path class="cls-2" d="M23.53,28V22.53s0,0,0-.05a3.68,3.68,0,0,0-7.37,0h0V28c-3.68,3.61-4.9,7.29-4.9,13.5H17.4V51h4.91V41.51h6.14C28.44,35.3,27.18,31.62,23.53,28Z"/><path class="cls-2" d="M96.25,23.36H95V19.84H62.36v23A8.21,8.21,0,0,0,70.57,51H86.81a8.2,8.2,0,0,0,7.89-6h1.55a10.84,10.84,0,0,0,0-21.69Zm0,17.23H95V27.81h1.23a6.39,6.39,0,0,1,0,12.78Z"/><path class="cls-2" d="M31,73.29a8.65,8.65,0,0,0-6.77,8.45V99.06h4.33v8.66h8.66V99.06h39v8.66h8.66V99.06h4.33V81.74a8.66,8.66,0,0,0-6.86-8.47l-3.65-9.73a8.7,8.7,0,0,0-8.11-5.62H42.75a8.7,8.7,0,0,0-8.11,5.62ZM37.21,90.4a4.33,4.33,0,1,1,4.33-4.33A4.33,4.33,0,0,1,37.21,90.4Zm.14-17.32.38-1,2.56-6.85a4.54,4.54,0,0,1,4.25-2.95h24.3a4.54,4.54,0,0,1,4.25,2.95L76,73.08ZM76.18,90.4a4.33,4.33,0,1,1,4.33-4.33A4.33,4.33,0,0,1,76.18,90.4Z"/></g></g></svg>