<svg xmlns="http://www.w3.org/2000/svg" viewBox="0 0 113.39 113.39"><defs><style>.cls-1{fill:none;}.cls-2{fill:#040000;}</style></defs><title>アセット 288</title><g id="レイヤー_2" data-name="レイヤー 2"><g id="waku"><rect class="cls-1" width="113.39" height="113.39"/></g><g id="編集モード"><path class="cls-2" d="M107.71,25.51v0Z"/><path class="cls-2" d="M90.7,19.85c-13,0-27.72,5.37-42.55,15.53A183.16,183.16,0,0,1,27.58,47.08C14.3,53.87,2.83,59.73,2.83,70.87,2.83,84,13.32,90.71,34,90.71h73.7V85H34C11.14,85,8.5,77,8.5,70.87c0-7.67,9.56-12.55,21.66-18.73,2.5-1.28,5.13-2.62,7.82-4.06H53.47c16.51,0,27.45-4.85,33.66-8.85A2.83,2.83,0,0,0,85.58,34H61.24c12.77-6.86,22.82-8.5,29.46-8.5h17V19.85Z"/><polygon class="cls-2" points="68.03 70.87 107.71 70.87 107.71 62.36 73.69 62.36 68.03 70.87"/></g></g></svg>