<svg xmlns="http://www.w3.org/2000/svg" viewBox="0 0 113.39 113.39"><defs><style>.cls-1{fill:none;}.cls-2{fill:#040000;}</style></defs><title>アセット 375</title><g id="レイヤー_2" data-name="レイヤー 2"><g id="waku"><rect class="cls-1" width="113.39" height="113.39"/></g><g id="編集モード"><path class="cls-2" d="M109.44,68.48c-5-24-26.15-40.14-52.75-40.14-27.64,0-49.55,17.74-53.28,43.13a16.87,16.87,0,0,0,4.7,14.33,16.58,16.58,0,0,0,11.8,4.89H91.09A18.81,18.81,0,0,0,102.31,87h0A18.57,18.57,0,0,0,109.44,68.48ZM68,35a2.86,2.86,0,1,1-.62.07A2.81,2.81,0,0,1,68,35ZM53.69,46.81A2.83,2.83,0,1,1,50.85,44,2.83,2.83,0,0,1,53.69,46.81Zm3-11.86a2.83,2.83,0,1,1-2.83,2.83A2.84,2.84,0,0,1,56.69,35Zm5.5,9a2.83,2.83,0,1,1-2.83,2.83A2.84,2.84,0,0,1,62.19,44ZM45.36,35a2.87,2.87,0,1,1-1.74.61A2.81,2.81,0,0,1,45.36,35ZM98.9,82.43A13.1,13.1,0,0,1,91.09,85H19.92A11,11,0,0,1,9.13,76.15,19.76,19.76,0,0,0,22.27,73l.1-.07a19.78,19.78,0,0,1,20.83-.69l3.58,2.06a19.78,19.78,0,0,0,19.62.06l3.91-2.22A19.78,19.78,0,0,1,91,72.86a19.76,19.76,0,0,0,12.44,3.26A13.14,13.14,0,0,1,98.9,82.43Z"/></g></g></svg>