<svg xmlns="http://www.w3.org/2000/svg" viewBox="0 0 113.39 113.39"><defs><style>.cls-1{fill:none;}.cls-2{fill:#040000;}</style></defs><title>アセット 395</title><g id="レイヤー_2" data-name="レイヤー 2"><g id="waku"><rect class="cls-1" width="113.39" height="113.39"/></g><g id="編集モード"><circle class="cls-2" cx="25.84" cy="25.81" r="8.8"/><path class="cls-2" d="M54.66,53.68a6.71,6.71,0,0,1-2.81,4.45l3.24,4.65A12.37,12.37,0,0,0,58,45.26a6.6,6.6,0,0,1-1.22-5,6.71,6.71,0,0,1,2.81-4.45l-3.24-4.65a12.37,12.37,0,0,0-2.92,17.51A6.6,6.6,0,0,1,54.66,53.68Z"/><path class="cls-2" d="M72.06,53.67a6.71,6.71,0,0,1-2.81,4.45l3.24,4.65A12.37,12.37,0,0,0,75.4,45.26a6.6,6.6,0,0,1-1.21-5A6.7,6.7,0,0,1,77,35.78l-3.24-4.65a12.37,12.37,0,0,0-2.92,17.51A6.6,6.6,0,0,1,72.06,53.67Z"/><path class="cls-2" d="M89.46,53.68a6.7,6.7,0,0,1-2.81,4.45l3.24,4.65A12.37,12.37,0,0,0,92.8,45.26a6.6,6.6,0,0,1-1.22-5,6.71,6.71,0,0,1,2.81-4.45l-3.24-4.65a12.37,12.37,0,0,0-2.92,17.51A6.6,6.6,0,0,1,89.46,53.68Z"/><path class="cls-2" d="M102.55,91.3a13.06,13.06,0,0,1-7.62,2.25,13.37,13.37,0,0,1-7.84-2.37A19.72,19.72,0,0,0,65,91.1a10.16,10.16,0,0,1-.87.57,13.5,13.5,0,0,1-6.82,1.73,14.32,14.32,0,0,1-5.93-1.25A10.71,10.71,0,0,1,49.44,91a18.73,18.73,0,0,0-11.13-3.43,18.56,18.56,0,0,0-11,3.35c-.19.14-.39.27-.59.39l2.62,4.87c.43-.26.85-.53,1.24-.82a13,13,0,0,1,7.7-2.3,13.37,13.37,0,0,1,7.84,2.37,18.42,18.42,0,0,0,10,3.39c.36,0,.72,0,1.09,0a19.29,19.29,0,0,0,9.17-2.22,15.43,15.43,0,0,0,1.8-1.13,13,13,0,0,1,7.7-2.3,13.38,13.38,0,0,1,7.84,2.37,19.78,19.78,0,0,0,21.38.56Z"/><path class="cls-2" d="M62.29,87.94,56.44,75.48a5.21,5.21,0,0,0-3.67-2.87l-1.17-.23L34.51,69l0-21.91a8.75,8.75,0,0,0-8.73-8.76h0a8.75,8.75,0,0,0-8.75,8.73l-.05,29a8.74,8.74,0,0,0,8.66,8.76h0l9.11.07s10.86.1,12.16.1a15.75,15.75,0,0,1,3,.92l.44.2.29.14a17.55,17.55,0,0,1,2.45,1.51v-.06a8.76,8.76,0,0,0,4.7,1.41A8,8,0,0,0,62.29,87.94Z"/></g></g></svg>