<svg xmlns="http://www.w3.org/2000/svg" viewBox="0 0 113.39 113.39"><defs><style>.cls-1{fill:none;}.cls-2{fill:#040000;}</style></defs><title>アセット 398</title><g id="レイヤー_2" data-name="レイヤー 2"><g id="waku"><rect class="cls-1" width="113.39" height="113.39"/></g><g id="編集モード"><path class="cls-2" d="M56.71,41.52a15,15,0,0,0-2.44.22L71.49,58.91A14.9,14.9,0,0,0,56.71,41.52Z"/><path class="cls-2" d="M8.12,15.36,24,31.21H8.52V85.06H78l20.46,20.4,5.82-5.84L13.94,9.53Zm30.79,30.7,4.19,4.18A15,15,0,0,0,63,70.1l4.19,4.18A20.62,20.62,0,0,1,38.91,46.07Z"/><path class="cls-2" d="M94.75,24.08c-2.26-2.18-3.72-5.36-4.5-9.9H85c-1,7.32-3.88,11.48-9.78,13.57L70.89,17H42.54l-3.72,9.29,4.89,4.88,5.93,5.91a20.47,20.47,0,0,1,21.24,4.4,20.73,20.73,0,0,1,4.73,6.67,20.4,20.4,0,0,1,.51,15.33l21.6,21.54h7.17V48.19h0v-20C100.28,27.62,97,26.28,94.75,24.08ZM79,30.73a17.06,17.06,0,0,0,4.84-3.46,17.61,17.61,0,0,0,3.87-6.34,17.6,17.6,0,0,0,4.09,6.21,17.37,17.37,0,0,0,5.7,3.6c.21.08.41.18.63.26A16.64,16.64,0,0,0,88.06,41.41,17,17,0,0,0,77.64,31.36C78.12,31.17,78.56,31,79,30.73Z"/></g></g></svg>