<svg xmlns="http://www.w3.org/2000/svg" viewBox="0 0 113.39 113.39"><defs><style>.cls-1{fill:none;}.cls-2{fill:#040000;}</style></defs><title>アセット 401</title><g id="レイヤー_2" data-name="レイヤー 2"><g id="waku"><rect class="cls-1" width="113.39" height="113.39"/></g><g id="編集モード"><path class="cls-2" d="M14.34,9.53,8.52,15.36,31.34,38.12a33.26,33.26,0,0,0-2.5,2.39c-.59.63-1.15,1.29-1.69,2-.27.34-.53.69-.79,1l-.38.54-.19.28-.22.33,4.34,3.19,0,0,0,0,.08-.08.18-.17.38-.35c.26-.23.52-.47.79-.69.54-.45,1.1-.89,1.68-1.3a26.85,26.85,0,0,1,3.36-2L47.92,54.65,38.09,74.82,17,74.35l-1.2,6.73,24,4.54A6.48,6.48,0,0,0,46,83.48L52.36,76a32.18,32.18,0,0,1,5.25,8.24,58.43,58.43,0,0,1,5.1,19.06c2.69.09,6.52.13,6.52.13a60.76,60.76,0,0,0-.6-17.63,45,45,0,0,0-3.81-11.77,59.43,59.43,0,0,0-3-5.54l37,36.94,5.82-5.84Z"/><circle class="cls-2" cx="68.89" cy="20.86" r="7.68" transform="translate(15.45 69.08) rotate(-58.91)"/><path class="cls-2" d="M67.29,46.91l10.54,3.48.88.29a3.89,3.89,0,0,0,4.19-1.19L94.83,35.23l-3.76-3.86L79.35,40.67,66,32.53h0a7.27,7.27,0,0,0-2.06-.86v0a25.45,25.45,0,0,0-5.46-1.09A41.91,41.91,0,0,0,53,30.25a39.91,39.91,0,0,0-5.42.44c-1.12.17-2.23.4-3.33.67l21,20.91Z"/></g></g></svg>