<svg xmlns="http://www.w3.org/2000/svg" viewBox="0 0 113.39 113.39"><defs><style>.cls-1{fill:none;}.cls-2{fill:#040000;}</style></defs><title>アセット 340</title><g id="レイヤー_2" data-name="レイヤー 2"><g id="waku"><rect class="cls-1" width="113.39" height="113.39"/></g><g id="編集モード"><path class="cls-2" d="M56.69,104.88a48.19,48.19,0,1,1,48.19-48.19A48.24,48.24,0,0,1,56.69,104.88Zm0-90.71A42.52,42.52,0,1,0,99.21,56.69,42.57,42.57,0,0,0,56.69,14.17Z"/><path class="cls-2" d="M50,31.6A6.51,6.51,0,0,1,52,26.92a6.64,6.64,0,0,1,9.48,0A6.73,6.73,0,1,1,50,31.6Z"/><rect class="cls-2" x="51.73" y="44.71" width="9.92" height="42.59"/></g></g></svg>