<svg xmlns="http://www.w3.org/2000/svg" viewBox="0 0 113.39 113.39"><defs><style>.cls-1{fill:none;}.cls-2{fill:#040000;}</style></defs><title>アセット 399</title><g id="レイヤー_2" data-name="レイヤー 2"><g id="waku"><rect class="cls-1" width="113.39" height="113.39"/></g><g id="編集モード"><path class="cls-2" d="M93.69,76.22a38.63,38.63,0,0,0-3.05-26.5,38.67,38.67,0,0,1-7.69,12.06c.87-9.66-1.78-17.11-8.68-25.7s-7.5-19.82-4-30.71C60.11,9.51,49,19.13,42.75,29.9L92.67,79.69C93.06,78.55,93.41,77.4,93.69,76.22Z"/><path class="cls-2" d="M14.28,9.53,8.46,15.36,37,43.81A57.26,57.26,0,0,0,35.66,64c-6.43-6.1-8.45-11.43-8.45-22.52A38.65,38.65,0,0,0,52.45,105.6c-4.67-1.64-8-6.24-8-14.29,0-10.33,12.25-24.08,12.25-24.08S68.94,81,68.94,91.31c0,7.71-3.05,12.26-7.42,14.08a38.38,38.38,0,0,0,14.15-4.92,38.82,38.82,0,0,0,9.84-8.27l13.31,13.27,5.82-5.84Z"/></g></g></svg>