<svg xmlns="http://www.w3.org/2000/svg" viewBox="0 0 113.39 113.39"><defs><style>.cls-1{fill:none;}.cls-2{fill:#040000;}</style></defs><title>アセット 395</title><g id="レイヤー_2" data-name="レイヤー 2"><g id="waku"><rect class="cls-1" width="113.39" height="113.39"/></g><g id="編集モード"><path class="cls-2" d="M83.26,25.32a12.24,12.24,0,0,1-.6,17.06l.12.13,4.67,5.1.14.15A4.2,4.2,0,0,1,95,50.52V63.76H102V50.52a11.31,11.31,0,0,0-9.44-11.14A19.26,19.26,0,0,0,73.7,14.26v7.07c.36,0,.72,0,1.09,0A12.15,12.15,0,0,1,83.26,25.32Z"/><polygon class="cls-2" points="83.57 70.66 90.66 77.72 90.66 68.02 83.57 68.02 83.57 70.66"/><rect class="cls-2" x="94.96" y="68.01" width="7.09" height="11.36"/><polygon class="cls-2" points="14.23 9.53 8.41 15.36 61.22 68.02 11.34 68.02 11.34 79.37 72.61 79.37 98.78 105.47 104.6 99.63 14.23 9.53"/><path class="cls-2" d="M68.63,52.84A17.79,17.79,0,0,0,75.27,55,10.65,10.65,0,0,1,80,56.75a8.27,8.27,0,0,1,3.61,7h7.09A15.94,15.94,0,0,0,89.61,58a15.48,15.48,0,0,0-6.15-7.43,17,17,0,0,0-3.86-1.82,18.55,18.55,0,0,0-3.41-.78c-3.44-.45-5-1.54-5.65-2.7A4.83,4.83,0,0,1,70,42.66H62.91A11.15,11.15,0,0,0,68.63,52.84Z"/></g></g></svg>