<svg xmlns="http://www.w3.org/2000/svg" viewBox="0 0 113.39 113.39"><defs><style>.cls-1{fill:none;}.cls-2{fill:#040000;}</style></defs><title>アセット 355</title><g id="レイヤー_2" data-name="レイヤー 2"><g id="waku"><rect class="cls-1" width="113.39" height="113.39"/></g><g id="編集モード"><path class="cls-2" d="M33.61,67.53l7.69,7.73a21.67,21.67,0,0,1,30.77,0l7.69-7.73a32.5,32.5,0,0,0-46.16,0Z"/><path class="cls-2" d="M56.69,47A43.32,43.32,0,0,1,87.47,59.8l7.69-7.73a54.18,54.18,0,0,0-76.94,0l7.69,7.73A43.32,43.32,0,0,1,56.69,47Z"/><path class="cls-2" d="M56.69,25.11a65,65,0,0,1,46.16,19.23l7.69-7.73a75.85,75.85,0,0,0-107.72,0l7.69,7.73A65,65,0,0,1,56.69,25.11Z"/><circle class="cls-2" cx="56.69" cy="90.7" r="8.5"/></g></g></svg>