<svg xmlns="http://www.w3.org/2000/svg" viewBox="0 0 113.39 113.39"><defs><style>.cls-1{fill:none;}.cls-2{fill:#040000;}</style></defs><title>アセット 371</title><g id="レイヤー_2" data-name="レイヤー 2"><g id="waku"><rect class="cls-1" width="113.39" height="113.39"/></g><g id="編集モード"><circle class="cls-2" cx="55.8" cy="14.18" r="8.51"/><path class="cls-2" d="M68.8,44.55c-1.2-7.56-4.17-13.56-8-16.1-2.83-1.9-6-2-9.24-1.15C46.24,28.65,42,32.82,39.7,37.73a20.23,20.23,0,0,0-1.42,12A20.8,20.8,0,0,0,40,55.23a21.78,21.78,0,0,0,5.42,7C43,68.67,42.52,76.29,42.52,85.05h7.86l1.16,22.66H60L61.2,85.05H79.38V70.87C79.38,59.25,76.69,51.57,68.8,44.55ZM48.71,56.69a9.89,9.89,0,0,1,0-13.86Z"/></g></g></svg>