<svg xmlns="http://www.w3.org/2000/svg" viewBox="0 0 113.39 113.39"><defs><style>.cls-1{fill:none;}.cls-2{fill:#040000;}</style></defs><title>アセット 372</title><g id="レイヤー_2" data-name="レイヤー 2"><g id="waku"><rect class="cls-1" width="113.39" height="113.39"/></g><g id="編集モード"><path class="cls-2" d="M47.15,85.24c.18-2.42,1.78-4.69,4.49-6.58l-10-8.78a17.25,17.25,0,0,0-6.19,12.62c-.41,7.12,2.56,12,9.11,19.06l7.29-5.74C47.86,91.5,47,87.85,47.15,85.24Z"/><path class="cls-2" d="M70.85,65.2v-10l14.45,7.65,5.24-6.24s-8.76-9.09-13.61-12.66c-5.37-4-11.74-7.13-20.24-7.13S41.83,40,36.46,43.93C31.6,47.51,22.85,56.6,22.85,56.6l5.24,6.24,14.45-7.65v10Z"/><path class="cls-2" d="M71.77,69.88l-10,8.78c2.71,1.9,4.31,4.17,4.49,6.58.2,2.6-.71,6.26-4.69,10.58l7.29,5.74C75.4,94.45,78.37,89.62,78,82.49A17.25,17.25,0,0,0,71.77,69.88Z"/><circle class="cls-2" cx="56.69" cy="19.84" r="12.76"/></g></g></svg>