<svg xmlns="http://www.w3.org/2000/svg" viewBox="0 0 113.39 113.39"><defs><style>.cls-1{fill:none;}.cls-2{fill:#040000;}</style></defs><title>アセット 400</title><g id="レイヤー_2" data-name="レイヤー 2"><g id="waku"><rect class="cls-1" width="113.39" height="113.39"/></g><g id="編集モード"><polygon class="cls-2" points="84.5 71.53 87.79 53.84 102.05 53.78 104.93 48.19 87.87 31.18 85.04 19.84 68.01 45.35 58.24 45.35 84.5 71.53"/><path class="cls-2" d="M27.74,45.38a5.79,5.79,0,0,1-3-.77,14.24,14.24,0,0,1-3.41-2.78,37.51,37.51,0,0,1-3.25-4.08l-7.8,3.38a47.87,47.87,0,0,0,1.94,6.17,26.7,26.7,0,0,0,3.53,6.35,20.38,20.38,0,0,0,6.5,5.56,21.33,21.33,0,0,0,3.27,1.43V99.21H36.8l3.61-19.37H64L67.6,99.21H79.33L81.41,88.1l17.42,17.37,5.82-5.84L14.28,9.53,8.46,15.36l30.08,30Z"/></g></g></svg>