<svg xmlns="http://www.w3.org/2000/svg" viewBox="0 0 113.39 113.39"><defs><style>.cls-1{fill:none;}.cls-2{fill:#040000;}</style></defs><title>アセット 396</title><g id="レイヤー_2" data-name="レイヤー 2"><g id="waku"><rect class="cls-1" width="113.39" height="113.39"/></g><g id="編集モード"><polygon class="cls-2" points="75.31 25.51 75.31 62.37 82.21 69.25 82.21 17.01 31.19 17.01 31.19 18.37 38.35 25.51 75.31 25.51"/><path class="cls-2" d="M82.21,77.25l-6.9-6.88L38.09,33.26l-6.9-6.88L14.29,9.53,8.47,15.36,31.19,38v61.2h51V88.89l16.62,16.58,5.82-5.84ZM56.7,95.68a3.54,3.54,0,1,1,3.54-3.54A3.54,3.54,0,0,1,56.7,95.68ZM75.31,85.07H38.09V44.89L75.31,82Z"/></g></g></svg>