<svg xmlns="http://www.w3.org/2000/svg" viewBox="0 0 113.39 113.39"><defs><style>.cls-1{fill:none;}.cls-2{fill:#040000;}</style></defs><title>アセット 339</title><g id="レイヤー_2" data-name="レイヤー 2"><g id="waku"><rect class="cls-1" width="113.39" height="113.39"/></g><g id="編集モード"><polygon class="cls-2" points="51.03 25.51 51.03 19.84 11.34 19.84 11.34 31.93 32.49 28.51 32.49 104.88 38.5 104.88 38.5 27.54 51.03 25.51"/><circle class="cls-2" cx="64.78" cy="21.04" r="7.92" transform="translate(7.17 57.37) rotate(-50.23)"/><path class="cls-2" d="M103.26,57.89a8.09,8.09,0,0,0-1.86-5.29L84.2,31.82a8.13,8.13,0,0,0-11.44-1.08c-.16.13-.3.27-.45.41h0l-.13.13-.06.06L61.8,41.72,50.29,32.39l-4,4L58.73,51.66a4.3,4.3,0,0,0,5.68.86l.82-.54,9.4-6.22L87.34,61.1l4.12,43.78h7.42l2.2-23.5,2.22-23.49Z"/></g></g></svg>