<svg xmlns="http://www.w3.org/2000/svg" viewBox="0 0 113.39 113.39"><defs><style>.cls-1{fill:none;}.cls-2{fill:#040000;}</style></defs><title>アセット 349</title><g id="レイヤー_2" data-name="レイヤー 2"><g id="waku"><rect class="cls-1" width="113.39" height="113.39"/></g><g id="編集モード"><circle class="cls-2" cx="80.8" cy="14.17" r="8.5"/><path class="cls-2" d="M73.71,26.77a8.5,8.5,0,0,0-8.5,8.5h0V74.21h5.66v33.5h8.5V74.21h2.83v33.5h8.5V74.21h5.68V35.27h0a8.5,8.5,0,0,0-8.5-8.5Z"/><circle class="cls-2" cx="34.07" cy="14.17" r="8.5"/><path class="cls-2" d="M42.56,48.7V35.51c0-.08,0-.16,0-.24a8.5,8.5,0,0,0-17,0V48.72C17,57.05,14.23,65.55,14.23,79.88H28.39v27.83H39.73V79.88H53.9C53.9,65.55,51,57,42.56,48.7Z"/></g></g></svg>