<svg xmlns="http://www.w3.org/2000/svg" viewBox="0 0 113.38 113.39"><defs><style>.cls-1{fill:none;}.cls-2{fill:#040000;}</style></defs><title>アセット 379</title><g id="レイヤー_2" data-name="レイヤー 2"><g id="waku"><rect class="cls-1" width="113.38" height="113.39"/></g><g id="編集モード"><path class="cls-2" d="M60.81,29.58a12.4,12.4,0,0,0,23.78,7h0l4.82-16.46L57,15.29l3.44,8-6.61,6.27Z"/><polygon class="cls-2" points="37.57 15.68 37.57 46.5 41.82 45.36 41.82 9.81 18.94 17.32 24.61 19.93 37.57 15.68"/><polygon class="cls-2" points="32.63 28.32 18.68 21.88 14.17 19.8 14.17 49.32 14.19 49.32 14.19 56.68 23.34 60.9 32.61 53.09 32.63 28.32"/><path class="cls-2" d="M52.2,77.41v27.47H93.54V62.26h0A11.27,11.27,0,0,0,82.28,51h-4.6l-6.34,9.51L65,51H61.91a8.93,8.93,0,0,0-6.57,2.45h0L43.11,65.93,33,58.29,26.6,63.72,38.38,79.77a6,6,0,0,0,8.18,1.44Z"/></g></g></svg>