<svg xmlns="http://www.w3.org/2000/svg" viewBox="0 0 113.39 113.39"><defs><style>.cls-1{fill:none;}.cls-2{fill:#040000;}</style></defs><title>アセット 348</title><g id="レイヤー_2" data-name="レイヤー 2"><g id="waku"><rect class="cls-1" width="113.39" height="113.39"/></g><g id="編集モード"><rect class="cls-2" x="8.66" y="63.9" width="56.69" height="5.67"/><circle class="cls-2" cx="86.66" cy="19.19" r="7.8"/><path class="cls-2" d="M81.08,31.18a7.32,7.32,0,0,0-6.11,4l-.15.28c0,.07-.08.14-.11.21-.57,1.17-1.17,2.32-1.8,3.46a51.71,51.71,0,0,1-4.16,6.42,28,28,0,0,1-3.83,4A44.24,44.24,0,0,1,60.24,53c-1.09.72-2.21,1.38-3.35,2l1.75,4.5c1.42-.44,2.81-.92,4.19-1.47a50.75,50.75,0,0,0,6-2.85A55.44,55.44,0,0,0,74,51.88V73.7h4.27v31.18h7.85V73.7h2.62v31.18h7.85V73.7h2.83V39h0a7.85,7.85,0,0,0-7.85-7.85Z"/><circle class="cls-2" cx="32.71" cy="19.19" r="7.8"/><path class="cls-2" d="M27.85,31.19A7.85,7.85,0,0,0,20,39h0V59.54H45.42V48.18l3.33,2.23a3.62,3.62,0,0,0,4.93-.87l9.77-13.32L59.9,33l-9.07,8.18-7.69-7.83h0a7.45,7.45,0,0,0-5.29-2.19Z"/></g></g></svg>