<svg xmlns="http://www.w3.org/2000/svg" viewBox="0 0 113.39 113.39"><defs><style>.cls-1{fill:none;}.cls-2{fill:#040000;}</style></defs><title>アセット 315</title><g id="レイヤー_2" data-name="レイヤー 2"><g id="waku"><rect class="cls-1" width="113.39" height="113.39"/></g><g id="編集モード"><path class="cls-2" d="M76,99.22,58.61,51.93c8.16-2.36,15.87-1.82,20.21,1.16l.13.09-.11-.27A13.44,13.44,0,0,1,81,47.62,20.59,20.59,0,0,1,91.12,40,21.19,21.19,0,0,1,102,38.91C90.7,20.34,66.53,12,44.12,20.13c0,0,19.57,4.08,31.14,25.26-6-1.42-13.52-.85-21.3,2s-13.78,7.14-17.48,12c-4.7-23.58,7.64-39.27,7.64-39.27-22.39,8.15-35.52,30-32.3,51.53a21.24,21.24,0,0,1,8.93-6.06,20.59,20.59,0,0,1,12.67-.66,13.35,13.35,0,0,1,5.18,2.79l0-.09c1.45-5,7-10.35,14.66-13.77L70,99.22H8.5v5.67h96.38V99.22Z"/></g></g></svg>