<svg xmlns="http://www.w3.org/2000/svg" viewBox="0 0 113.39 113.39"><defs><style>.cls-1{fill:none;}.cls-2{fill:#040000;}</style></defs><title>アセット 407</title><g id="レイヤー_2" data-name="レイヤー 2"><g id="waku"><rect class="cls-1" width="113.39" height="113.39"/></g><g id="編集モード"><path class="cls-2" d="M34.75,49H39V37.66A44,44,0,0,1,48,35V49h4.25V34.37c1.48-.14,3-.24,4.5-.24s3,.09,4.42.23V49h4.25v-14a44.09,44.09,0,0,1,8.92,2.65V49h4.25V39.67A34,34,0,0,1,89.3,49h6.78C89,36.55,73.73,28.47,56.74,28.47S24.51,36.55,17.4,49h6.78a34,34,0,0,1,10.57-9.21Z"/><polygon class="cls-2" points="110.63 85.04 97.29 53.21 16.15 53.21 2.86 85.04 110.63 85.04"/></g></g></svg>