<svg xmlns="http://www.w3.org/2000/svg" viewBox="0 0 113.39 113.39"><defs><style>.cls-1{fill:none;}.cls-2{fill:#040000;}</style></defs><title>アセット 342</title><g id="レイヤー_2" data-name="レイヤー 2"><g id="waku"><rect class="cls-1" width="113.39" height="113.39"/></g><g id="編集モード"><path class="cls-2" d="M39.65,34.12c-5.09,0-7.75-2.14-7.75-4.25s2.68-4.25,7.79-4.25l62.36,2.83V25.61l-60.8-5.53a20,20,0,0,0-3.83,0A14.75,14.75,0,0,0,30,22.72a9,9,0,0,0-3.79,7.14,8.49,8.49,0,0,0,1.17,4.25H8.51v3.05L39,53.57l-9,8.92L38.51,71h8L38,62.49,46.59,54h7.73l-8.56,8.53L54.27,71h8L53.8,62.49,62.36,54h0V34.12ZM44,45.45a2.83,2.83,0,1,1,2.83-2.83A2.81,2.81,0,0,1,44,45.45Z"/><polygon class="cls-2" points="61.76 89.43 68.64 101.8 82.02 91 77.92 83.6 61.76 89.43"/><path class="cls-2" d="M97.74,41.66c-7.34-5.79-16.62-7.54-32.53-7.54V54c1.55,0,3,.05,4.41.13l-8.43,8.4L69.7,71h8l-8.51-8.48,7.6-7.57C86,56.65,90.7,60.7,90.7,66.41c0,6.67-2.5,11.3-10.58,15.9l4.32,7.63A62.28,62.28,0,0,0,97.2,82c9.17-7.92,10.53-12.35,10.53-20.46S104.73,47.16,97.74,41.66Z"/></g></g></svg>