<svg xmlns="http://www.w3.org/2000/svg" viewBox="0 0 113.39 113.39"><defs><style>.cls-1{fill:none;}.cls-2{fill:#040000;}</style></defs><title>アセット 365</title><g id="レイヤー_2" data-name="レイヤー 2"><g id="waku"><rect class="cls-1" width="113.39" height="113.39"/></g><g id="編集モード"><path class="cls-2" d="M39.57,28.35h0a5.42,5.42,0,0,0-5.42,5.42h0V63.92L30,68H22.7a17,17,0,1,0,0,34H40.86L86.21,56.69h7.35a17,17,0,0,0,0-34H75.39L54,44V33.77h0a5.42,5.42,0,0,0-5.42-5.42ZM93.57,51h-9.7L38.51,96.37H22.7a11.33,11.33,0,1,1,0-22.67h9.68L77.74,28.35H93.57a11.33,11.33,0,1,1,0,22.67Z"/><circle class="cls-2" cx="44.08" cy="19.79" r="5.42"/></g></g></svg>