<svg xmlns="http://www.w3.org/2000/svg" viewBox="0 0 113.39 113.39"><defs><style>.cls-1{fill:none;}.cls-2{fill:#040000;}</style></defs><title>アセット 367</title><g id="レイヤー_2" data-name="レイヤー 2"><g id="waku"><rect class="cls-1" width="113.39" height="113.39"/></g><g id="編集モード"><path class="cls-2" d="M93.57,22.68H75.39L56.72,41.34V33.76h0a5.42,5.42,0,0,0-5.42-5.42h-9a5.42,5.42,0,0,0-5.42,5.42h0V61.21L30,68H22.7a17,17,0,1,0,0,34h5.67V96.37H22.7a11.33,11.33,0,1,1,0-22.67h9.68L77.74,28.35H93.57a11.33,11.33,0,0,1,0,22.67H87.9v5.67h5.67a17,17,0,0,0,0-34Z"/><polygon class="cls-2" points="84.42 64.67 59.56 89.53 59.56 68.07 53.9 68.07 53.9 99.21 84.99 99.21 84.99 93.54 63.57 93.54 88.43 68.68 84.42 64.67"/><circle class="cls-2" cx="46.79" cy="19.59" r="5.42"/></g></g></svg>