<svg xmlns="http://www.w3.org/2000/svg" viewBox="0 0 113.39 113.39"><defs><style>.cls-1{fill:none;}.cls-2{fill:#040000;}</style></defs><title>アセット 371</title><g id="レイヤー_2" data-name="レイヤー 2"><g id="waku"><rect class="cls-1" width="113.39" height="113.39"/></g><g id="編集モード"><path class="cls-2" d="M17,61.14h0a33,33,0,0,0,.49,5.67c.07.41.15.81.24,1.22,2.56,12,11.7,21.88,23.87,26.43v9h-4.8v4.25H76.54v-4.25H71.81v-9C84,89.91,93.12,80,95.68,68c.09-.4.17-.81.24-1.22a33,33,0,0,0,.49-5.67Z"/><path class="cls-2" d="M40.47,33.11l.29-.49s0,.11.1.14c12.74,7.79,16.24-7.54,30.09-3.07l.1.17,16.19,27h6.63l-25-41.66a14.17,14.17,0,0,0-24.32,0l-25,41.66h6.63Z"/></g></g></svg>