<svg xmlns="http://www.w3.org/2000/svg" viewBox="0 0 113.39 113.39"><defs><style>.cls-1{fill:none;}.cls-2{fill:#040000;}</style></defs><title>アセット 377</title><g id="レイヤー_2" data-name="レイヤー 2"><g id="waku"><rect class="cls-1" width="113.39" height="113.39"/></g><g id="編集モード"><path class="cls-2" d="M5.67,53.86V76.31c0,12.22,9.16,18.33,21.06,19.7v6.11H58.31V96a34.88,34.88,0,0,0,8.3-1.94V71.53c-1-3.09-3.22-10.1-5.43-17.67Z"/><path class="cls-2" d="M71.81,53.86"/><path class="cls-2" d="M68,19.84h0a8.51,8.51,0,0,0-8.1,5.91c0,.13-.07.25-.11.38s-.11.45-.16.68,0,.28-.07.43a8.78,8.78,0,0,0-.08,1.1h0a48.3,48.3,0,0,0,1.58,9c1.18,4.94,2.88,11,4.53,16.56,1.43,4.86,2.83,9.38,3.82,12.54l1,3,.45,1.42h0V102H96.29V70.87h0l.45-1.42c.92-2.9,3.12-9.88,5.31-17.38C103.53,47,105,41.72,106,37.3a48.3,48.3,0,0,0,1.58-9h0a8.8,8.8,0,0,0-.08-1.1c0-.14,0-.29-.07-.43s-.09-.46-.15-.67-.07-.26-.11-.39a8.54,8.54,0,0,0-8.1-5.9h0l-2.2,19.84L93.61,69.45l-.16,1.42H89.86l.1-1.42,3.44-49.61H85.7v51H81.45v-51h-7.7l3.54,51H73.7Z"/></g></g></svg>