<svg xmlns="http://www.w3.org/2000/svg" viewBox="0 0 113.39 113.39"><defs><style>.cls-1{fill:none;}.cls-2{fill:#040000;}</style></defs><title>アセット 338</title><g id="レイヤー_2" data-name="レイヤー 2"><g id="waku"><rect class="cls-1" width="113.39" height="113.39"/></g><g id="編集モード"><path class="cls-2" d="M110.55,73.48l-5.65-15.82,5.65-16.16L95.75,55A78.52,78.52,0,0,0,87,48.14l7.46-12a65.8,65.8,0,0,0-14.06,7.89c-1.67-.93-3.44-1.83-5.31-2.69l-29-15.86L39,36.94C19.65,41.29,5.52,54.87,4.82,55.55l-2,1.94,2,1.94c.83.81,20.72,19.94,45.77,19.94,11.48,0,21.87-4,29.84-8.45a65.82,65.82,0,0,0,14.06,7.89L87,66.84a76.7,76.7,0,0,0,9-7.15Zm-60,.45c-18.27,0-34.1-11.72-39.73-16.44l0,0c1.15-.62,16.41-8.61,39.69-8.61,22.78,0,37.91,7.65,39.62,8.56l.11.09C84.68,62.22,68.86,73.93,50.59,73.93Z"/><circle class="cls-2" cx="25.55" cy="57.49" r="2.83"/></g></g></svg>