<svg xmlns="http://www.w3.org/2000/svg" viewBox="0 0 113.39 113.39"><defs><style>.cls-1{fill:none;}.cls-2{fill:#040000;}</style></defs><title>アセット 350</title><g id="レイヤー_2" data-name="レイヤー 2"><g id="waku"><rect class="cls-1" width="113.39" height="113.39"/></g><g id="編集モード"><path class="cls-2" d="M99.23,20.34A6.2,6.2,0,0,0,93,14.14H63A6.2,6.2,0,0,0,58.6,24.74l5.4,5.4a23.85,23.85,0,0,0-4.25-.37A23.68,23.68,0,0,0,36.19,53.57a23.94,23.94,0,0,0,.4,4.19l-7-7L14.15,66.17l14.5,14.49L14.14,95.18l4,4L32.66,84.67,47.21,99.21,62.63,83.79l-7.05-7a23.91,23.91,0,0,0,4.29.39H60A23.68,23.68,0,0,0,83.55,53.33a24,24,0,0,0-.37-4l5.47,5.47a6.2,6.2,0,0,0,10.59-4.39ZM59.87,71.46A17.86,17.86,0,0,1,49.31,68a16.77,16.77,0,0,1-4-4A18,18,0,0,1,59.78,35.44h.09a17.86,17.86,0,0,1,10.56,3.44,16.78,16.78,0,0,1,4,4A18,18,0,0,1,60,71.46Z"/></g></g></svg>