<svg xmlns="http://www.w3.org/2000/svg" viewBox="0 0 113.39 113.39"><defs><style>.cls-1{fill:none;}.cls-2{fill:#040000;}</style></defs><title>アセット 343</title><g id="レイヤー_2" data-name="レイヤー 2"><g id="waku"><rect class="cls-1" width="113.39" height="113.39"/></g><g id="編集モード"><path class="cls-2" d="M95.27,28.49l-15.19-10a10.66,10.66,0,0,0-11.21.12l-15,10.32a21.23,21.23,0,0,0-8.49,10.6L61,49.8l0,0a25.68,25.68,0,0,0,13.43,3.3c8.86-.1,16.33-3.92,19-9.74l3,1.41c-3.24,7-11.88,11.57-22,11.68h-.4a32.89,32.89,0,0,1-6.1-.56,21.19,21.19,0,0,1,4.66,9.72c.61,0,1.22.05,1.84.05H75c16.75-.18,26.75-8.81,29.24-17.27C106.39,41,103,33.6,95.27,28.49ZM74.62,46.41h-.24c-6.34,0-11.79-2.81-13.94-7.19l3-1.48c1.22,2.49,4.86,5.39,11.13,5.31,5.15-.06,9.47-2.24,11-5.56l3,1.41C86.56,43.4,81.06,46.34,74.62,46.41Z"/><path class="cls-2" d="M68.23,65.19c-1.16-4.38-4.28-8.43-9.09-11.6L44.66,44.07l-.71-.47a8.58,8.58,0,0,0-1.34-.7,10.09,10.09,0,0,0-2.06-.61,11.11,11.11,0,0,0-2.1-.22,10.12,10.12,0,0,0-5.71,1.66L17.77,54C10.15,59.3,7,66.77,9.22,74,12.33,84,24,90.74,38.34,90.74h.53c16.75-.18,26.75-8.81,29.23-17.27a15.6,15.6,0,0,0,.63-4,15,15,0,0,0-.1-2.13A15.27,15.27,0,0,0,68.23,65.19ZM27.48,63c1.61,3.28,6,5.36,11.13,5.31,6.26-.07,9.84-3,11-5.56l3,1.41c-2.08,4.48-7.58,7.43-14,7.5h-.23c-6.34,0-11.8-2.81-13.95-7.19ZM38.76,81.72h-.39c-10,0-18.55-4.37-21.9-11.19l3-1.48c2.79,5.68,10.18,9.32,18.88,9.32h.35c8.86-.1,16.33-3.92,19-9.74l3,1.41C57.56,77,48.91,81.61,38.76,81.72Z"/></g></g></svg>