<svg xmlns="http://www.w3.org/2000/svg" viewBox="0 0 113.39 113.39"><defs><style>.cls-1{fill:none;}.cls-2{fill:#040000;}</style></defs><title>アセット 356</title><g id="レイヤー_2" data-name="レイヤー 2"><g id="waku"><rect class="cls-1" width="113.39" height="113.39"/></g><g id="編集モード"><rect class="cls-2" x="11.35" y="85.04" width="93.54" height="19.84"/><polygon class="cls-2" points="49.62 13.07 49.62 19.83 104.89 19.81 104.89 11.34 49.62 13.07"/><polygon class="cls-2" points="21.27 13.95 14.19 14.17 14.19 19.84 21.27 19.84 21.27 13.95"/><polygon class="cls-2" points="21.27 22.68 14.19 22.68 14.19 28.46 21.27 28.67 21.27 22.68"/><polygon class="cls-2" points="49.62 29.52 104.89 31.18 104.89 22.68 49.62 22.68 49.62 29.52"/><path class="cls-2" d="M29.78,11.34H24.11V72c1.83-.88,3.72-1.69,5.67-2.42Z"/><path class="cls-2" d="M38.28,11.34H32.61v57.2q2.78-.92,5.67-1.64Z"/><path class="cls-2" d="M46.79,11.34H41.12V66.25q2.8-.59,5.67-1Z"/><path class="cls-2" d="M58.12,68.74c-15.89,0-30.46,4.7-40.61,12h9.43c7.79-4.32,19-7.09,31.18-7.09s23.39,2.76,31.18,7.09h9.43C88.58,73.44,74,68.74,58.12,68.74Z"/></g></g></svg>