<svg xmlns="http://www.w3.org/2000/svg" viewBox="0 0 113.39 113.39"><defs><style>.cls-1{fill:none;}.cls-2{fill:#040000;}</style></defs><title>アセット 351</title><g id="レイヤー_2" data-name="レイヤー 2"><g id="waku"><rect class="cls-1" width="113.39" height="113.39"/></g><g id="編集モード"><path class="cls-2" d="M8.5,78.78A11.91,11.91,0,0,0,20.38,90.71H93a11.91,11.91,0,0,0,11.87-11.92V67.95H8.5Z"/><path class="cls-2" d="M59.12,46.46,53,42.54a13,13,0,0,0-7-2,13.39,13.39,0,0,0-5.77,1.31L16.51,53.16q.34-1,.72-1.9t.85-2c5.73-12.41,17.81-23.84,38.61-23.84,13.13,0,22.77,4.56,29.55,11a14.39,14.39,0,0,0-1.86-.13A14.82,14.82,0,0,0,71,45.07q-.29.64-.52,1.31t-.39,1.35a11.86,11.86,0,0,0-3.24-.41,14.6,14.6,0,0,0-5.77,1.31L29.48,63.74h75.41A50.41,50.41,0,0,0,93.62,36.3c-6.25-7.51-17.74-16.46-36.93-16.46S26,28.79,19.76,36.3a50.64,50.64,0,0,0-10,19.88,48,48,0,0,0-1,5.13c-.11.81-.19,1.62-.26,2.42H23Zm34.41,4.23-7.37,2.46-2.35,6.65L81.7,53.09l-7-2.33,6.86-2.29L84.18,41l2.32,7.4Z"/></g></g></svg>