<svg xmlns="http://www.w3.org/2000/svg" viewBox="0 0 113.39 113.39"><defs><style>.cls-1{fill:none;}.cls-2{fill:#040000;}</style></defs><title>アセット 357</title><g id="レイヤー_2" data-name="レイヤー 2"><g id="waku"><rect class="cls-1" width="113.39" height="113.39"/></g><g id="編集モード"><path class="cls-2" d="M38.25,97.86v9.86H75V97.86c21.32-11.34,29.75-26.89,29.75-44H8.5C8.5,71,16.93,86.52,38.25,97.86Z"/><polygon class="cls-2" points="49.61 13.07 49.61 19.83 104.88 19.81 104.88 11.34 49.61 13.07"/><polygon class="cls-2" points="21.26 13.95 14.17 14.17 14.17 19.84 21.26 19.84 21.26 13.95"/><polygon class="cls-2" points="21.26 22.68 14.17 22.68 14.17 28.46 21.26 28.67 21.26 22.68"/><polygon class="cls-2" points="49.61 29.52 104.88 31.18 104.88 22.68 49.61 22.68 49.61 29.52"/><rect class="cls-2" x="24.09" y="11.34" width="5.67" height="38.27"/><rect class="cls-2" x="32.6" y="11.34" width="5.67" height="38.27"/><rect class="cls-2" x="41.1" y="11.34" width="5.67" height="38.27"/></g></g></svg>