<svg xmlns="http://www.w3.org/2000/svg" viewBox="0 0 113.39 113.39"><defs><style>.cls-1{fill:none;}.cls-2{fill:#040000;}</style></defs><title>アセット 344</title><g id="レイヤー_2" data-name="レイヤー 2"><g id="waku"><rect class="cls-1" width="113.39" height="113.39"/></g><g id="編集モード"><path class="cls-2" d="M97.47,60.83a24.54,24.54,0,0,0,3-5.79c3.1-8.49,1.24-17-4.17-19S84,39.4,80.92,47.89a24.54,24.54,0,0,0-1.42,6.37,27.67,27.67,0,0,0-8,4.46,6,6,0,0,0,4.94,10.39,61.69,61.69,0,0,1-2.79,5.69,55.67,55.67,0,0,1-5.93,8.32,44,44,0,0,1-7.5,6.63,31.93,31.93,0,0,1-18.16,6c-6.29,0-12.18-2.54-15.72-7.1a18.56,18.56,0,0,1-3.57-8.11A28.16,28.16,0,0,1,22.69,71,37.87,37.87,0,0,1,26,61.53a66.69,66.69,0,0,1,5.74-9.06A154.08,154.08,0,0,1,46.63,35.66c.78-.78,1.58-1.55,2.37-2.32C52.52,31.18,65.36,23.25,68.67,20c3.84-3.79,4.09-9.77.55-13.36S59.7,3.21,55.86,7c-3.29,3.24-11.31,15.84-13.56,19.43-.81.75-1.63,1.49-2.43,2.25A163.61,163.61,0,0,0,23.48,46.2c-.63.81-1.27,1.6-1.88,2.43l-1.77,2.56-.88,1.28-.81,1.36-1.61,2.73a48.57,48.57,0,0,0-4.61,12.32,39.32,39.32,0,0,0-.29,13.59A30.06,30.06,0,0,0,17,95.59a29.61,29.61,0,0,0,11.11,9.14A34,34,0,0,0,41.73,108a44.43,44.43,0,0,0,25.59-7.47,57,57,0,0,0,10.11-8.45A68.84,68.84,0,0,0,85.28,81.7a76,76,0,0,0,4.35-8.46,6,6,0,0,0,11.1-3.82A27.68,27.68,0,0,0,97.47,60.83Z"/></g></g></svg>