<svg xmlns="http://www.w3.org/2000/svg" viewBox="0 0 113.39 113.39"><defs><style>.cls-1{fill:none;}.cls-2{fill:#040000;}</style></defs><title>アセット 372</title><g id="レイヤー_2" data-name="レイヤー 2"><g id="waku"><rect class="cls-1" width="113.39" height="113.39"/></g><g id="編集モード"><path class="cls-2" d="M87.15,95.74,19.84,97.09v4.25l67.31,1.35a3.47,3.47,0,0,0,3.54-3.49h0A3.47,3.47,0,0,0,87.15,95.74Z"/><path class="cls-2" d="M95.38,39.43A20.33,20.33,0,0,0,76,25.39a20.32,20.32,0,0,0-38.65,0A20.32,20.32,0,0,0,25.44,62.15,20.32,20.32,0,0,0,56.72,84.87,20.32,20.32,0,0,0,88,62.15,20.33,20.33,0,0,0,95.38,39.43ZM56.75,34a2.13,2.13,0,0,1,2.11,2.14c0,1.17-2.18,6.36-2.18,6.36S54.6,37.3,54.6,36.13A2.13,2.13,0,0,1,56.75,34ZM42.83,42.76a2.12,2.12,0,0,1,0-3l0,0a2.13,2.13,0,0,1,3,0c.76.78,2.65,5.28,2.92,5.95l0,.09S43.66,43.59,42.83,42.76ZM56.72,57.81a4.15,4.15,0,1,1,4.16-4.15A4.16,4.16,0,0,1,56.72,57.81Zm13.88-15c-.78.76-5.28,2.65-5.95,2.92l-.09,0s2.22-5.17,3.05-6a2.12,2.12,0,0,1,3,0l0,0A2.13,2.13,0,0,1,70.6,42.8Z"/></g></g></svg>