<svg xmlns="http://www.w3.org/2000/svg" viewBox="0 0 113.39 113.39"><defs><style>.cls-1{fill:none;}.cls-2{fill:#040000;}</style></defs><title>アセット 354</title><g id="レイヤー_2" data-name="レイヤー 2"><g id="waku"><rect class="cls-1" width="113.39" height="113.39"/></g><g id="編集モード"><path class="cls-2" d="M91.95,25.16,85.49,24l2.06-11.71-5.58-1L79.9,23l-5.82-1a7.12,7.12,0,0,0-1.24-.11h0a7.08,7.08,0,0,0-7,5.85l-1.17,6.6a7.09,7.09,0,0,0,2.6,6.8,7.07,7.07,0,0,0-4.76,5.49l-1.17,6.6A7.09,7.09,0,0,0,64,60a7.07,7.07,0,0,0-4.76,5.49L58,72.13a7.09,7.09,0,0,0,5.74,8.22l5.84,1-3.47,19.69,5.58,1,3.47-19.69,6.44,1.14a7.08,7.08,0,0,0,8.22-5.74L91,71.17a7,7,0,0,0-1.17-5.3,7.11,7.11,0,0,0-1.42-1.51,7.07,7.07,0,0,0,4.75-5.49l1.17-6.6a7.09,7.09,0,0,0-2.6-6.8A7.07,7.07,0,0,0,96.51,40l1.17-6.6A7.09,7.09,0,0,0,91.95,25.16ZM82.88,79.38a2.85,2.85,0,0,1-.5,0l-6.44-1.14-5.58-1-5.83-1a2.83,2.83,0,0,1-2.3-3.29l1.17-6.6A2.83,2.83,0,0,1,66.68,64l5.82,1,5.58,1,6.46,1.15a2.83,2.83,0,0,1,2.3,3.29L85.66,77A2.84,2.84,0,0,1,82.88,79.38Zm6.66-37.79a2.85,2.85,0,0,1-.5,0L82.6,40.39,77,39.4l-5.83-1a2.83,2.83,0,0,1-2.3-3.29l1.17-6.6a2.83,2.83,0,0,1,3.29-2.3l5.82,1,5.58,1,6.46,1.15a2.83,2.83,0,0,1,2.3,3.29l-1.17,6.6A2.84,2.84,0,0,1,89.54,41.58Z"/><path class="cls-2" d="M50.94,25.16,44.47,24l2.06-11.71-5.58-1L38.89,23l-5.81-1a7.12,7.12,0,0,0-1.24-.11h0a7.08,7.08,0,0,0-7,5.85l-1.17,6.6a7.09,7.09,0,0,0,2.6,6.8,7.07,7.07,0,0,0-4.76,5.49l-1.17,6.6A7.09,7.09,0,0,0,23,60a7.07,7.07,0,0,0-4.76,5.49L17,72.13a7.09,7.09,0,0,0,5.74,8.22l5.84,1-3.47,19.69,5.58,1,3.47-19.69,6.44,1.14a7.08,7.08,0,0,0,8.22-5.74L50,71.17a7,7,0,0,0-1.17-5.3,7.11,7.11,0,0,0-1.42-1.51,7.07,7.07,0,0,0,4.75-5.49l1.17-6.6a7.09,7.09,0,0,0-2.6-6.8A7.07,7.07,0,0,0,55.5,40l1.17-6.6A7.09,7.09,0,0,0,50.94,25.16ZM45.2,60.48a2.85,2.85,0,0,1-.5,0l-6.44-1.14-5.58-1-5.83-1A2.83,2.83,0,0,1,24.55,54l1.17-6.6A2.83,2.83,0,0,1,29,45.08l5.82,1,5.58,1,6.46,1.15a2.83,2.83,0,0,1,2.3,3.29L48,58.14A2.84,2.84,0,0,1,45.2,60.48Z"/></g></g></svg>