<svg xmlns="http://www.w3.org/2000/svg" viewBox="0 0 113.39 113.39"><defs><style>.cls-1{fill:none;}.cls-2{fill:#040000;}</style></defs><title>アセット 287</title><g id="レイヤー_2" data-name="レイヤー 2"><g id="waku"><rect class="cls-1" width="113.39" height="113.39"/></g><g id="編集モード"><path class="cls-2" d="M68,17H45.35V40.19q-1.77.32-3.47.71C28.47,44,18.69,50.29,11.37,55.38V65.2c7.69-5.13,22.57-12.76,45.3-12.77h.05c22.72,0,37.6,7.63,45.3,12.77V55.38C94.7,50.29,84.91,44,71.5,40.9q-1.69-.39-3.46-.71ZM56.69,23.39a5,5,0,1,1-5,5A5,5,0,0,1,56.69,23.39Z"/><path class="cls-2" d="M56.69,56.68h0c-24.47,0-39.18,9.07-45.3,13.72V82.21c13.31-3.85,27.53-6,45.3-6h.05c17.76,0,32,2.17,45.3,6V70.4c-6.11-4.64-20.82-13.71-45.3-13.72Z"/><path class="cls-2" d="M102,93.54v-6.9c-13.26-4-27.42-6.21-45.3-6.21h-.05c-17.88,0-32,2.23-45.3,6.21v6.9Z"/></g></g></svg>