<svg xmlns="http://www.w3.org/2000/svg" viewBox="0 0 113.39 113.39"><defs><style>.cls-1{fill:none;}.cls-2{fill:#040000;}</style></defs><title>アセット 289</title><g id="レイヤー_2" data-name="レイヤー 2"><g id="waku"><rect class="cls-1" width="113.39" height="113.39"/></g><g id="編集モード"><path class="cls-2" d="M24.13,52.65c-2.41,2-5.93.65-7.05-5.71v1.51c0,9.93,3.88,15.66,9.09,13,6.55-3.36,3.65-15.69,12.38-14.14a68.49,68.49,0,0,0,11.86.9h3.46l-.46-3.43c-1.29-9.56-6.5-14.3-10.64-16.59a25.09,25.09,0,0,0-19.62-1.48c-1.48-4.92-3.26-7,.52-16-7.61,6-8.34,14.89-4.27,22.22C25.41,43.7,26.54,50.68,24.13,52.65ZM39.84,33.46A14.45,14.45,0,0,1,46.63,42c-9.55-.73-17.11-4.23-21-9.74A19.09,19.09,0,0,1,39.84,33.46Z"/><path class="cls-2" d="M94,32.86c4.07-7.33,3.33-16.17-4.27-22.22,3.78,9,2,11.13.52,16a25.09,25.09,0,0,0-19.62,1.48c-4.14,2.29-9.36,7-10.64,16.59l-.46,3.43H63a68.49,68.49,0,0,0,11.86-.9c8.74-1.55,5.84,10.78,12.38,14.14,5.21,2.68,9.09-3,9.09-13V46.94c-1.12,6.36-4.65,7.68-7.05,5.71S88,43.7,94,32.86Zm-6.24-.61c-3.88,5.52-11.44,9-21,9.74a14.45,14.45,0,0,1,6.78-8.54A19.09,19.09,0,0,1,87.76,32.26Z"/><path class="cls-2" d="M56.69,76.54c-6.6,0-12.57,3-15.59,7.75l4.81,3.59c1.92-3,6.15-5,10.78-5s8.86,2,10.78,5l4.81-3.59C69.26,79.5,63.29,76.54,56.69,76.54Z"/><path class="cls-2" d="M85.42,72.06c-4.63-1.36-7.84-4.35-10.91-8.19-3.82-4.77-7.75-9.68-12.92-10.67l-.23,0c-.21,0-.43-.07-.64-.1a9.5,9.5,0,0,0-1-.06c1.76,0,3.38,5.59,3.38,7.92,0,1.75-.58,3.68-2.45,4.5a10,10,0,0,1-3.95.58,10,10,0,0,1-3.95-.58c-1.87-.82-2.45-2.75-2.45-4.5,0-2.33,1.62-7.92,3.38-7.92a9.5,9.5,0,0,0-1,.06c-.22,0-.43.06-.64.1l-.23,0c-5.16,1-9.1,5.89-12.92,10.67C35.8,67.71,32.59,70.7,28,72.06c-5.08,1.49-11-3.49-11-4.52v.3c.17,3.55,3.4,10.27,12.56,10.27,5.75,0,10-5.32,14.11-10.46a21.08,21.08,0,0,0,1.62-2.41A9.83,9.83,0,0,0,50.13,71a14.09,14.09,0,0,0,6.56,1.23h0A14.09,14.09,0,0,0,63.25,71a9.83,9.83,0,0,0,4.92-5.74,21.08,21.08,0,0,0,1.62,2.41c4.11,5.14,8.37,10.46,14.11,10.46,9.16,0,12.39-6.72,12.56-10.27v-.3C96.38,68.57,90.49,73.55,85.42,72.06Z"/><path class="cls-2" d="M46.77,98.83c4.19,2.71,6.5,3.22,9.92,3.22s5.73-.51,9.92-3.22l-9.94-8.12Z"/></g></g></svg>