<svg xmlns="http://www.w3.org/2000/svg" viewBox="0 0 113.39 113.39"><defs><style>.cls-1{fill:none;}.cls-2{fill:#040000;}</style></defs><title>アセット 293</title><g id="レイヤー_2" data-name="レイヤー 2"><g id="waku"><rect class="cls-1" width="113.39" height="113.39"/></g><g id="編集モード"><path class="cls-2" d="M59.21,42.38a16.91,16.91,0,0,0,14-20.81l27.1-13.65L97.73,2.84l-26.8,13.5A17,17,0,1,0,45.34,38.23v17h8.5V47.79C53.84,44.59,56.3,42.77,59.21,42.38ZM56.68,14.25A11.27,11.27,0,0,1,67.85,27.43a8.08,8.08,0,0,1-5.51,2.13c-5.31,0-5.31-4-10.63-4-3.16,0-4.44,1.4-6.08,2.54a11.3,11.3,0,0,1,11-13.88Z"/><path class="cls-2" d="M19.84,82.21c0,12.34,9.16,18.51,21.06,19.9v5.7H72.49v-5.7c11.89-1.39,21.06-7.55,21.06-19.9V59.53H19.84Z"/></g></g></svg>