<svg xmlns="http://www.w3.org/2000/svg" viewBox="0 0 113.39 113.39"><defs><style>.cls-1{fill:none;}.cls-2{fill:#040000;}</style></defs><title>アセット 304</title><g id="レイヤー_2" data-name="レイヤー 2"><g id="waku"><rect class="cls-1" width="113.39" height="113.39"/></g><g id="編集モード"><path class="cls-2" d="M16.55,67.35l8.22,7.81L10.43,90.25a7,7,0,0,0,10.13,9.63L34.89,84.79l8,7.59,5.75-6-26.33-25Z"/><path class="cls-2" d="M103,90.25,88.62,75.16l8.22-7.81-5.74-6-26.33,25,5.75,6,8-7.59L92.83,99.87a7,7,0,0,0,9.88.25h0A7,7,0,0,0,103,90.25Z"/><path class="cls-2" d="M80.92,66.86,66,51.18A126.71,126.71,0,0,0,87.87,8.56h0L56.69,41.37,25.51,8.56h0A126.71,126.71,0,0,0,47.37,51.18L32.46,66.86l10.23,9.72,14-14.73,14,14.73Z"/></g></g></svg>