<svg xmlns="http://www.w3.org/2000/svg" viewBox="0 0 113.39 113.39"><defs><style>.cls-1{fill:none;}.cls-2{fill:#040000;}</style></defs><title>アセット 291</title><g id="レイヤー_2" data-name="レイヤー 2"><g id="waku"><rect class="cls-1" width="113.39" height="113.39"/></g><g id="編集モード"><path class="cls-2" d="M41.11,58.68,37.33,54.6,9.57,80.41l3.81,4.12,5.81-5.43s.81,1.93.9,2.13a29.17,29.17,0,0,0,3.47,5.86,16.36,16.36,0,0,0,6.28,5.07,39.66,39.66,0,0,0,9.24,2.38,193.14,193.14,0,0,0,25.43,1.83,113.61,113.61,0,0,0,31.13-3.93c8.66-2.54,15.09-16.84,14.92-35.94-.17-18.64-6.95-33.59-16-35.83-1-.24-1.27-.36-9.9-1.85a136,136,0,0,0-30.13-1.57,209,209,0,0,0-22.07,3c-4,.72-6.35,2-9.47,6.15A33.54,33.54,0,0,0,18,36.63a59,59,0,0,0-2.26,10.53,71.89,71.89,0,0,0-.55,8.72l4.86-4.54c.49-7.42,2-15.59,6.43-21.78,1.38-1.94,3.47-4.33,6.07-4.35h0c5.39,0,13,11.91,13.19,31.31S38.55,88.06,33.11,88.06c-2.34,0-4.28-1.73-6.6-5a31,31,0,0,1-3.6-7.46Z"/><polygon class="cls-2" points="2.86 73.07 6.71 77.24 34.55 51.35 30.7 47.18 2.86 73.07"/></g></g></svg>