<svg xmlns="http://www.w3.org/2000/svg" viewBox="0 0 113.39 113.39"><defs><style>.cls-1{fill:none;}.cls-2{fill:#040000;}</style></defs><title>アセット 300</title><g id="レイヤー_2" data-name="レイヤー 2"><g id="waku"><rect class="cls-1" width="113.39" height="113.39"/><rect class="cls-1" width="113.39" height="113.39"/></g><g id="編集モード"><path class="cls-2" d="M56.69,82.9"/><path class="cls-2" d="M56.69,83.68C62.27,82.71,85,71.87,85,55.54c0-11.16-9.86-20.82-28.34-20.82v0c-18.48,0-28.34,9.66-28.34,20.82C28.35,71.87,51.12,82.71,56.69,83.68ZM42.64,64s-2.83-3.34-3.12-7c-.26-3.23.83-6.24,3.12-7.67Zm31.23-7c-.29,3.68-3.12,7-3.12,7V49.35C73,50.78,74.13,53.79,73.87,57Z"/><path class="cls-2" d="M67.32,19.84A10.63,10.63,0,1,1,56.69,9.21,10.63,10.63,0,0,1,67.32,19.84"/><path class="cls-2" d="M69.48,102a38.35,38.35,0,0,0,14.42-2.6h0a10.47,10.47,0,0,0,6.81-9.69A10.68,10.68,0,0,0,79.82,79.28a11.13,11.13,0,0,0-6.45,2h0c-6.1,3.63-11.18,6.34-16.67,7.85A59.27,59.27,0,0,1,40,81.32h0a11.13,11.13,0,0,0-6.45-2A10.68,10.68,0,0,0,22.68,89.74a10.47,10.47,0,0,0,6.81,9.7h0A39,39,0,0,0,45,102Z"/></g></g></svg>