<svg xmlns="http://www.w3.org/2000/svg" viewBox="0 0 113.39 113.39"><defs><style>.cls-1{fill:none;}.cls-2{fill:#040000;}</style></defs><title>アセット 306</title><g id="レイヤー_2" data-name="レイヤー 2"><g id="waku"><rect class="cls-1" width="113.39" height="113.39"/></g><g id="編集モード"><path class="cls-2" d="M18.89,26.63A54.81,54.81,0,0,0,8.5,28.54l1.25,5.76a29.91,29.91,0,0,1,9.92-.41A12.08,12.08,0,0,1,18.89,26.63Z"/><path class="cls-2" d="M88,49.44a12.15,12.15,0,0,1-2.72,12c0,.06,0,.13,0,.19a79.19,79.19,0,0,0,19.63,11V56.14A80.44,80.44,0,0,1,88,49.44Z"/><path class="cls-2" d="M20.08,73.46a5.67,5.67,0,0,0,8,0c2.21-2.21,4-12,4-12s-9.81,1.79-12,4A5.67,5.67,0,0,0,20.08,73.46Z"/><path class="cls-2" d="M78.05,90.47a5.67,5.67,0,0,0,8,0c2.21-2.21,4-12,4-12s-9.81,1.79-12,4A5.67,5.67,0,0,0,78.05,90.47Z"/><path class="cls-2" d="M41.59,84.11s1.79,9.81,4,12a5.67,5.67,0,0,0,8-8C51.4,85.9,41.59,84.11,41.59,84.11Z"/><path class="cls-2" d="M55.88,26.32a8.83,8.83,0,0,0-8.36-6.07,8.8,8.8,0,0,0-16.72,0,8.83,8.83,0,0,0-8.36,6.07c0,.06,0,.11,0,.17A8.76,8.76,0,0,0,23,33.15l.14.25a8.81,8.81,0,0,0,2.46,2.76A8.8,8.8,0,0,0,39.15,46a8.77,8.77,0,0,0,3.38,1.49l.29.06a8.8,8.8,0,0,0,9.86-11.38,8.84,8.84,0,0,0,3.2-9.83ZM39.15,34.46a3.54,3.54,0,1,1,3.54-3.54A3.54,3.54,0,0,1,39.15,34.46Z"/><path class="cls-2" d="M93.46,20.4a8.83,8.83,0,0,0-8.36-6.07,8.8,8.8,0,0,0-16.72,0,8.78,8.78,0,0,0-7.77,12.9l.14.25a8.78,8.78,0,0,0,2.46,2.76,8.93,8.93,0,0,0,.07,5.64,12.05,12.05,0,0,1,2.9-.81l.37-.06.25,0a11.55,11.55,0,0,1,3.17.11l.3,0a12.06,12.06,0,0,1,3.54,1.25q.52.29,1,.62l.2.15a12.15,12.15,0,0,1,3.58,4l.61.22.76.21.14,0,.29.06a8.8,8.8,0,0,0,9.86-11.38,8.83,8.83,0,0,0,3.2-9.83ZM76.74,28.54A3.54,3.54,0,1,1,80.28,25,3.54,3.54,0,0,1,76.74,28.54Z"/><path class="cls-2" d="M84.76,50.4a8.84,8.84,0,0,0-5.67-5.64l-.72-.2a8.73,8.73,0,0,0-2-.23h0l-.08-.22c-.06-.16-.11-.32-.17-.48A8.78,8.78,0,0,0,74.6,41.2h0l-.07-.07a8.78,8.78,0,0,0-12.41-.58l-.18.16c-.14.13-.27.27-.4.42a8.77,8.77,0,0,0-1.87,3.2,8.78,8.78,0,0,0-7.77,12.9l.14.25a8.78,8.78,0,0,0,2.46,2.76A8.8,8.8,0,0,0,68,70.06a8.77,8.77,0,0,0,3.38,1.49l.29.06a8.8,8.8,0,0,0,9.86-11.38,8.83,8.83,0,0,0,3.2-9.83ZM68,58.53A3.54,3.54,0,1,1,71.57,55,3.54,3.54,0,0,1,68,58.53Z"/></g></g></svg>