<svg xmlns="http://www.w3.org/2000/svg" viewBox="0 0 113.39 113.39"><defs><style>.cls-1{fill:none;}.cls-2{fill:#040000;}</style></defs><title>アセット 286</title><g id="レイヤー_2" data-name="レイヤー 2"><g id="waku"><rect class="cls-1" width="113.39" height="113.39"/></g><g id="編集モード"><path class="cls-2" d="M85.76,3.95l-5.27-2.1L74.7,16.36a21.7,21.7,0,0,1,5.23,2.18Z"/><path class="cls-2" d="M101.94,17.53,97.67,13.8,87.35,25.61a21.74,21.74,0,0,1,2.6,5.64Z"/><path class="cls-2" d="M56.46,99.27"/><path class="cls-2" d="M28.8,50.87"/><path class="cls-2" d="M62.76,56"/><path class="cls-2" d="M56.47,110.71l36.07-63.4a28.61,28.61,0,0,0-7.4-2.89A17.57,17.57,0,0,0,84.41,29a18.13,18.13,0,0,0-6.08-6.42,17.49,17.49,0,0,0-23.09,4,19.12,19.12,0,0,1,6.36,7.08,14.31,14.31,0,0,1,8.77,8.86,18,18,0,0,1,.57,2.3,25.54,25.54,0,0,0-4.09,1.52,10,10,0,0,0-10-9.25,9.93,9.93,0,0,0-5.39,1.59,10.09,10.09,0,0,0-3.64,4.15A9.6,9.6,0,0,0,47,45.55a27.86,27.86,0,0,0-4.14-1S44.59,33.91,56,32.85A14.69,14.69,0,0,0,30.21,44.64s-6.9,1.57-9.25,3.94ZM28.8,50.87a26.86,26.86,0,0,1,13.72-.62c6.74,1.61,12.29,4.33,17.55,11.58,5.9,8.12,6.18,20.31,3,25.84-1.72,3-6.61,11.6-6.61,11.6Zm34,5.12a22,22,0,0,1,9.63-5.73,24.43,24.43,0,0,1,12.06-.14l-1,1.83-1.94,3.4S71.12,73.44,70.58,74.47A33.11,33.11,0,0,0,67.78,64,34.87,34.87,0,0,0,62.76,56Z"/></g></g></svg>