<svg xmlns="http://www.w3.org/2000/svg" viewBox="0 0 113.39 113.39"><defs><style>.cls-1{fill:none;}.cls-2{fill:#040000;}</style></defs><title>アセット 303</title><g id="レイヤー_2" data-name="レイヤー 2"><g id="waku"><rect class="cls-1" width="113.39" height="113.39"/></g><g id="編集モード"><polygon class="cls-2" points="59.53 35.43 65.2 35.43 65.2 25.51 99.21 25.51 99.21 19.84 22.68 19.84 22.68 25.51 59.53 25.51 59.53 35.43"/><path class="cls-2" d="M105.72,83l-3.18,3.17a5.63,5.63,0,0,1-4,1.65H33.89v5.67H98.53a11.27,11.27,0,0,0,8-3.31L109.72,87Z"/><path class="cls-2" d="M34,53.86,47.72,76.7a11.34,11.34,0,0,0,9.72,5.5H93.36A11.34,11.34,0,0,0,103.08,65l-1.59-2.65L91.18,45.19a11.34,11.34,0,0,0-9.72-5.5H17.72L14.17,34H5.66l5.68,19.84Zm58.88,5.21H66.19V45.39H81.86l.42,0a6.11,6.11,0,0,1,4.82,2.94l6.42,10.7Z"/></g></g></svg>