<svg xmlns="http://www.w3.org/2000/svg" viewBox="0 0 113.39 113.39"><defs><style>.cls-1{fill:none;}.cls-2{fill:#040000;}</style></defs><title>アセット 322</title><g id="レイヤー_2" data-name="レイヤー 2"><g id="waku"><rect class="cls-1" width="113.39" height="113.39"/></g><g id="編集モード"><polygon class="cls-2" points="9.91 96.38 24.08 96.38 24.08 76.45 9.91 79.37 9.91 96.38"/><polygon class="cls-2" points="29.75 96.38 43.93 96.38 43.93 72.27 29.75 75.26 29.75 96.38"/><polygon class="cls-2" points="89.29 96.38 103.47 96.38 103.47 79.37 89.29 76.42 89.29 96.38"/><polygon class="cls-2" points="69.44 96.38 83.62 96.38 83.62 75.26 69.44 72.29 69.44 96.38"/><rect class="cls-2" x="49.6" y="72.27" width="14.18" height="24.1"/><path class="cls-2" d="M72.28,11.34H41.09l-31.19,17V73.7l34-7.1H69.44l34,7.1V28.35ZM9.91,73.7l34-7.1M30,58.42,21,60.48V51.39L30,47.63ZM83.34,47.63l9.07,3.76v9.09l-9.07-2.06ZM30,38.46,21,42.65v-10l9.07-5Zm53.3-10.59,9.07,5v10l-9.07-4.19Zm-21,27.41H51V43.94H62.36Zm0-22.68H51V21.26H62.36Z"/></g></g></svg>