<svg xmlns="http://www.w3.org/2000/svg" viewBox="0 0 113.54 113.54"><defs><style>.cls-1{fill:none;}.cls-2{fill:#040000;}</style></defs><title>アセット 356</title><g id="レイヤー_2" data-name="レイヤー 2"><g id="waku"><rect class="cls-1" width="113.54" height="113.54"/></g><g id="編集モード"><path class="cls-2" d="M62.36,56.69h0A25.59,25.59,0,0,0,87.95,82.21H102V56.69Z"/><circle class="cls-2" cx="65.27" cy="48.17" r="2.83"/><circle class="cls-2" cx="65.27" cy="37.85" r="2.83"/><circle class="cls-2" cx="70.74" cy="29.06" r="2.83"/><circle class="cls-2" cx="80.69" cy="25.53" r="2.83" transform="translate(-3.07 13.43) rotate(-9.34)"/><path class="cls-2" d="M23.88,105l7.25,0,4.07-43.31,5.35-9.23c.22.46.42.92.65,1.37A32.67,32.67,0,0,0,48,62.57a48.55,48.55,0,0,0,4,3.37c.43.33,2.54,1.9,4.31,2.94l3.25-4.52a42.44,42.44,0,0,1-7.63-9.5c-2.26-4-3-8.66-3.35-13.19a37.25,37.25,0,0,1,.1-4.32.8.8,0,0,0,0-.13,7.94,7.94,0,0,0-14.76-4.95L20.65,55.08a7.9,7.9,0,0,0-1,4.74h0Z"/><circle class="cls-2" cx="51.39" cy="17.94" r="8.5" transform="translate(10.16 53.47) rotate(-60)"/><circle class="cls-2" cx="88.54" cy="32.16" r="2.83" transform="translate(-3.87 50.46) rotate(-31.16)"/></g></g></svg>