<svg xmlns="http://www.w3.org/2000/svg" viewBox="0 0 113.39 113.39"><defs><style>.cls-1{fill:none;}.cls-2{fill:#040000;}</style></defs><title>アセット 405</title><g id="レイヤー_2" data-name="レイヤー 2"><g id="waku"><rect class="cls-1" width="113.39" height="113.39"/></g><g id="編集モード"><path class="cls-2" d="M70.83,43.67a22.35,22.35,0,0,1,4.39,5.39,26.71,26.71,0,0,1,3.42,13.32h0V66L92.89,80.24l8.44-52.73H88.06L88,11.35l-5.67,0,.05,16.15H52.85l1.44,9c1,.15,1.92.32,2.81.52s1.94.48,2.85.75l-.78-4.89H95L93.29,43.67Z"/><path class="cls-2" d="M64.14,94.84A10.24,10.24,0,0,0,74.39,84.59v-.53H15.15v.55A10.24,10.24,0,0,0,25.39,94.84Z"/><path class="cls-2" d="M74.37,61.78h0a20,20,0,0,0-4.09-12.72,18.35,18.35,0,0,0-2.64-2.69,21.74,21.74,0,0,0-4.17-2.69,27.18,27.18,0,0,0-2.78-1.2q-1.36-.5-2.87-.91-1.35-.36-2.83-.64-.9-.17-1.84-.3l0,0Z"/><path class="cls-2" d="M67.3,74.37H16.45a1.3,1.3,0,0,0-1.3,1.3V79a1.3,1.3,0,0,0,1.3,1.3H73.22l1.17,1.14,4.21,4.2a14.46,14.46,0,0,1-4,9.2H87.83l10.66,10.63,5.82-5.84L13.94,9.53,8.12,15.36,33.88,41.05C20.34,43.82,15.14,52,15.14,61.78H54.67l4.13,4.12-.8.43a6.2,6.2,0,0,1-6.72,0,12,12,0,0,0-6.51-1.77,11.94,11.94,0,0,0-6.51,1.78,6.2,6.2,0,0,1-6.72,0A12,12,0,0,0,25,64.55a11.64,11.64,0,0,0-5.62,1.3l-.89.48a5.71,5.71,0,0,1-3.36,1v3.95a12.15,12.15,0,0,0,4.25-.7,14.86,14.86,0,0,0,2.26-1.08,5.71,5.71,0,0,1,3.36-1,5.71,5.71,0,0,1,3.36,1,12,12,0,0,0,6.51,1.77,11.94,11.94,0,0,0,6.51-1.78,6.2,6.2,0,0,1,6.72,0,12,12,0,0,0,6.51,1.77,11.75,11.75,0,0,0,5.05-1c.55-.25,1-.51,1.46-.75s.56-.31.82-.44Z"/></g></g></svg>