<svg xmlns="http://www.w3.org/2000/svg" viewBox="0 0 113.39 113.39"><defs><style>.cls-1{fill:none;}.cls-2{fill:#040000;}</style></defs><title>アセット 362</title><g id="レイヤー_2" data-name="レイヤー 2"><g id="waku"><rect class="cls-1" width="113.39" height="113.39"/></g><g id="編集モード"><path class="cls-2" d="M56.69,5.67A42.57,42.57,0,0,0,14.17,48.19V62.36h5.67V48.19a36.85,36.85,0,1,1,73.7,0V62.36h5.67V48.19A42.57,42.57,0,0,0,56.69,5.67Z"/><rect class="cls-2" x="24.09" y="48.11" width="5.67" height="17.08"/><rect class="cls-2" x="34.01" y="42.41" width="5.67" height="28.49"/><rect class="cls-2" x="83.62" y="48.11" width="5.67" height="17.08"/><rect class="cls-2" x="73.7" y="42.41" width="5.67" height="28.49"/><circle class="cls-2" cx="56.69" cy="55.29" r="12.76"/><path class="cls-2" d="M34,107.72H79.37V86A12.32,12.32,0,0,0,67.05,73.7H46.33A12.31,12.31,0,0,0,34,86h0Z"/></g></g></svg>