<svg xmlns="http://www.w3.org/2000/svg" viewBox="0 0 113.39 113.39"><defs><style>.cls-1{fill:none;}.cls-2{fill:#040000;}</style></defs><title>アセット 406</title><g id="レイヤー_2" data-name="レイヤー 2"><g id="waku"><rect class="cls-1" width="113.39" height="113.39"/></g><g id="編集モード"><path class="cls-2" d="M56.73,17s19.68,21.07,48.19,28.43l5.67-8.5C77.23,29.74,56.73,8.5,56.73,8.5S36.23,29.74,2.87,36.93l5.67,8.5C37.05,38.08,56.73,17,56.73,17Z"/><path class="cls-2" d="M34.19,82.13a28.36,28.36,0,0,1-9.3-1.6h0a14.83,14.83,0,0,1-2.24-1L19.84,96.38H39.69l-2.4-14.43A26.85,26.85,0,0,1,34.19,82.13Z"/><path class="cls-2" d="M63.88,82.13a28.36,28.36,0,0,1-9.3-1.6h0a16.6,16.6,0,0,1-4.69-2.61L46.81,96.38H66.65L64.28,82.12Z"/><path class="cls-2" d="M83.37,80.53h0a16.83,16.83,0,0,1-4.94-2.8,17,17,0,0,1-1.77,1.15l-2.92,17.5H93.58L91.2,82.08A28.63,28.63,0,0,1,83.37,80.53Z"/><rect class="cls-2" x="14.21" y="48.19" width="85.04" height="5.67"/><path class="cls-2" d="M105.81,75.89C95.21,70.12,96.49,63.34,88,60.66c-8.78-2.77-16.61-.2-20.09,2.14,2.61,1.23,6.37,4.52,8.93,7.75,2.33,2.94,3.24,5.09,7.56,7C89.61,79.87,98.74,80.49,105.81,75.89Z"/><path class="cls-2" d="M76.13,75.89c-10.6-5.77-9.32-12.55-17.81-15.23-8.78-2.77-16.61-.2-20.09,2.14,2.61,1.23,6.37,4.52,8.93,7.75,2.33,2.94,3.24,5.09,7.56,7C59.93,79.87,69.06,80.49,76.13,75.89Z"/><path class="cls-2" d="M46.44,75.89c-10.6-5.77-9.32-12.55-17.81-15.23C19.85,57.89,12,60.46,8.54,62.8c2.61,1.23,6.37,4.52,8.93,7.75,2.33,2.94,3.24,5.09,7.56,7C30.25,79.87,39.37,80.49,46.44,75.89Z"/></g></g></svg>