<svg xmlns="http://www.w3.org/2000/svg" viewBox="0 0 113.39 113.39"><defs><style>.cls-1{fill:none;}.cls-2{fill:#040000;}</style></defs><title>アセット 402</title><g id="レイヤー_2" data-name="レイヤー 2"><g id="waku"><rect class="cls-1" width="113.39" height="113.39"/></g><g id="編集モード"><path class="cls-2" d="M48.67,29.5h8V23.56h-8a11.47,11.47,0,0,0-8.24,4l4.22,4.21A5.63,5.63,0,0,1,48.67,29.5Z"/><path class="cls-2" d="M79,66A13,13,0,1,1,97.38,84.32l4.2,4.19A18.95,18.95,0,1,0,74.77,61.78Z"/><polygon class="cls-2" points="68.91 55.93 73.2 44.91 57.86 44.91 68.91 55.93"/><rect class="cls-2" x="64.7" y="34.24" width="18.69" height="5.94"/><path class="cls-2" d="M14.34,9.53,8.52,15.36,34.44,41.21,28.67,56a19.06,19.06,0,1,0,5.52,2.17l2.87-7.37h7.05L58.82,65.51l-4.68,12H70A19,19,0,0,0,86.85,93.47l12,12,5.82-5.84ZM37.68,74.59a13.15,13.15,0,1,1-11.21-12.9l-4.6,11.82,5.53,2.15L32,63.83A13,13,0,0,1,37.68,74.59Z"/></g></g></svg>