<svg xmlns="http://www.w3.org/2000/svg" viewBox="0 0 113.39 113.39"><defs><style>.cls-1{fill:none;}.cls-2{fill:#040000;}</style></defs><title>アセット 330</title><g id="レイヤー_2" data-name="レイヤー 2"><g id="waku"><rect class="cls-1" width="113.39" height="113.39"/></g><g id="編集モード"><path class="cls-2" d="M28.35,48.16l7.06,0h7.07l0-8.25a47.08,47.08,0,0,0,18.15,6.78L63,41.29c-8.15-3.83-12.18-6.4-22.71-16.2a7.26,7.26,0,0,0-4.71-1.84c-3.69,0-7.19,3-7.19,6.42Z"/><path class="cls-2" d="M85.06,11.34A116.09,116.09,0,0,0,62.59,51H22.7V76.49H56a203,203,0,0,0-2.16,31.23h8.5a124.27,124.27,0,0,1,7.82-37.08,11.85,11.85,0,0,1,5.58,6A12.61,12.61,0,0,1,74.11,89l6.78,3A24.5,24.5,0,0,0,88,75.14,25,25,0,0,0,80,57a23.84,23.84,0,0,0-2.57-2.07q1.85-3.43,3.88-6.75C84,43.72,86.93,39.38,90,35.12l9.16,1.73L102,31.33l-4.9-4.73L87.87,17Z"/><circle class="cls-2" cx="35.44" cy="12.76" r="7.09"/></g></g></svg>