<svg xmlns="http://www.w3.org/2000/svg" viewBox="0 0 113.39 113.39"><defs><style>.cls-1{fill:none;}.cls-2{fill:#040000;}</style></defs><title>アセット 369</title><g id="レイヤー_2" data-name="レイヤー 2"><g id="waku"><rect class="cls-1" width="113.39" height="113.39"/></g><g id="編集モード"><circle class="cls-2" cx="27.55" cy="29.19" r="5.95" transform="translate(-6.31 50.73) rotate(-79.13)"/><path class="cls-2" d="M48.6,89.53l.85-5.44s-.79-.23-1.66-.5c-4-1.27-8.24-3.46-11-6.7a14.91,14.91,0,0,1-3-6.53,33.27,33.27,0,0,1-.52-6.8s0,0,0,0l.15-14.24A17.76,17.76,0,0,1,37,52.09a20,20,0,0,1,3.55,5.2,27.78,27.78,0,0,1,2.18,6.34l4.18-.31a30.26,30.26,0,0,0-2.28-11.81A23.08,23.08,0,0,0,34.26,39.69C32,38.47,29,37.24,26.36,37.79s-3.89,2.79-5.06,4.9a45.06,45.06,0,0,1-4.46,6.78c-3,3.65-7.13,6.22-11.3,8.3l-.75.37,1.35,4L6.62,62a45.49,45.49,0,0,0,12.07-4.76,27.82,27.82,0,0,0,2.81-2l-.08,8.13c0,.06,0,.12,0,.18,0,2.11,1.37,17.2,1.37,17.2l1.8,17.16H30l1.24-14.56a28,28,0,0,0,8.17,4.22A38.11,38.11,0,0,0,48.6,89.53Z"/><polygon class="cls-2" points="79.38 73.7 79.38 85.04 56.7 85.04 56.7 93.54 34.02 93.54 34.02 102.05 14.17 102.05 14.17 107.72 39.68 107.72 39.68 99.21 62.37 99.21 62.37 99.21 62.37 90.71 85.05 90.71 85.05 90.71 85.05 79.37 107.72 79.37 107.72 73.7 79.38 73.7"/><path class="cls-2" d="M82.2,42l2.08-14.85a6,6,0,0,0-1.89-5.22c-2.23-2-5.48-1.67-8.2-1.08a20.09,20.09,0,0,0-8.41,4,22.41,22.41,0,0,0-5.43,6.94A23,23,0,0,0,58,44l4.17-.22a17.71,17.71,0,0,1,2.25-6.69,14.61,14.61,0,0,1,7.37-6.48L69.77,45a7.16,7.16,0,0,0-.06.73L69.15,62.5l-.89,18.16,5.35.07,6.49-27.57,5.46,2.51L82.25,69.54H88l6.69-14.9A3.82,3.82,0,0,0,93.4,50Z"/><ellipse class="cls-2" cx="80.42" cy="11.96" rx="5.91" ry="5.94"/></g></g></svg>