<svg xmlns="http://www.w3.org/2000/svg" viewBox="0 0 113.39 113.39"><defs><style>.cls-1{fill:none;}.cls-2{fill:#040000;}</style></defs><title>アセット 336</title><g id="レイヤー_2" data-name="レイヤー 2"><g id="waku"><rect class="cls-1" width="113.39" height="113.39"/></g><g id="編集モード"><path class="cls-2" d="M95.48,61.85c-1,10.38-6.79,13.86-14.55,15.2a197,197,0,0,1-20.88,2.4c-7,.47-12.88-2.34-16.46-7.6-1.57.14-3.19.26-4.88.37-7.95.53-14.67-3.36-17.8-9.92a14.24,14.24,0,0,1-1.6-5.07C10.58,60.91,5.68,65.81,5.68,70.89c0,11,22.84,19.87,51,19.87s51-8.9,51-19.87c0-3-1.69-5.8-4.71-8.34"/><path class="cls-2" d="M28.61,55.81a8.66,8.66,0,0,1-1.49-6.08c.19-2.62,2.35-5.68,5.72-7.36,8.11-4.05,22.61-8.13,36.26-8.91a29.37,29.37,0,0,0-3.35-1.32,44.32,44.32,0,0,0-13.49-1.8c-14.2,0-30.3,4.33-38.85,8.6-1.89.94-3.94,2.75-3.28,5.72C10.68,47.14,14.87,54,28.61,55.81Z"/><path class="cls-2" d="M32,48.37c-1.28,1.62-.88,4.21,1.45,7.11s8.08,7.43,18.3,7.43c4.49,0,16-2.39,21.42-3.42a129,129,0,0,1,19.61-1.94c5.25,0,7.91.81,9.7.78,1.33,0,2-.18,2.62-1.36s.23-3.3-2.07-6.55c-2.12-3-9.42-12.86-29.49-12.86C60.53,37.57,37,42.1,32,48.37Z"/></g></g></svg>