<svg xmlns="http://www.w3.org/2000/svg" viewBox="0 0 113.39 113.39"><defs><style>.cls-1{fill:none;}.cls-2{fill:#040000;}</style></defs><title>アセット 390</title><g id="レイヤー_2" data-name="レイヤー 2"><g id="waku"><rect class="cls-1" width="113.39" height="113.39"/></g><g id="編集モード"><path class="cls-2" d="M56.69,11.34c-36.27,0-52.44,14-52.44,45.35S20.42,102,56.69,102s52.44-14,52.44-45.36S93,11.34,56.69,11.34Zm0,84.91c-33.11,0-46.61-11.46-46.61-39.55S23.58,17.14,56.69,17.14s46.61,11.46,46.61,39.55S89.8,96.25,56.69,96.25Z"/><circle class="cls-2" cx="29.28" cy="46.3" r="7.51"/><path class="cls-2" d="M90.23,45.7,51.06,40.15a7.48,7.48,0,0,0-8.3,5.34l-4,14H22.52a5.7,5.7,0,0,0,0,11.39H96.57V62.32h0V53.1A7.48,7.48,0,0,0,90.23,45.7Z"/></g></g></svg>