<svg xmlns="http://www.w3.org/2000/svg" viewBox="0 0 113.39 113.39"><defs><style>.cls-1{fill:none;}.cls-2{fill:#040000;}</style></defs><title>アセット 344</title><g id="レイヤー_2" data-name="レイヤー 2"><g id="waku"><rect class="cls-1" width="113.39" height="113.39"/></g><g id="編集モード"><path class="cls-2" d="M8.5,73.7H36.85v-51H8.5Zm5.66-45.36h17V42.52h-17Z"/><circle class="cls-2" cx="86.97" cy="31.89" r="10.63"/><path class="cls-2" d="M94.35,48.19H78.13A8.35,8.35,0,0,0,72,50.49h0L60.55,62.15l-7.77-5.87-6.52,5.35,9.87,13.46a5.61,5.61,0,0,0,7.65,1.35l5.28-3.55V99.21h35.83V58.72h0A10.54,10.54,0,0,0,94.35,48.19Z"/><polygon class="cls-2" points="52.44 42.52 45.35 42.52 45.35 58.7 52.44 52.9 52.44 42.52"/></g></g></svg>