<svg xmlns="http://www.w3.org/2000/svg" viewBox="0 0 113.39 113.39"><defs><style>.cls-1{fill:none;}.cls-2{fill:#040000;}</style></defs><title>アセット 327</title><g id="レイヤー_2" data-name="レイヤー 2"><g id="waku"><rect class="cls-1" width="113.39" height="113.39"/></g><g id="編集モード"><path class="cls-2" d="M100.39,48.19l-31-15.51a28.35,28.35,0,0,0-25.35,0L13,48.2A8.5,8.5,0,0,0,9,59.3l3.1,6.89,0,0,1.19,2.64h0l0,.05.14,0h0c2.44-.67,6.3-1.66,11-2.68,8.86-1.9,20.77-3.88,32.09-3.88s23.16,2,32,3.88c4.7,1,8.53,2,11,2.68l.36.1h0l1.26-2.8h0l3.12-6.88A8.5,8.5,0,0,0,100.39,48.19ZM56.68,54.82a7.09,7.09,0,1,1,7.09-7.09A7.09,7.09,0,0,1,56.68,54.82Z"/><path class="cls-2" d="M80.11,68.87a138.67,138.67,0,0,0-23.44-2.31,140,140,0,0,0-23.53,2.31c-1.88.33-3.69.68-5.41,1-5.36,1.09-9.81,2.21-12.6,3l1,2.33C18.84,80,26.9,84.63,32.34,86c7.75,2,13,2.72,24.35,2.72S73.29,88,81,86c5.44-1.4,13.5-6,16.16-10.84l1-2.26-.45-.12C94.08,71.8,87.66,70.2,80.11,68.87Z"/></g></g></svg>