<svg xmlns="http://www.w3.org/2000/svg" viewBox="0 0 113.39 113.39"><defs><style>.cls-1{fill:none;}.cls-2{fill:#040000;}</style></defs><title>アセット 311</title><g id="レイヤー_2" data-name="レイヤー 2"><g id="waku"><rect class="cls-1" width="113.39" height="113.39"/></g><g id="編集モード"><path class="cls-2" d="M27.35,31.49c5.41-6.51,9-10.81,18-10.81,8.48,0,11.74,3.9,16.68,9.81a67.71,67.71,0,0,0,10.8,11l2.42-5.34a70.2,70.2,0,0,1-8.87-9.29C61,20.5,56.46,15,45.33,15,33.67,15,28.48,21.26,23,27.87c-4,4.87-8.63,10.39-16.74,15l2.81,4.92C18.06,42.67,23.21,36.47,27.35,31.49Z"/><path class="cls-2" d="M55.6,74c-1.67-1.41.42-3.3,3.3-4.42h-.06c2.6-1,4.11-2.24,4.11-3.54,0-3.62-11.55-6.55-25.8-6.55s-25.8,2.93-25.8,6.55c0,2.43,5.21,4.54,12.93,5.67C32,73,37,75.31,37,77.78c0,.45-.4,3-7.15,4.78-7.93,2.07-12.08,4.9-12.08,8.05,0,6.32,19.5,11.44,43.55,11.44s43.55-5.12,43.55-11.44c0-5.05-8.34-8.52-29.66-11.43C63,77.51,57.11,75.31,55.6,74Z"/><polygon class="cls-2" points="82.2 76.45 87.87 76.45 87.87 65.2 87.87 65.19 102.05 65.19 85.03 23.11 68.03 65.19 82.2 65.19 82.2 76.45"/></g></g></svg>