<svg xmlns="http://www.w3.org/2000/svg" viewBox="0 0 113.39 113.39"><defs><style>.cls-1{fill:none;}.cls-2{fill:#040000;}</style></defs><title>アセット 319</title><g id="レイヤー_2" data-name="レイヤー 2"><g id="waku"><rect class="cls-1" width="113.39" height="113.39"/></g><g id="編集モード"><path class="cls-2" d="M89,62.87h0a14.5,14.5,0,0,0-12.5-7.05h0A14.5,14.5,0,0,0,64,62.86L50.32,85.54a14.61,14.61,0,0,0,12.5,22.18H90.25a14.61,14.61,0,0,0,12.5-22.18ZM98,97.5A8.84,8.84,0,0,1,90.25,102H86.46V79.37H66.62V102H62.82a8.94,8.94,0,0,1-7.65-13.57L68.88,65.8a8.94,8.94,0,0,1,15.31,0L97.91,88.47A8.84,8.84,0,0,1,98,97.5Z"/><path class="cls-2" d="M60.74,33.71a5.17,5.17,0,0,1-2.44.55,5.53,5.53,0,0,1-2.22-.44,5.12,5.12,0,0,1-1.74-1.22,5.61,5.61,0,0,1-1.14-1.87,6.85,6.85,0,0,1-.41-2.41A6.66,6.66,0,0,1,53.22,26a5.67,5.67,0,0,1,1.15-1.87,5.28,5.28,0,0,1,1.76-1.24,5.53,5.53,0,0,1,2.26-.45,5.72,5.72,0,0,1,2.19.44,3.93,3.93,0,0,1,1.72,1.34L65.48,21a7.73,7.73,0,0,0-3.21-2.12,12,12,0,0,0-8.17,0,9.9,9.9,0,0,0-3.34,2,9.37,9.37,0,0,0-2.23,3.21,11.35,11.35,0,0,0,0,8.37A9.57,9.57,0,0,0,54,37.81a11.35,11.35,0,0,0,4.14.74,10.38,10.38,0,0,0,4.35-.86,9.23,9.23,0,0,0,3.17-2.34l-3.26-3.06A4.74,4.74,0,0,1,60.74,33.71Z"/><path class="cls-2" d="M107.72,17H76.51a9,9,0,0,0-9-8.5H45.83a9,9,0,0,0-9,8.5H5.76V39.65H36.87a9,9,0,0,0,9,8.54H67.55a9,9,0,0,0,9-8.5h31.21Zm-71,17H11.43V28.36H36.76Zm34.1,5.22a3.32,3.32,0,0,1-3.32,3.32H45.83a3.32,3.32,0,0,1-3.32-3.32V17.49a3.32,3.32,0,0,1,3.32-3.32H67.55a3.32,3.32,0,0,1,3.32,3.32ZM102,34H76.71V28.33H102Z"/><rect class="cls-2" x="19.84" y="48.19" width="14.17" height="8.51"/><path class="cls-2" d="M34,59.53H19.84l-6,6a8.5,8.5,0,0,0-2.49,6v36.16H42.52V71.56a8.51,8.51,0,0,0-2.49-6Z"/></g></g></svg>