<svg xmlns="http://www.w3.org/2000/svg" viewBox="0 0 113.39 113.39"><defs><style>.cls-1{fill:none;}.cls-2{fill:#040000;}</style></defs><title>アセット 314</title><g id="レイヤー_2" data-name="レイヤー 2"><g id="waku"><rect class="cls-1" width="113.39" height="113.39"/></g><g id="編集モード"><path class="cls-2" d="M60.12,55.22a44.92,44.92,0,0,0,10.66-9.55c3.86-4.39,6.66-7.56,12.43-7.56s7.72,2.64,11.07,7c2.66,3.47,6,7.79,12.06,11.2l2.77-4.94c-5.07-2.84-7.74-6.33-10.33-9.71-3.48-4.54-7.08-9.23-15.57-9.23-7.32,0-11.49,3.72-15.17,7.78-1.17-1.79-6.08-5.56-26.65-5.82-1.84-1.74-3.39-3.41-4.82-5-4.27-4.61-7.95-8.6-15-9.44A20.5,20.5,0,0,0,3.56,26.45l4.21,3.79a14.91,14.91,0,0,1,13.06-4.6c5,.59,7.62,3.4,11.55,7.66,1.75,1.9,3.77,4.07,6.32,6.36-2.24-.14-4.58-.22-7-.22-16,0-28.89,3.32-28.89,7.42a2.07,2.07,0,0,0,.17.8H3c.74,3,5.6,5.81,15.48,7.16,7.64,1,8.08,2.71,7.14,3.91-.79,1-2.35,1.72-7.44,4.28a33.08,33.08,0,0,0-3.3,1.67h0c-3.81,2.23-6,4.79-6,7.51,0,8.7,22.12,15.75,49.4,15.75s49.4-7.05,49.4-15.75C107.72,61.39,86.49,55.83,60.12,55.22Z"/></g></g></svg>