<svg xmlns="http://www.w3.org/2000/svg" viewBox="0 0 113.39 113.39"><defs><style>.cls-1{fill:none;}.cls-2{fill:#040000;}</style></defs><title>アセット 281</title><g id="レイヤー_2" data-name="レイヤー 2"><g id="waku"><rect class="cls-1" width="113.39" height="113.39"/></g><g id="編集モード"><rect class="cls-2" x="5.68" y="26.93" width="102.05" height="11.34"/><path class="cls-2" d="M102.76,56V48.91h5V42.52H5.68v6.37h5V56h-5v7.09h5v7.09h-5V81.35A9.91,9.91,0,0,1,24.1,86.47v4.26h8.5V86.47a9.92,9.92,0,1,1,19.84,0v4.25h8.5V86.47a9.92,9.92,0,1,1,19.84,0v4.25h8.5V86.47a9.91,9.91,0,0,1,18.44-5.07V70.17h-5V63.08h5V56Zm-78,14.18H17.72V63.08h7.09Zm0-14.18H17.72V48.91h7.09ZM39,70.17H31.89V63.08H39ZM39,56H31.89V48.91H39ZM53.15,70.17H46.06V63.08h7.09Zm0-14.18H46.06V48.91h7.09ZM67.32,70.17H60.24V63.08h7.09Zm0-14.18H60.24V48.91h7.09ZM81.5,70.17H74.41V63.08H81.5ZM81.5,56H74.41V48.91H81.5ZM95.67,70.17H88.58V63.08h7.09Zm0-14.18H88.58V48.91h7.09Z"/></g></g></svg>