<svg xmlns="http://www.w3.org/2000/svg" viewBox="0 0 113.39 113.39"><defs><style>.cls-1{fill:none;}.cls-2{fill:#040000;}</style></defs><title>アセット 330</title><g id="レイヤー_2" data-name="レイヤー 2"><g id="waku"><rect class="cls-1" width="113.39" height="113.39"/></g><g id="編集モード"><polygon class="cls-2" points="5.67 14.17 5.67 45.35 19.84 45.35 19.84 39.69 11.34 39.69 11.34 19.84 102.05 19.84 102.05 39.69 93.58 39.69 93.58 45.35 107.72 45.35 107.72 14.17 5.67 14.17"/><polygon class="cls-2" points="82.21 96.41 45.35 96.41 45.35 87.87 73.7 87.87 73.7 25.48 68.03 25.48 68.03 82.2 31.18 82.2 31.18 25.48 25.51 25.48 25.51 87.87 39.69 87.87 39.69 102.08 87.88 102.08 87.88 25.51 82.21 25.51 82.21 96.41"/><polygon class="cls-2" points="57.08 39.72 49.44 52.77 42.05 39.72 36.96 39.72 45.01 53.24 40.21 53.24 40.21 57.16 47.46 57.16 47.46 60.04 40.21 60.04 40.21 63.57 47.46 63.57 47.46 70.48 51.75 70.48 51.75 63.57 59 63.57 59 60.04 51.75 60.04 51.75 57.16 59 57.16 59 53.23 54.12 53.23 62.25 39.72 57.08 39.72"/></g></g></svg>