<svg xmlns="http://www.w3.org/2000/svg" viewBox="0 0 113.39 113.39"><defs><style>.cls-1{fill:none;}.cls-2{fill:#040000;}</style></defs><title>アセット 284</title><g id="レイヤー_2" data-name="レイヤー 2"><g id="waku"><rect class="cls-1" width="113.39" height="113.39"/></g><g id="編集モード"><path class="cls-2" d="M92.91,41.45c.53-.25,1.06-.51,1.56-.81a18.49,18.49,0,0,0,5.73-5.29,27.48,27.48,0,0,0,3.27-6.54l-2.58-1.18A23.9,23.9,0,0,1,97,32.57,13.46,13.46,0,0,1,92,35.52a14.05,14.05,0,0,1-3.65.64,47.37,47.37,0,0,0-6.26-5.37A19.28,19.28,0,0,0,87,24.57a26.64,26.64,0,0,0,2.25-7.19l-2.74-.74a23.06,23.06,0,0,1-3.14,5.71,14.23,14.23,0,0,1-4.55,3.88,15.06,15.06,0,0,1-2.53,1,44.15,44.15,0,0,0-9.91-3.61A19,19,0,0,0,69,19a28.36,28.36,0,0,0,1.65-7.35l-2.79-.51a24.8,24.8,0,0,1-2.66,6,13.56,13.56,0,0,1-6.72,5.49c-18-.45-33.61,14-44,31.78L17,56.69c7.73-11.38,16.27-18.64,25.62-22-8.46,5.54-14.28,17.13-14.28,30.54,0,18.78,11.42,34,25.51,34S79.37,84,79.37,65.26c0-14.75-7-27.29-16.88-32,14,2.51,23.4,11.84,31.89,24.47L88.84,72.33l2.11,1.39L102,60l-1.11-3.2A57.24,57.24,0,0,0,92.91,41.45ZM50.75,91.74c-8.53,0-15.45-9.54-15.45-21.31s6.92-21.31,15.45-21.31a11.73,11.73,0,0,1,5.44,1.39l-.38,0c-5.71,0-10.35,6.39-10.35,14.27S50.1,79,55.82,79c5.11,0,9.35-5.12,10.19-11.84a29.27,29.27,0,0,1,.2,3.25C66.2,82.21,59.28,91.74,50.75,91.74Z"/></g></g></svg>