<svg xmlns="http://www.w3.org/2000/svg" viewBox="0 0 113.39 113.39"><defs><style>.cls-1{fill:none;}.cls-2{fill:#040000;}</style></defs><title>アセット 279</title><g id="レイヤー_2" data-name="レイヤー 2"><g id="waku"><rect class="cls-1" width="113.39" height="113.39"/></g><g id="編集モード"><path class="cls-2" d="M85,40.61C76.38,36.14,67.17,30,63.43,22.77H49.92C46.22,30,37,36.13,28.35,40.61a174.62,174.62,0,0,0,28.33,2.05A175.49,175.49,0,0,0,85,40.61Z"/><path class="cls-2" d="M108.33,53.77l2.22-5.58a13.05,13.05,0,0,1-9.86.53c-2.82-.93-5.23-3.38-7.85-5.53A128.66,128.66,0,0,1,76.72,46a192.31,192.31,0,0,1-20.07,1,192.31,192.31,0,0,1-20.07-1,128.66,128.66,0,0,1-16.12-2.78c-2.62,2.15-5,4.6-7.85,5.53a13.05,13.05,0,0,1-9.86-.53L5,53.77Z"/><path class="cls-2" d="M62.36,19.84A5.72,5.72,0,0,0,61.56,17a5.59,5.59,0,0,0-9.73,0A5.72,5.72,0,0,0,51,19.84Z"/><path class="cls-2" d="M102.09,93.51V79.37H96.45V70.72h0l8.48-11.19H8.54L17,70.76v8.61h-5.6V93.51ZM39.72,70.87v8.5h-17v-8.5Zm28.35,8.5H45.49v-8.5H68.07Zm22.61-8.5v8.5H73.84v-8.5Z"/></g></g></svg>