<svg xmlns="http://www.w3.org/2000/svg" viewBox="0 0 113.39 113.39"><defs><style>.cls-1{fill:none;}.cls-2{fill:#040000;}</style></defs><title>アセット 414</title><g id="レイヤー_2" data-name="レイヤー 2"><g id="waku"><rect class="cls-1" width="113.39" height="113.39"/></g><g id="編集モード"><path class="cls-2" d="M60.94,107.72h40.48V50.44a44.73,44.73,0,0,0-89.47,0v57.28H52.44V102H17.63V50.44a39.06,39.06,0,0,1,78.13,0V102H60.94Z"/><path class="cls-2" d="M60.94,99.21h32V50.44a36.23,36.23,0,1,0-72.46,0V99.21h32V93.54H26.13V50.44a30.56,30.56,0,1,1,61.12,0V93.54H60.94Z"/><path class="cls-2" d="M73.23,86.11l-6.49-26a17,17,0,1,0-20.08,0l-6.49,26Z"/></g></g></svg>