<svg xmlns="http://www.w3.org/2000/svg" viewBox="0 0 113.39 113.39"><defs><style>.cls-1{fill:none;}.cls-2{fill:#040000;}</style></defs><title>アセット 409</title><g id="レイヤー_2" data-name="レイヤー 2"><g id="waku"><rect class="cls-1" width="113.39" height="113.39"/></g><g id="編集モード"><path class="cls-2" d="M77.13,25.58A2.94,2.94,0,0,0,80,22.68,2.74,2.74,0,0,0,77.13,20h0V14.17h0a8.55,8.55,0,0,1,8.68,8.51,8.7,8.7,0,0,1-4,7.33A24.24,24.24,0,0,0,88,36.84H79.54a29.67,29.67,0,0,1-6-11.26Z"/><path class="cls-2" d="M17.82,90.71A73.59,73.59,0,0,0,26.93,81H43L56.71,69.24,70.42,81H86.48a73.59,73.59,0,0,0,9.11,9.71h9.61c-7.7-4.22-14.94-14.09-15-14.21l-.85-1.17H72.52L56.71,61.77,40.89,75.33H24.08l-.85,1.17C21,79.58,14.55,87.19,8.16,90.71Z"/><rect class="cls-2" x="25.51" y="39.69" width="62.38" height="5.66"/><path class="cls-2" d="M36.42,25.58a2.94,2.94,0,0,1-2.88-2.9A2.74,2.74,0,0,1,36.42,20h0V14.17h0a8.55,8.55,0,0,0-8.68,8.51,8.7,8.7,0,0,0,4,7.33,24.24,24.24,0,0,1-6.24,6.83H34a29.67,29.67,0,0,0,6-11.26Z"/><rect class="cls-2" x="25.52" y="51.02" width="7.08" height="14.17"/><rect class="cls-2" x="38.29" y="51.02" width="7.08" height="14.17"/><rect class="cls-2" x="68.04" y="51.02" width="7.08" height="14.17"/><rect class="cls-2" x="80.81" y="51.02" width="7.08" height="14.17"/><rect class="cls-2" x="45.35" y="19.84" width="22.68" height="5.61"/></g></g></svg>