<svg xmlns="http://www.w3.org/2000/svg" viewBox="0 0 113.39 113.39"><defs><style>.cls-1{fill:none;}.cls-2{fill:#040000;}</style></defs><title>アセット 400</title><g id="レイヤー_2" data-name="レイヤー 2"><g id="waku"><rect class="cls-1" width="113.39" height="113.39"/></g><g id="編集モード"><polygon class="cls-2" points="110.53 39.69 85.09 19.84 59.55 39.69 110.53 39.69"/><polygon class="cls-2" points="14.27 76.54 2.86 85.05 9.93 85.05 9.93 96.38 49.61 96.38 49.61 85.05 56.72 85.05 45.25 76.59 14.27 76.54"/><polygon class="cls-2" points="46.44 60.81 45.35 52.42 14.17 52.42 13.13 60.58 5.68 68.03 53.87 68.03 46.44 60.81"/><polygon class="cls-2" points="110.53 53.86 97.81 43.94 72.32 43.94 59.55 53.86 110.53 53.86"/><polygon class="cls-2" points="110.53 68.03 97.81 58.11 72.32 58.11 59.55 68.03 110.53 68.03"/><polygon class="cls-2" points="110.53 82.2 97.81 72.28 72.32 72.28 59.55 82.2 110.53 82.2"/><polygon class="cls-2" points="110.53 96.38 97.81 86.46 72.32 86.46 59.55 96.38 110.53 96.38"/></g></g></svg>