<svg xmlns="http://www.w3.org/2000/svg" viewBox="0 0 113.39 113.39"><defs><style>.cls-1{fill:none;}.cls-2{fill:#040000;}</style></defs><title>アセット 408</title><g id="レイヤー_2" data-name="レイヤー 2"><g id="waku"><rect class="cls-1" width="113.39" height="113.39"/></g><g id="編集モード"><path class="cls-2" d="M56.7,48.17a8.24,8.24,0,0,1,1.16.09l9-27.77a10.2,10.2,0,0,0-20.39-.07l9,27.83A8.22,8.22,0,0,1,56.7,48.17Z"/><path class="cls-2" d="M51,50.5a8.28,8.28,0,0,1,1.88-1.37l-9.09-28A10.2,10.2,0,0,0,27.5,33.43Z"/><path class="cls-2" d="M19.71,55H48.58a8.17,8.17,0,0,1,.72-2.21L25.37,35.39A10.2,10.2,0,0,0,19.71,55Z"/><path class="cls-2" d="M49.3,60a8.16,8.16,0,0,1-.72-2.21H19A10.2,10.2,0,0,0,26,77Z"/><path class="cls-2" d="M51,62.33,27.15,79.62A10.19,10.19,0,0,0,43.88,91.23l9-27.53A8.29,8.29,0,0,1,51,62.33Z"/><path class="cls-2" d="M56.7,64.66a8.24,8.24,0,0,1-1.16-.09l-9,27.76a10.19,10.19,0,0,0,20.36,0l-9-27.76A8.23,8.23,0,0,1,56.7,64.66Z"/><path class="cls-2" d="M62.43,62.34a8.28,8.28,0,0,1-1.88,1.37l8.94,27.54A10.19,10.19,0,0,0,86.24,79.64Z"/><path class="cls-2" d="M94.41,57.85H64.81a8.17,8.17,0,0,1-.72,2.2L87.4,77a10.2,10.2,0,0,0,7-19.14Z"/><path class="cls-2" d="M64.82,55H93.06l.62,0a10.2,10.2,0,0,0-5.61-19.6L64.1,52.8A8.16,8.16,0,0,1,64.82,55Z"/><path class="cls-2" d="M62.43,50.5l23.43-17a10.2,10.2,0,0,0-16.19-12.4l-9.12,28A8.28,8.28,0,0,1,62.43,50.5Z"/><circle class="cls-2" cx="56.69" cy="56.42" r="5.42"/></g></g></svg>