<svg xmlns="http://www.w3.org/2000/svg" viewBox="0 0 113.39 113.39"><defs><style>.cls-1{fill:none;}.cls-2{fill:#040000;}</style></defs><title>アセット 420</title><g id="レイヤー_2" data-name="レイヤー 2"><g id="waku"><rect class="cls-1" width="113.39" height="113.39"/></g><g id="編集モード"><path class="cls-2" d="M25.51,36.86c-9.31,0-17.19,4.77-19.84,11.34H45.35C42.7,41.63,34.82,36.86,25.51,36.86Z"/><path class="cls-2" d="M59.05,27.87A11.29,11.29,0,0,0,51.6,8.6,8.81,8.81,0,1,1,40.17,21.93l-.26-.29a11.29,11.29,0,0,0,19.14,6.23Z"/><path class="cls-2" d="M96.23,52.73a9.76,9.76,0,0,0,3,.46c4.7,0,8.5-3.26,8.5-7.27s-3.81-7.25-8.51-7.25a9.86,9.86,0,0,0-2.23.26c-1.39-3.7-5.45-6.37-10.25-6.36S78,35.2,76.55,38.81a10,10,0,0,0-2.22-.25c-4.74,0-8.59,3.29-8.58,7.34s3.85,7.33,8.6,7.32a9.87,9.87,0,0,0,3-.46h0a41.12,41.12,0,0,1,4.84-1.33c1.49,3.93-.55,7.53-4.41,10.74a45.09,45.09,0,0,0-9.21,10.27,13.16,13.16,0,0,1-10.71-7.77,25.18,25.18,0,0,1,4.27,1h0a7.05,7.05,0,0,0,2.11.32c3.42,0,6.2-2.4,6.2-5.36s-2.78-5.35-6.21-5.35a7.11,7.11,0,0,0-1.63.19,7.81,7.81,0,0,0-7.47-4.69,7.84,7.84,0,0,0-7.42,4.59,7.19,7.19,0,0,0-1.62-.19c-3.46,0-6.26,2.43-6.26,5.41S42.6,66,46.06,66a7.15,7.15,0,0,0,2-.29h0a25.48,25.48,0,0,1,4.13-1,20.51,20.51,0,0,0,1.3,4.11,19.34,19.34,0,0,0,3.76,5.61,20,20,0,0,0,5.56,4,21.38,21.38,0,0,0,2.52,1,21.05,21.05,0,0,0-1.08,4.68c-.68,0-1.37,0-2.06,0a71,71,0,0,0-18.45,2.37H41.82l1.61.08c-11,3-19.41,8.61-23.09,15.43h83.73C100.8,96,93.77,90.92,84.57,87.74a13.9,13.9,0,0,1-3.06-7.87c0-6.22,4.05-9.33,7.58-16.89,1.84-4,2.42-7.59,1.12-11.78a47.38,47.38,0,0,1,6,1.54Z"/></g></g></svg>