<svg xmlns="http://www.w3.org/2000/svg" viewBox="0 0 113.39 113.39"><defs><style>.cls-1{fill:none;}.cls-2{fill:#040000;}</style></defs><title>アセット 407</title><g id="レイヤー_2" data-name="レイヤー 2"><g id="waku"><rect class="cls-1" width="113.39" height="113.39"/></g><g id="編集モード"><circle class="cls-2" cx="56.69" cy="15.95" r="5.67"/><path class="cls-2" d="M56.69,34.47c6.47,0,8.38-.75,9.9-2.22a5.67,5.67,0,0,0-8-8,13.9,13.9,0,0,0-1.88,2.29,13.9,13.9,0,0,0-1.88-2.29,5.67,5.67,0,0,0-8,8C48.31,33.72,50.22,34.47,56.69,34.47Z"/><path class="cls-2" d="M56.69,48.2c6.47,0,8.38-.75,9.9-2.22a5.67,5.67,0,0,0-8-8,13.9,13.9,0,0,0-1.88,2.29A13.9,13.9,0,0,0,54.81,38a5.67,5.67,0,1,0-8,8C48.31,47.45,50.22,48.2,56.69,48.2Z"/><path class="cls-2" d="M82.44,48.2c6.47,0,8.38-.75,9.9-2.22a5.67,5.67,0,1,0-8-8,13.9,13.9,0,0,0-1.88,2.29A13.9,13.9,0,0,0,80.56,38a5.67,5.67,0,1,0-8,8C74.06,47.45,76,48.2,82.44,48.2Z"/><path class="cls-2" d="M30.94,48.2c6.47,0,8.38-.75,9.9-2.22a5.67,5.67,0,1,0-8-8,13.9,13.9,0,0,0-1.88,2.29A13.9,13.9,0,0,0,29.06,38a5.67,5.67,0,1,0-8,8C22.56,47.45,24.47,48.2,30.94,48.2Z"/><circle class="cls-2" cx="30.94" cy="29.94" r="5.67"/><circle class="cls-2" cx="82.44" cy="29.94" r="5.67"/><path class="cls-2" d="M32.4,71.4c3.44-5.28,11.13-8.55,16.91-10.35a8.32,8.32,0,0,1-.53-6.57c-3-1.06-19.62-6.42-28.89,2.21-10.2,9.5-8.5,36.85-8.5,36.85s13,1.44,25.13-2.92a27.85,27.85,0,0,1-5.6-10.53A10.68,10.68,0,0,1,32.4,71.4Z"/><path class="cls-2" d="M93.49,56.69c-9.18-8.55-25.59-3.37-28.79-2.24a8.32,8.32,0,0,1-.52,6.6C70,62.85,77.65,66.12,81.09,71.4a10.69,10.69,0,0,1,1.48,8.69,27.89,27.89,0,0,1-5.63,10.56C89,95,102,93.54,102,93.54S103.69,66.19,93.49,56.69Z"/><path class="cls-2" d="M78.72,73c-3.17-4.87-11-7.9-16.43-9.5a8.35,8.35,0,0,1-11.07,0c-5.46,1.6-13.27,4.63-16.43,9.5a7.85,7.85,0,0,0-1.11,6.46,25.85,25.85,0,0,0,5.58,10.11C44.9,96.25,52.92,101.41,56,103.26a1.39,1.39,0,0,0,1.45,0c3.1-1.85,11.1-7,16.74-13.7a25.9,25.9,0,0,0,5.61-10.14A7.85,7.85,0,0,0,78.72,73Z"/><circle class="cls-2" cx="56.75" cy="57.18" r="5.67"/></g></g></svg>