<svg xmlns="http://www.w3.org/2000/svg" viewBox="0 0 113.41 113.41"><defs><style>.cls-1{fill:none;}.cls-2{fill:#040000;}</style></defs><title>アセット 346</title><g id="レイヤー_2" data-name="レイヤー 2"><g id="waku"><rect class="cls-1" width="113.41" height="113.41"/></g><g id="編集モード"><path class="cls-2" d="M82.22,11.34a17,17,0,1,0,17,17A17,17,0,0,0,82.22,11.34ZM82,35l-8.23-8.23,3-3L82,29l7.49-7.49,3,3Z"/><polygon class="cls-2" points="16.91 50.24 11.46 51.8 24.16 96.38 56.83 96.38 56.83 90.71 28.45 90.71 16.91 50.24"/><path class="cls-2" d="M77.69,99.08l-10-21.38A4.82,4.82,0,0,0,64.26,75l-1.08-.21-15.8-3.13,0-20.21h0v-.08a8.09,8.09,0,0,0-16.18,0l0,26.84h0v.08a8.09,8.09,0,0,0,8.08,8.1h0a8.17,8.17,0,0,0,.84,0l19.45.15,11.76,16.3Z"/><circle class="cls-2" cx="39.3" cy="31.46" r="8.08"/><circle class="cls-2" cx="39.3" cy="31.46" r="8.08"/></g></g></svg>