<svg xmlns="http://www.w3.org/2000/svg" viewBox="0 0 113.39 113.39"><defs><style>.cls-1{fill:none;}.cls-2{fill:#040000;}</style></defs><title>アセット 303</title><g id="レイヤー_2" data-name="レイヤー 2"><g id="waku"><rect class="cls-1" width="113.39" height="113.39"/></g><g id="編集モード"><polygon class="cls-2" points="33.66 85.47 63.93 85.47 63.93 93.55 90.72 93.55 90.72 51.02 64.21 51.02 33.66 85.47"/><path class="cls-2" d="M31.18,81.85,48.31,62.46,37.9,51C18.34,53.35,5.67,72.23,5.67,92.7v.85H31.18Z"/><path class="cls-2" d="M108,38.4a19.84,19.84,0,0,0-34.45-.11l17.19,9.9Z"/><path class="cls-2" d="M50.31,48.19a12.55,12.55,0,0,0,5.87-23.66,6,6,0,0,0,.19-1.36s0-.07,0-.11a6.06,6.06,0,0,0-12.13,0s0,.07,0,.11a6,6,0,0,0,.19,1.36,12.55,12.55,0,0,0,5.87,23.66Z"/></g></g></svg>