<svg xmlns="http://www.w3.org/2000/svg" viewBox="0 0 113.39 113.39"><defs><style>.cls-1{fill:none;}.cls-2{fill:#040000;}</style></defs><title>アセット 419</title><g id="レイヤー_2" data-name="レイヤー 2"><g id="waku"><rect class="cls-1" width="113.39" height="113.39"/></g><g id="編集モード"><path class="cls-2" d="M5.7,33.26c.47.19,1,.41,1.48.67L5.7,32.37Z"/><path class="cls-2" d="M90.32,55.48a35.29,35.29,0,0,0-9,3.42q-1.63-.2-3.32-.36h.06c-9.84-.85-16.38-3.4-18.66-5.31,4.76-2.87,8-6.47,10.92-10.05l.9-1.1c5.41-6.61,10.18-12.41,23.53-13.92,1.4-.16,2.9-.27,4.5-.33V22.15c-11.35.39-18.31,3.23-23.38,7-9.92-4.23-20.92-6.3-33.55-6.3v5.67a80.15,80.15,0,0,1,28.86,4.88c-1.55,1.64-2.95,3.35-4.34,5-.88,1.07-1.75,2.13-2.64,3.15C60.34,39.18,50.65,37.7,40,37.7c-7.85,0-14.66.81-19.27,2.18a19.63,19.63,0,0,0-6.18-8A30,30,0,0,0,5.7,27.22v5.15l1.48,1.57a22.08,22.08,0,0,1,3.89,2.4,13.75,13.75,0,0,1,3.59,4.07,18.62,18.62,0,0,1,1,1.95c.12.28.24.57.36.86.23.57.45,1.16.68,1.77a41.32,41.32,0,0,0,2.25,5.24A23.37,23.37,0,0,0,20.65,53a27.88,27.88,0,0,0,7,6.59A12,12,0,0,1,25.17,62c-3,2.29-4.95,4.74-4.95,8.09,0,5.7,14.72,10.48,33.72,11.79-5.41,3-12.48,5.32-22.74,6.06v4.39l.09,1.29a67.85,67.85,0,0,0,18.19-3.5A45.15,45.15,0,0,0,63.43,82.2a87.8,87.8,0,0,0,8-7.8c8.8-9.33,13.88-11.91,20.17-13.4l.69-.16c6.54-1.52,9.22-1.52,15.39-1.52V53.65C101.27,53.65,98,53.65,90.32,55.48Z"/></g></g></svg>