<svg xmlns="http://www.w3.org/2000/svg" viewBox="0 0 113.39 113.39"><defs><style>.cls-1{fill:none;}.cls-2{fill:#040000;}</style></defs><title>アセット 287</title><g id="レイヤー_2" data-name="レイヤー 2"><g id="waku"><rect class="cls-1" width="113.39" height="113.39"/></g><g id="編集モード"><path class="cls-2" d="M102,96.38V90.71H79.37V63.29l8.56-15.1H89c2.41,0,5.34-.06,6.69-.21,5.24-.5,7.47-5.6,5.74-10.75l-4.27,1c.71,2.73,0,3.88-1.27,4.12s-3.55-.5-6.64-3.7c-4.21-4.42-8.94-11.77-9.93-18.77H59.52V11.37H53.86v8.48H34c-1,7-5.71,14.34-9.93,18.77-3.09,3.2-5.21,4-6.64,3.7s-2-1.39-1.27-4.12l-4.27-1c-1.73,5.15.51,10.25,5.74,10.75,1.35.15,4.28.2,6.69.21h1L34,63v27.7H11.34v5.67ZM39.68,65.22h7.59v9.92H39.68Zm13.26,0h7.51v9.92H52.94ZM73.7,75.15H66.12V65.22H73.7ZM60.45,80.82v9.89H52.94V80.82Zm5.67,9.89V80.82H73.7v9.89ZM31.91,48.19H81.41L75,59.56H38.56Zm7.78,32.63h7.59v9.89H39.68Z"/></g></g></svg>