<svg xmlns="http://www.w3.org/2000/svg" viewBox="0 0 113.39 113.39"><defs><style>.cls-1{fill:none;}.cls-2{fill:#040000;}</style></defs><title>アセット 370</title><g id="レイヤー_2" data-name="レイヤー 2"><g id="waku"><rect class="cls-1" width="113.39" height="113.39"/></g><g id="編集モード"><path class="cls-2" d="M102,56.69H14.17C14.17,75,26.8,90.94,44,95.07v7h28.3V95C89.44,90.88,102,74.93,102,56.69Z"/><path class="cls-2" d="M35.76,49.8l-3.23-4.66a8.8,8.8,0,0,0,3.69-5.84,8.68,8.68,0,0,0-1.6-6.62A14.47,14.47,0,0,1,38,12.19l3.23,4.66a8.8,8.8,0,0,0-3.7,5.84,8.67,8.67,0,0,0,1.6,6.62A14.47,14.47,0,0,1,35.76,49.8Z"/><path class="cls-2" d="M57,49.8l-3.23-4.66a8.8,8.8,0,0,0,3.69-5.84,8.68,8.68,0,0,0-1.6-6.62,14.47,14.47,0,0,1,3.42-20.49l3.23,4.66a8.8,8.8,0,0,0-3.7,5.84,8.67,8.67,0,0,0,1.6,6.62A14.47,14.47,0,0,1,57,49.8Z"/><path class="cls-2" d="M78.24,49.8,75,45.14A8.8,8.8,0,0,0,78.7,39.3a8.67,8.67,0,0,0-1.6-6.62,14.47,14.47,0,0,1,3.42-20.49l3.23,4.66a8.8,8.8,0,0,0-3.7,5.84,8.67,8.67,0,0,0,1.6,6.62A14.47,14.47,0,0,1,78.24,49.8Z"/></g></g></svg>