<svg xmlns="http://www.w3.org/2000/svg" viewBox="0 0 113.39 113.39"><defs><style>.cls-1{fill:none;}.cls-2{fill:#040000;}</style></defs><title>アセット 322</title><g id="レイヤー_2" data-name="レイヤー 2"><g id="waku"><rect class="cls-1" width="113.39" height="113.39"/></g><g id="編集モード"><circle class="cls-2" cx="56.69" cy="56.69" r="4.54"/><path class="cls-2" d="M62.36,102A5.67,5.67,0,0,1,51,102c0-3.13,5.67-17,5.67-17S62.36,98.92,62.36,102Z"/><path class="cls-2" d="M84.28,93.14a5.67,5.67,0,0,1-9.82,5.67c-1.57-2.71-3.59-17.56-3.59-17.56S82.71,90.42,84.28,93.14Z"/><path class="cls-2" d="M98.81,74.46a5.67,5.67,0,0,1-5.67,9.82c-2.71-1.57-11.89-13.41-11.89-13.41S96.09,72.89,98.81,74.46Z"/><path class="cls-2" d="M102,51a5.67,5.67,0,0,1,0,11.34c-3.13,0-17-5.67-17-5.67S98.91,51,102,51Z"/><path class="cls-2" d="M93.14,29.11a5.67,5.67,0,0,1,5.67,9.82c-2.71,1.57-17.56,3.59-17.56,3.59S90.42,30.67,93.14,29.11Z"/><path class="cls-2" d="M74.46,14.58a5.67,5.67,0,1,1,9.82,5.67C82.71,23,70.87,32.15,70.87,32.15S72.89,17.29,74.46,14.58Z"/><path class="cls-2" d="M51,11.34a5.67,5.67,0,1,1,11.34,0c0,3.13-5.67,17-5.67,17S51,14.47,51,11.34Z"/><path class="cls-2" d="M29.11,20.25a5.67,5.67,0,0,1,9.82-5.67c1.57,2.71,3.59,17.56,3.59,17.56S30.67,23,29.11,20.25Z"/><path class="cls-2" d="M14.58,38.93a5.67,5.67,0,1,1,5.67-9.82C23,30.67,32.14,42.52,32.14,42.52S17.29,40.49,14.58,38.93Z"/><path class="cls-2" d="M11.34,62.36a5.67,5.67,0,0,1,0-11.34c3.13,0,17,5.67,17,5.67S14.47,62.36,11.34,62.36Z"/><path class="cls-2" d="M20.25,84.28a5.67,5.67,0,0,1-5.67-9.82c2.71-1.57,17.56-3.59,17.56-3.59S23,82.71,20.25,84.28Z"/><path class="cls-2" d="M38.93,98.81a5.67,5.67,0,0,1-9.82-5.67c1.57-2.71,13.41-11.89,13.41-11.89S40.49,96.09,38.93,98.81Z"/><path class="cls-2" d="M60.94,75.12a4.25,4.25,0,1,1-8.5,0c0-2.35,4.25-9.92,4.25-9.92S60.94,72.77,60.94,75.12Z"/><path class="cls-2" d="M74.77,62.23a4.25,4.25,0,1,1-4.25,7.36c-2-1.17-6.47-8.64-6.47-8.64S72.74,61.05,74.77,62.23Z"/><path class="cls-2" d="M70.53,43.8a4.25,4.25,0,0,1,4.25,7.36c-2,1.17-10.72,1.28-10.72,1.28S68.49,45,70.53,43.8Z"/><path class="cls-2" d="M52.45,38.27a4.25,4.25,0,1,1,8.5,0c0,2.35-4.25,9.92-4.25,9.92S52.45,40.62,52.45,38.27Z"/><path class="cls-2" d="M38.61,51.16a4.25,4.25,0,0,1,4.25-7.36c2,1.17,6.47,8.64,6.47,8.64S40.65,52.33,38.61,51.16Z"/><path class="cls-2" d="M42.86,69.58a4.25,4.25,0,1,1-4.25-7.36c2-1.17,10.72-1.28,10.72-1.28S44.89,68.41,42.86,69.58Z"/></g></g></svg>