<svg xmlns="http://www.w3.org/2000/svg" viewBox="0 0 113.39 113.39"><defs><style>.cls-1{fill:none;}.cls-2{fill:#040000;}</style></defs><title>アセット 307</title><g id="レイヤー_2" data-name="レイヤー 2"><g id="waku"><rect class="cls-1" width="113.39" height="113.39"/></g><g id="編集モード"><path class="cls-2" d="M83.41,67l.78-.76c13.49-13.49,15-33.82,15-33.82S83.05,33.65,70,43.49c0-.15,0-.29,0-.44C70,24,56.7,8.5,56.7,8.5S43.41,24,43.41,43c0,.15,0,.29,0,.44C30.35,33.65,14.18,32.42,14.18,32.42s1.54,20.33,15,33.82L30,67A60.07,60.07,0,0,0,11.57,77.56s14.34,7.3,30.56,5.16a89.44,89.44,0,0,0,11.74-2.33l.69,24.5h4.25l.72-24.51a89.37,89.37,0,0,0,11.78,2.34c16.22,2.14,30.56-5.16,30.56-5.16A60.07,60.07,0,0,0,83.41,67Z"/></g></g></svg>