<svg xmlns="http://www.w3.org/2000/svg" viewBox="0 0 113.39 113.39"><defs><style>.cls-1{fill:none;}.cls-2{fill:#040000;}</style></defs><title>アセット 392</title><g id="レイヤー_2" data-name="レイヤー 2"><g id="waku"><rect class="cls-1" width="113.39" height="113.39"/></g><g id="編集モード"><path class="cls-2" d="M36.78,33.57a7.66,7.66,0,0,1-3.21,5.08L36.8,43.3a13.33,13.33,0,0,0,3.15-18.87,7.54,7.54,0,0,1-1.39-5.76,7.66,7.66,0,0,1,3.22-5.08L38.54,8.94a13.33,13.33,0,0,0-3.15,18.87A7.54,7.54,0,0,1,36.78,33.57Z"/><path class="cls-2" d="M55.93,33.57a7.66,7.66,0,0,1-3.21,5.08l3.23,4.66A13.33,13.33,0,0,0,59.1,24.43a7.54,7.54,0,0,1-1.39-5.76,7.66,7.66,0,0,1,3.22-5.08L57.69,8.94a13.33,13.33,0,0,0-3.15,18.87A7.54,7.54,0,0,1,55.93,33.57Z"/><path class="cls-2" d="M75.08,33.57a7.66,7.66,0,0,1-3.21,5.08L75.1,43.3a13.33,13.33,0,0,0,3.15-18.87,7.54,7.54,0,0,1-1.39-5.76,7.66,7.66,0,0,1,3.22-5.08L76.84,8.94a13.33,13.33,0,0,0-3.15,18.87A7.54,7.54,0,0,1,75.08,33.57Z"/><circle class="cls-2" cx="27.65" cy="57.18" r="7.34"/><path class="cls-2" d="M33.77,68.05H21.53a7.34,7.34,0,0,0-7.34,7.34V86.34a15.81,15.81,0,0,1,16.05,1.08h0a9.91,9.91,0,0,0,10.78,0l.1-.07v-12h0A7.34,7.34,0,0,0,33.77,68.05Z"/><circle class="cls-2" cx="86" cy="57.14" r="7.34"/><path class="cls-2" d="M99.47,75.35A7.34,7.34,0,0,0,92.12,68H79.88a7.34,7.34,0,0,0-7.34,7.34V85.57a15.81,15.81,0,0,1,14.38,1.81h0a9.91,9.91,0,0,0,10.78,0,13,13,0,0,1,1.77-1.09V75.35Z"/><circle class="cls-2" cx="56.91" cy="64.31" r="6.37"/><path class="cls-2" d="M56.91,73.74a6.37,6.37,0,0,0-6.37,6.36h0v4.5a16.45,16.45,0,0,1,2.15.26,14.9,14.9,0,0,1,4.5,1.6,13,13,0,0,1,1.4.88h0a9,9,0,0,0,4.7,1.55V80.3c0-.06,0-.12,0-.18A6.37,6.37,0,0,0,56.91,73.74Z"/></g></g></svg>