<svg xmlns="http://www.w3.org/2000/svg" viewBox="0 0 113.39 113.39"><defs><style>.cls-1{fill:none;}.cls-2{fill:#040000;}</style></defs><title>アセット 297</title><g id="レイヤー_2" data-name="レイヤー 2"><g id="waku"><rect class="cls-1" width="113.39" height="113.39"/></g><g id="編集モード"><circle class="cls-2" cx="56.67" cy="16.41" r="10.63"/><path class="cls-2" d="M25.53,70.87h8.61l-3.76,8.5H17V85H27.89l-5,11.34H8.53V102H104.9V96.38H90.55L85.53,85H96.4V79.37H83l-3.76-8.5H87.9V65.2H80.08c.15-.58.29-1.16.41-1.73a34.7,34.7,0,0,0,.61-4,30,30,0,0,0-4.68-19.56c-3.53-5-11.36-8.61-19.76-8.61s-16.23,3.57-19.76,8.61c-3.07,4.39-6.73,13.62-3.65,25.29H25.53ZM43.65,49.32v13H69.71v-13A18.24,18.24,0,0,1,72.46,65.2H40.89A18.24,18.24,0,0,1,43.65,49.32ZM44,96.38H27.53l5-11.34h13Zm4.29,0L49.81,85H63l1.94,11.34Zm21,0L67.3,85H80.88l5,11.34Z"/></g></g></svg>