<svg xmlns="http://www.w3.org/2000/svg" viewBox="0 0 113.39 113.38"><defs><style>.cls-1{fill:none;}.cls-2{fill:#040000;}</style></defs><title>アセット 393</title><g id="レイヤー_2" data-name="レイヤー 2"><g id="waku"><rect class="cls-1" width="113.39" height="113.38"/></g><g id="編集モード"><path class="cls-2" d="M66.12,100.63V44.28c17.37-3.66,30.27-16,30.27-16h0a65.19,65.19,0,0,0-13.78-8.5A35.76,35.76,0,0,0,68,16.29,19.79,19.79,0,0,0,57.91,19c-.41.24-.81.49-1.21.77-.4-.28-.81-.53-1.21-.77a19.79,19.79,0,0,0-10.13-2.73l-1.21,0c-12.07.5-24.1,9.56-26.65,11.58l-.22.18-.27.22s12.9,12.34,30.27,16v7.18H53V28.35A3.75,3.75,0,0,1,56.7,24.6l.35,0a3.89,3.89,0,0,1,3.39,4v72.06Z"/><path class="cls-2" d="M31.34,69.45a3.54,3.54,0,0,1,0-7.09H53V56.7H31.34A9.21,9.21,0,0,0,26.8,73.91,9.18,9.18,0,0,0,32.07,87.5a9.19,9.19,0,0,0,8.32,13.14H53.86V95H40.39a3.54,3.54,0,0,1,0-7.09h5V82.21H34.68a3.54,3.54,0,0,1,0-7.09h10.7V69.45h-14Z"/></g></g></svg>