<svg xmlns="http://www.w3.org/2000/svg" viewBox="0 0 113.39 113.39"><defs><style>.cls-1{fill:none;}.cls-2{fill:#040000;}</style></defs><title>アセット 365</title><g id="レイヤー_2" data-name="レイヤー 2"><g id="waku"><rect class="cls-1" width="113.39" height="113.39"/></g><g id="編集モード"><polygon class="cls-2" points="5.7 82.29 18.58 96.58 95.12 96.58 107.75 82.29 5.7 82.29"/><path class="cls-2" d="M102,28.35V22.68H73.7a8.5,8.5,0,0,0-8.5-8.5H59.53V36.85H65.2a8.5,8.5,0,0,0,8.5-8.5Z"/><rect class="cls-2" x="31.18" y="22.68" width="8.52" height="5.67"/><path class="cls-2" d="M35.43,36.85H39.7V31.18H31.18V32.6A4.25,4.25,0,0,0,35.43,36.85Z"/><path class="cls-2" d="M39.7,14.17H35.43a4.25,4.25,0,0,0-4.25,4.25v1.42H39.7Z"/><path class="cls-2" d="M38.63,76.61c9,0,9-4.61,18.05-4.61s9,4.61,18.06,4.61S83.77,72,92.8,72a18.19,18.19,0,0,1,5,.62c-7.65-9-21.74-15.18-38.1-15.86q-1.38-.06-2.78-.06h-.22V14.17H51V56.93q-1.43.11-2.83.29v-43H42.54v44h0q-1.43.3-2.82.65c-10.24,2.62-18.76,7.54-24.11,13.82a18.2,18.2,0,0,1,5-.62C29.6,72,29.6,76.61,38.63,76.61Z"/></g></g></svg>