<svg xmlns="http://www.w3.org/2000/svg" viewBox="0 0 113.39 113.39"><defs><style>.cls-1{fill:none;}.cls-2{fill:#040000;}</style></defs><title>アセット 327</title><g id="レイヤー_2" data-name="レイヤー 2"><g id="waku"><rect class="cls-1" width="113.39" height="113.39"/></g><g id="編集モード"><path class="cls-2" d="M101.57,68H65.67L50.53,85.59a16.84,16.84,0,0,1,15.26,2h0a11,11,0,0,0,12,0,16.68,16.68,0,0,1,13.8-2.41c7.59-4.78,13.08-10.51,13.08-14.89h0C104.67,69,103.28,68,101.57,68Z"/><path class="cls-2" d="M8.45,68v21.2a12.2,12.2,0,0,0,2.86,0,9.54,9.54,0,0,0,4.52-1.68,16.72,16.72,0,0,1,19,0h0a8.9,8.9,0,0,0,3,1.38,11.7,11.7,0,0,0,2.64.38,12.25,12.25,0,0,0,1.3,0L60.05,68Z"/><path class="cls-2" d="M44.39,56.11a93.61,93.61,0,0,0,18,4.94l4.28-5c-10.9-4.2-19.8-13.61-22.16-15.55A9.53,9.53,0,0,0,41,38.58,8.44,8.44,0,0,0,30.55,44L23.61,65.2H41.39Z"/><polygon class="cls-2" points="60.05 68.03 60.06 68.03 60.05 68.03 60.05 68.03"/><path class="cls-2" d="M104.48,18.2a6.52,6.52,0,0,0-8.41,1.46L86.29,31.31a6.23,6.23,0,0,0-.69,7L60.06,68h5.59l23.1-26.89A6.35,6.35,0,0,0,96,39.38l9.91-11.81A6.28,6.28,0,0,0,104.48,18.2Z"/><circle class="cls-2" cx="45.04" cy="26.25" r="8.5"/></g></g></svg>