<svg xmlns="http://www.w3.org/2000/svg" viewBox="0 0 113.39 113.39"><defs><style>.cls-1{fill:none;}.cls-2{fill:#040000;}</style></defs><title>アセット 398</title><g id="レイヤー_2" data-name="レイヤー 2"><g id="waku"><rect class="cls-1" width="113.39" height="113.39"/></g><g id="編集モード"><path class="cls-2" d="M47.11,17C40,27.42,27.68,35.63,17.61,39.7H95.78C85.71,35.63,73.39,27.42,66.28,17Z"/><polygon class="cls-2" points="93.55 90.71 19.84 90.71 19.84 80.79 14.18 80.79 14.18 102.05 99.22 102.05 99.22 80.79 93.55 80.79 93.55 90.71"/><path class="cls-2" d="M107.72,76.55c-6.54-3.49-16.38-10.06-19.84-17h0V44H82.21V59.55h-51V44H25.51V59.55c-3.46,6.95-13.31,13.52-19.85,17Z"/><path class="cls-2" d="M59.51,2.83a5.26,5.26,0,0,1,.25,1.6c0,2.49-1.68,4.5-3.75,4.5a3.52,3.52,0,0,1-2.85-1.61l-3.32,3.31a7.12,7.12,0,1,0,11.88-7.8Z"/><path class="cls-2" d="M59.51,2.83a5.26,5.26,0,0,1,.25,1.6c0,2.49-1.68,4.5-3.75,4.5a3.52,3.52,0,0,1-2.85-1.61l-3.32,3.31a7.12,7.12,0,1,0,11.88-7.8Z"/></g></g></svg>