<svg xmlns="http://www.w3.org/2000/svg" viewBox="0 0 113.39 113.39"><defs><style>.cls-1{fill:none;}.cls-2{fill:#040000;}</style></defs><title>アセット 292</title><g id="レイヤー_2" data-name="レイヤー 2"><g id="waku"><rect class="cls-1" width="113.39" height="113.39"/></g><g id="編集モード"><path class="cls-2" d="M70.9,14.17V8.51h10V2.84H32.54V8.51h10v5.67H34A11.34,11.34,0,0,0,22.71,25.51V82.2A11.33,11.33,0,0,0,29,92.33L22.3,102H32.62l5.84-8.5H74.92l5.85,8.5H91.08l-6.66-9.69A11.33,11.33,0,0,0,90.74,82.2V25.51A11.3,11.3,0,0,0,79.4,14.17ZM48.22,8.51h17v5.67h-17ZM36.88,22.68H76.57v5.67H36.88Zm0,59.53a5.67,5.67,0,1,1,5.67-5.67A5.67,5.67,0,0,1,36.85,82.21Zm39.69,0a5.67,5.67,0,1,1,5.67-5.67A5.67,5.67,0,0,1,76.54,82.21Zm5.7-22.68a2.83,2.83,0,0,1-2.83,2.83H34a2.83,2.83,0,0,1-2.83-2.83V39.68A2.83,2.83,0,0,1,34,36.85H79.4a2.83,2.83,0,0,1,2.83,2.83Z"/></g></g></svg>