<svg xmlns="http://www.w3.org/2000/svg" viewBox="0 0 113.39 113.39"><defs><style>.cls-1{fill:none;}.cls-2{fill:#040000;}</style></defs><title>アセット 393</title><g id="レイヤー_2" data-name="レイヤー 2"><g id="waku"><rect class="cls-1" width="113.39" height="113.39"/></g><g id="編集モード"><path class="cls-2" d="M27.93,53.71H37a7.93,7.93,0,0,0-11.6-7,11,11,0,0,0-19.55,7H27.93Z"/><path class="cls-2" d="M39,17.34a7.66,7.66,0,0,1,3.22-5.08L39,7.6a13.33,13.33,0,0,0-3.15,18.87,7.55,7.55,0,0,1,1.39,5.76A7.66,7.66,0,0,1,34,37.31L37.28,42A13.33,13.33,0,0,0,40.43,23.1,7.54,7.54,0,0,1,39,17.34Z"/><path class="cls-2" d="M56.41,32.23a7.66,7.66,0,0,1-3.21,5.08L56.43,42A13.33,13.33,0,0,0,59.58,23.1a7.54,7.54,0,0,1-1.39-5.76,7.66,7.66,0,0,1,3.22-5.08L58.17,7.6A13.33,13.33,0,0,0,55,26.47,7.55,7.55,0,0,1,56.41,32.23Z"/><path class="cls-2" d="M75.56,32.23a7.66,7.66,0,0,1-3.21,5.08L75.58,42A13.33,13.33,0,0,0,78.73,23.1a7.54,7.54,0,0,1-1.39-5.76,7.66,7.66,0,0,1,3.22-5.08L77.32,7.6a13.33,13.33,0,0,0-3.15,18.87A7.55,7.55,0,0,1,75.56,32.23Z"/><circle class="cls-2" cx="85.04" cy="54.33" r="7.34"/><path class="cls-2" d="M91.16,65.2H78.92a7.34,7.34,0,0,0-7.34,7.34V78a14.7,14.7,0,0,1,1.78-.65,16.28,16.28,0,0,1,10.59.57A13.44,13.44,0,0,1,86.8,79.5a9.91,9.91,0,0,0,10.78,0c.3-.22.61-.43.93-.62V72.55h0a7.34,7.34,0,0,0-7.34-7.34Z"/><circle class="cls-2" cx="28.35" cy="68.54" r="7.34"/><path class="cls-2" d="M34.47,79.42H22.22a7.34,7.34,0,0,0-7.34,7.34h0v6A14.81,14.81,0,0,1,17.07,92a16.33,16.33,0,0,1,9.74.5,13.58,13.58,0,0,1,3.3,1.78,9.91,9.91,0,0,0,10.78,0c.3-.22.61-.43.93-.62V86.76h0A7.34,7.34,0,0,0,34.47,79.42Z"/><circle class="cls-2" cx="56.69" cy="61.51" r="6.37"/><path class="cls-2" d="M57.4,83.65q.5.3,1,.65a8.89,8.89,0,0,0,4.68,1.55V77.5c0-.06,0-.12,0-.18a6.37,6.37,0,0,0-12.75,0h0v4.23a16.47,16.47,0,0,1,1.8.19A14.77,14.77,0,0,1,57.4,83.65Z"/><path class="cls-2" d="M100.39,89.78a18.95,18.95,0,0,0-11.7-4c-.38,0-.75,0-1.12.06a18.86,18.86,0,0,0-15.33,9.37,12.73,12.73,0,0,0-8.38-3.13c-.25,0-.49,0-.73,0A12.92,12.92,0,0,0,51,104.88h56.78A19.07,19.07,0,0,0,100.39,89.78Z"/></g></g></svg>