<svg xmlns="http://www.w3.org/2000/svg" viewBox="0 0 113.39 113.39"><defs><style>.cls-1{fill:none;}.cls-2{fill:#040000;}</style></defs><title>アセット 389</title><g id="レイヤー_2" data-name="レイヤー 2"><g id="waku"><rect class="cls-1" width="113.39" height="113.39"/></g><g id="編集モード"><path class="cls-2" d="M40.65,32.37a6.16,6.16,0,0,1-2.59,4.09l3.23,4.66a11.84,11.84,0,0,0,2.79-16.76A6.07,6.07,0,0,1,43,19.73a6.17,6.17,0,0,1,2.59-4.09L42.32,11a11.84,11.84,0,0,0-2.79,16.76A6.07,6.07,0,0,1,40.65,32.37Z"/><path class="cls-2" d="M54.82,32.37a6.16,6.16,0,0,1-2.59,4.09l3.23,4.66a11.84,11.84,0,0,0,2.79-16.76,6.07,6.07,0,0,1-1.12-4.64,6.17,6.17,0,0,1,2.59-4.09L56.5,11A11.84,11.84,0,0,0,53.7,27.74,6.07,6.07,0,0,1,54.82,32.37Z"/><path class="cls-2" d="M69,32.37a6.16,6.16,0,0,1-2.59,4.09l3.23,4.66a11.84,11.84,0,0,0,2.79-16.76,6.07,6.07,0,0,1-1.12-4.64,6.17,6.17,0,0,1,2.59-4.09L70.67,11a11.84,11.84,0,0,0-2.79,16.76A6.07,6.07,0,0,1,69,32.37Z"/><path class="cls-2" d="M56.69,55.83c18.58,0,32.6-7,32.6-16.37,0-2.79-1.27-6.88-7.32-10.55L79,33.76c1.71,1,4.58,3.16,4.58,5.7,0,5.05-11.52,10.7-26.93,10.7s-26.93-5.65-26.93-10.7c0-2.54,2.87-4.66,4.58-5.7l-2.94-4.85c-6,3.66-7.32,7.76-7.32,10.55C24.1,48.79,38.11,55.83,56.69,55.83Z"/><circle class="cls-2" cx="29.27" cy="74.61" r="7.51"/><path class="cls-2" d="M96.58,81.4A7.48,7.48,0,0,0,90.21,74L51,68.46a7.48,7.48,0,0,0-8.3,5.34l-4,14H22.5a5.7,5.7,0,1,0,0,11.39H96.56V90.63h0Z"/></g></g></svg>