<svg xmlns="http://www.w3.org/2000/svg" viewBox="0 0 113.39 113.39"><defs><style>.cls-1{fill:none;}.cls-2{fill:#040000;}</style></defs><title>アセット 397</title><g id="レイヤー_2" data-name="レイヤー 2"><g id="waku"><rect class="cls-1" width="113.39" height="113.39"/></g><g id="編集モード"><path class="cls-2" d="M50.31,36.85a20.64,20.64,0,0,1,26.06,26L98.63,85h6.27V31.18H76.56L70.89,17H42.54l-3.46,8.65,5.54,5.52Z"/><path class="cls-2" d="M56.71,41.49a15.06,15.06,0,0,0-1.66.1L71.61,58.1a15,15,0,0,0-14.9-16.61Z"/><path class="cls-2" d="M90.6,85,73.71,68.2,69.6,64.1,49.06,43.62,45,39.52l-8.36-8.34L14.87,9.53,9.05,15.36,24.92,31.18H8.52V85H78.93l20.49,20.43,5.82-5.84ZM56.71,77.15A20.62,20.62,0,0,1,39.26,45.48l4.15,4.13A15,15,0,0,0,63.62,69.78l4.15,4.13A20.51,20.51,0,0,1,56.71,77.15Z"/></g></g></svg>