<svg xmlns="http://www.w3.org/2000/svg" viewBox="0 0 113.39 113.39"><defs><style>.cls-1{fill:none;}.cls-2{fill:#040000;}</style></defs><title>アセット 274</title><g id="レイヤー_2" data-name="レイヤー 2"><g id="waku"><rect class="cls-1" width="113.39" height="113.39"/></g><g id="編集モード"><path class="cls-2" d="M107.72,55.64V49.85C101,48,93.58,41.78,89.21,22.17L88.71,20H81.34l-.49,2.22c-5.67,25.44-16.5,28.38-24.16,28.38S38.2,47.62,32.53,22.17L32,20H24.66l-.49,2.22C19.8,41.77,12.36,48,5.67,49.85v5.79a23.42,23.42,0,0,0,5.65-1.93V65.2H5.67v5.67H25.5V84.56a16.16,16.16,0,0,1,2.2,1.5,3.69,3.69,0,0,0,2.23.65,4.49,4.49,0,0,0,1.24-.17V70.87h51V86.48a4.4,4.4,0,0,0,1.41.23,3.59,3.59,0,0,0,2.18-.63,16,16,0,0,1,2.08-1.44V70.87h19.9V65.2H102V53.71A23.42,23.42,0,0,0,107.72,55.64ZM25.5,65.2H17V49.76A37.11,37.11,0,0,0,25.5,36.88Zm14.18,0H31.17V36.81a37.18,37.18,0,0,0,8.51,12.9Zm14.18,0H45.34V53.7a24.13,24.13,0,0,0,8.51,2.38ZM68,65.2H59.52V56.08A24.12,24.12,0,0,0,68,53.7Zm14.12,0H73.7V49.74A37.09,37.09,0,0,0,82.15,37Zm14.23,0H87.82V36.74a37.25,37.25,0,0,0,8.56,13Z"/><path class="cls-2" d="M105.45,89.35q-.44-.36-.91-.68a12.78,12.78,0,0,0-3.07-1.49h0A14.33,14.33,0,0,0,90.58,88c-1.94,1-3.34,2.5-5.59,2.88a8.09,8.09,0,0,1-6.35-1.5h0a14,14,0,0,0-14.25-1.69c-2.31,1-3.93,2.94-6.57,3.23a8.1,8.1,0,0,1-6-1.54h0a14,14,0,0,0-16.88-.09,8.29,8.29,0,0,1-9.06.65A36.47,36.47,0,0,0,22,87.56a14,14,0,0,0-4.19-1A13.58,13.58,0,0,0,8,89.36l3.61,4.37h0a8.22,8.22,0,0,1,9.11-.45,27.64,27.64,0,0,0,4.06,2.41,14.44,14.44,0,0,0,10.08.07,20,20,0,0,0,4.07-2.39,8.24,8.24,0,0,1,9.3.38h0a14,14,0,0,0,14,1.77c2.12-.91,3.67-2.64,6-3.15A8.14,8.14,0,0,1,75,93.73h0a14,14,0,0,0,14.11,1.76c2.28-1,3.9-2.89,6.45-3.27a8.18,8.18,0,0,1,6.26,1.51h0Z"/></g></g></svg>