<svg xmlns="http://www.w3.org/2000/svg" viewBox="0 0 113.39 113.39"><defs><style>.cls-1{fill:none;}.cls-2{fill:#040000;}</style></defs><title>アセット 360</title><g id="レイヤー_2" data-name="レイヤー 2"><g id="waku"><rect class="cls-1" width="113.39" height="113.39"/></g><g id="編集モード"><path class="cls-2" d="M86.79,51A30.23,30.23,0,0,0,58.11,20.84V8.51H52.44V20.84A30.23,30.23,0,0,0,23.81,51h63Z"/><rect class="cls-2" x="53.18" y="56.69" width="4.25" height="12.76"/><rect class="cls-2" x="53.18" y="73.7" width="4.25" height="12.76"/><rect class="cls-2" x="53.18" y="90.71" width="4.25" height="12.76"/><polygon class="cls-2" points="43.77 69.45 44.9 56.69 40.63 56.69 39.5 69.45 43.77 69.45"/><polygon class="cls-2" points="39.17 73.7 38.07 86.46 42.34 86.46 43.44 73.7 39.17 73.7"/><polygon class="cls-2" points="37.68 90.71 36.45 103.46 40.73 103.46 41.95 90.71 37.68 90.71"/><polygon class="cls-2" points="34.09 56.69 29.7 56.69 26.39 69.45 30.79 69.45 34.09 56.69"/><polygon class="cls-2" points="29.71 73.7 25.31 73.7 21.98 86.46 26.37 86.46 29.71 73.7"/><polygon class="cls-2" points="25.29 90.71 20.9 90.71 17.6 103.46 21.99 103.46 25.29 90.71"/><polygon class="cls-2" points="71.05 69.45 69.92 56.69 65.65 56.69 66.79 69.45 71.05 69.45"/><polygon class="cls-2" points="71.44 73.7 67.17 73.7 68.28 86.46 72.55 86.46 71.44 73.7"/><polygon class="cls-2" points="68.66 90.71 69.78 103.46 74.05 103.46 72.93 90.71 68.66 90.71"/><polygon class="cls-2" points="79.73 69.45 84.12 69.45 80.82 56.69 76.43 56.69 79.73 69.45"/><polygon class="cls-2" points="84.09 86.46 88.48 86.46 85.17 73.7 80.78 73.7 84.09 86.46"/><polygon class="cls-2" points="88.52 103.46 92.91 103.46 89.61 90.71 85.21 90.71 88.52 103.46"/></g></g></svg>