<svg xmlns="http://www.w3.org/2000/svg" viewBox="0 0 113.39 113.39"><defs><style>.cls-1{fill:none;}.cls-2{fill:#040000;}</style></defs><title>アセット 273</title><g id="レイヤー_2" data-name="レイヤー 2"><g id="waku"><rect class="cls-1" width="113.39" height="113.39"/></g><g id="編集モード"><path class="cls-2" d="M100.93,37.68c-3.43-5.52-6.67-10.74-14.22-10.74s-10.59,5.4-13.53,10.62A40.57,40.57,0,0,1,65.9,47.67c-5.64-5.18-9.1-10.59-12.2-15.47-4.88-7.67-9.1-14.29-19.22-14.29-9.84,0-13.74,6.9-17.86,14.2C13.19,38.19,9.31,45.06,1.25,50.5l3.17,4.7c1.13-.76,2.18-1.55,3.17-2.35,7.07-5.73,10.85-12.43,14-17.94,4.2-7.44,6.68-11.32,12.92-11.32,6.71,0,9.42,3.79,14.44,11.66A82.11,82.11,0,0,0,60.32,50.18h0a14.38,14.38,0,0,1,2,2.66c3,5.4-.22,10.1-6.44,13.77H82.46c.8-4.33-2-9.53-7.7-13.77a33.29,33.29,0,0,0-3.66-2.35,49.25,49.25,0,0,0,7-10.15c3-5.36,4.53-7.73,8.59-7.73s6,2.62,9.4,8.06c2.32,3.73,5.11,8.22,9.76,12.18A34.62,34.62,0,0,0,109,55.2l1.58-2.35,1.58-2.35C106.55,46.73,103.56,41.92,100.93,37.68Z"/><path class="cls-2" d="M41,76.53a9.47,9.47,0,0,0-1.84,1.86,14.5,14.5,0,0,0-1.35,2.13c-3.7,7.13-1.21,16.81,7.72,21.54H92.79c-12.33-7.5-19.35-15.83-18.34-21.54a5.75,5.75,0,0,1,.84-2.13,5.5,5.5,0,0,1,2.06-1.86H90.71V87.87h8.51V76.53h11.34V70.87H2.83v5.66H17V87.87h8.5V76.53Z"/></g></g></svg>