<svg xmlns="http://www.w3.org/2000/svg" viewBox="0 0 113.39 113.39"><defs><style>.cls-1{fill:none;}.cls-2{fill:#040000;}</style></defs><title>アセット 418</title><g id="レイヤー_2" data-name="レイヤー 2"><g id="waku"><rect class="cls-1" width="113.39" height="113.39"/></g><g id="編集モード"><polygon class="cls-2" points="73.25 84.03 80.84 99.21 90.34 99.21 81.4 81.32 73.25 84.03"/><polygon class="cls-2" points="44.28 93.68 47.05 99.21 56.55 99.21 52.43 90.97 44.28 93.68"/><path class="cls-2" d="M90.71,78l2.84-4.25-5.09-5.12-9-9-3.2,5.55-26,2.17A46.82,46.82,0,0,1,44.11,59l-.75-1.2A108.13,108.13,0,0,0,50.78,46c5.34-9.47,8.51-14.41,16.64-14.41,8.74,0,12.43,5.93,18,14.9,4.23,6.81,9.4,15.12,18.38,22.12,1,.8,2.09,1.59,3.22,2.35l1.58-2.35h0l1.58-2.35c-10-6.75-15.3-15.26-20-22.76-5.61-9-10.92-17.58-22.81-17.58s-16.56,8.4-21.58,17.29c-1.79,3.16-3.68,6.5-6,9.82a11.87,11.87,0,0,0-9.18-4.14c-7.16,0-10,5.09-12.81,10-2.25,4-4.8,8.51-10,12l1.58,2.35h0L11,75.62A30.83,30.83,0,0,0,14,73.27c4.33-3.78,6.75-8,8.75-11.6,2.79-4.95,4.18-7.13,7.87-7.13,2.45,0,4,1,5.65,3,.54.67,1.09,1.47,1.68,2.37.41.63.84,1.31,1.3,2.06l.27.43a64.33,64.33,0,0,0,4,5.85q-.41.15-.81.32a12.48,12.48,0,0,0-6.52,6.74L26.67,99.2h9.05l6.44-9.29h0l18.78-6.16V99.21h8.5V80.95l9.13-3Z"/><path class="cls-2" d="M19.6,31.08a5.68,5.68,0,0,0,0,8l6.93-6.93c10.56,9.48,15.13,4.92,15.13,4.92l-10-10,8-8a5.68,5.68,0,0,0-8,0l-4,4-10-10S13,17.63,22.51,28.18Z"/></g></g></svg>