<svg xmlns="http://www.w3.org/2000/svg" viewBox="0 0 113.39 113.39"><defs><style>.cls-1{fill:none;}.cls-2{fill:#040000;}</style></defs><title>アセット 415</title><g id="レイヤー_2" data-name="レイヤー 2"><g id="waku"><rect class="cls-1" width="113.39" height="113.39"/></g><g id="編集モード"><path class="cls-2" d="M106.15,76.1,67.43,14.45a12.66,12.66,0,0,0-21.48,0L7.24,76.1a10,10,0,0,0,3,13.73l4.57,2.95L17,94.17v13.54H96.38V94.18l2.18-1.41,4.57-2.95A10,10,0,0,0,106.15,76.1ZM49.61,85H41.1v-8.5h8.5ZM61,62.36h-8.5v-8.5H61ZM72.28,85h-8.5v-8.5h8.5Zm28.54,1.21L96.25,89.2l-39.56-63-39.56,63-4.57-2.95a5.76,5.76,0,0,1-1.73-7.89L49.55,16.71a8.4,8.4,0,0,1,14.28,0l38.72,61.64A5.76,5.76,0,0,1,100.82,86.25Z"/></g></g></svg>