<svg xmlns="http://www.w3.org/2000/svg" viewBox="0 0 113.39 113.39"><defs><style>.cls-1{fill:none;}.cls-2{fill:#040000;}</style></defs><title>アセット 283</title><g id="レイヤー_2" data-name="レイヤー 2"><g id="waku"><rect class="cls-1" width="113.39" height="113.39"/></g><g id="編集モード"><path class="cls-2" d="M93.56,48.19c-10.07-4.08-15.79-12.46-17.3-22.68h0a7.78,7.78,0,0,0,.27-2.06c0-4.1-2.9-6.44-5.76-6.44l-1.68,2.8c2.1.38,3.19,1.43,3.19,3.2a2.83,2.83,0,0,1-1.47,2.5H42.57A2.83,2.83,0,0,1,41.1,23c0-1.76,1.09-2.82,3.19-3.2L42.62,17c-2.87,0-5.77,2.34-5.77,6.44a7.79,7.79,0,0,0,.27,2.06h0c-1.51,10.22-7.2,18.6-17.28,22.68Z"/><rect class="cls-2" x="28.35" y="53.86" width="14.19" height="11.34"/><rect class="cls-2" x="70.87" y="53.86" width="14.17" height="11.34"/><path class="cls-2" d="M56.71,52.44,42.89,70.87H21.25C18.63,79.44,11,89.16,2.85,93.54H110.56c-8.12-4.39-15.82-14.1-18.44-22.68H70.53Zm0,9.45,6.73,9H50Z"/></g></g></svg>