<svg xmlns="http://www.w3.org/2000/svg" viewBox="0 0 113.39 113.39"><defs><style>.cls-1{fill:none;}.cls-2{fill:#040000;}</style></defs><title>アセット 328</title><g id="レイヤー_2" data-name="レイヤー 2"><g id="waku"><rect class="cls-1" width="113.39" height="113.39"/></g><g id="編集モード"><path class="cls-2" d="M22.7,45.35l-5.8,8.5H28.31c-.52,14.42-5.64,32.57-18.72,43v0H101v0c-10.83-8.6-17.47-24.53-18-43H96.4l-5.67-8.5Zm32.6,34c-10.22,0-18.51-9.46-18.51-21.14a24.11,24.11,0,0,1,.4-4.37H73.4a24.11,24.11,0,0,1,.4,4.37C73.81,69.91,65.52,79.37,55.29,79.37Z"/><path class="cls-2" d="M66.08,41.08H82.22q0-.7,0-1.39A26.94,26.94,0,0,0,62.36,15.09V8.5H48.19v6.6A26.94,26.94,0,0,0,28.4,39.69q0,.69,0,1.39H66.08Z"/></g></g></svg>