<svg xmlns="http://www.w3.org/2000/svg" viewBox="0 0 113.39 113.39"><defs><style>.cls-1{fill:none;}.cls-2{fill:#040000;}</style></defs><title>アセット 376</title><g id="レイヤー_2" data-name="レイヤー 2"><g id="waku"><rect class="cls-1" width="113.39" height="113.39"/></g><g id="編集モード"><rect class="cls-2" x="51.06" y="96.38" width="56.69" height="5.67"/><path class="cls-2" d="M102.91,56.62l7.67-8.42L105.06,46,94.18,51.87,72.93,42,90.74,17l-8.5-2.83L54,33.19c-10.83-5-20-9.23-21.61-9.91-5.07-2.1-7.22-2.85-11.54-3.29A29.94,29.94,0,0,0,8.79,21.6c-2.48,1-3.41,2.43-3,3.83C6.48,27.77,12.26,30,12.26,30l72.2,29.18C90.56,61.69,98.25,61.76,102.91,56.62Z"/></g></g></svg>