<svg xmlns="http://www.w3.org/2000/svg" viewBox="0 0 113.39 113.39"><defs><style>.cls-1{fill:none;}.cls-2{fill:#040000;}</style></defs><title>アセット 358</title><g id="レイヤー_2" data-name="レイヤー 2"><g id="waku"><rect class="cls-1" width="113.39" height="113.39"/></g><g id="編集モード"><path class="cls-2" d="M9.92,59.63l8.5,48.09h34l8.5-48.09ZM54.18,65.3l-2,11.24H18.67l-2-11.24Z"/><polygon class="cls-2" points="49.61 13.05 49.61 19.81 104.88 19.79 104.88 11.32 49.61 13.05"/><polygon class="cls-2" points="21.26 13.94 14.17 14.16 14.17 19.82 21.26 19.82 21.26 13.94"/><polygon class="cls-2" points="21.26 22.66 14.17 22.66 14.17 28.44 21.26 28.65 21.26 22.66"/><polygon class="cls-2" points="49.61 29.5 104.88 31.16 104.88 22.66 49.61 22.66 49.61 29.5"/><rect class="cls-2" x="24.1" y="11.32" width="5.67" height="43.95"/><rect class="cls-2" x="32.6" y="11.32" width="5.67" height="43.95"/><rect class="cls-2" x="41.1" y="11.32" width="5.67" height="43.95"/></g></g></svg>