<svg xmlns="http://www.w3.org/2000/svg" viewBox="0 0 113.39 113.39"><defs><style>.cls-1{fill:none;}.cls-2{fill:#040000;}</style></defs><title>アセット 333</title><g id="レイヤー_2" data-name="レイヤー 2"><g id="waku"><rect class="cls-1" width="113.39" height="113.39"/></g><g id="編集モード"><path class="cls-2" d="M32.83,40.21l3,4.15a47.71,47.71,0,0,1,11.74-4.43A36.7,36.7,0,0,1,57,39.05a59.53,59.53,0,0,1-6.33,11.61A114.47,114.47,0,0,1,39,64.52l-18,.61,2.34,7.66,18,2.77a4.43,4.43,0,0,0,3.49-1l.8-.67,10.1-8.42,10.38,7L59.11,89.3h7.57L77.44,73.09a4.69,4.69,0,0,0-.6-5.92l-.71-.7L65.35,55.74l5.24-9.34a17.08,17.08,0,0,0,14.79,4.87,30.35,30.35,0,0,0,13.83-6l-2.7-4.36C91.93,43,86.56,44,82.9,43.14c-3.07-.75-5.63-4.1-7.29-8.58a9.07,9.07,0,0,0-4.27-5.24c-6.18-3.5-15.56-.65-19.52.64a67.1,67.1,0,0,0-11.24,4.78A71.74,71.74,0,0,0,32.83,40.21Z"/><circle class="cls-2" cx="76.59" cy="18.76" r="7.8" transform="translate(-0.68 3.01) rotate(-2.24)"/><path class="cls-2" d="M70.87,92.13H51V97.8H70.9a8.5,8.5,0,0,0,8.49-8.49H73.72A2.83,2.83,0,0,1,70.87,92.13Z"/><path class="cls-2" d="M16.73,60.66l-5.42,1.65,5.8,19A8.47,8.47,0,0,0,27.7,87L26,81.55a2.82,2.82,0,0,1-3.53-1.91Z"/></g></g></svg>