<svg xmlns="http://www.w3.org/2000/svg" viewBox="0 0 113.39 113.39"><defs><style>.cls-1{fill:none;}.cls-2{fill:#040000;}</style></defs><title>アセット 324</title><g id="レイヤー_2" data-name="レイヤー 2"><g id="waku"><rect class="cls-1" width="113.39" height="113.39"/></g><g id="編集モード"><polygon class="cls-2" points="90.95 8.54 80.01 7.78 70.21 24.09 76.55 25.43 90.95 8.54"/><polygon class="cls-2" points="98.69 18.88 83.23 31.24 85.32 32.22 89.56 34.07 108.63 23.52 98.69 18.88"/><circle class="cls-2" cx="14.96" cy="59.19" r="2.84"/><circle class="cls-2" cx="19.92" cy="51.39" r="3.54"/><circle class="cls-2" cx="11.42" cy="42.89" r="4.96"/><path class="cls-2" d="M17.9,78a7.79,7.79,0,1,0-3.11-9.9,7.76,7.76,0,0,0-.38,5.39L10.9,76.59l3.79,4.25Z"/><path class="cls-2" d="M72.8,49.65c.08-.39.17-.78.24-1.17.59-3.42,1.09-6.8,1.54-10.18q.34-2.53.64-5.07l.3-2.53.27-2.47v-.07l-6.23-1.23c-4.09,14.82-12.89,34-13.4,34.26L37.67,71.69A6.92,6.92,0,0,0,35.24,74h0l-.07.11c-4.65,7.57-11.06,15.49-15,19-2,1.8-4.17,3.51-6.34,5.16l2.47,4.21A106,106,0,0,0,26,97.27,225.72,225.72,0,0,0,45.25,83.37S56.41,77,66.69,71c11.24-6.58,19.73-24,21.39-34.5l-5.9-2.58A69.36,69.36,0,0,1,72.8,49.65Z"/><path class="cls-2" d="M34.13,57.64a5,5,0,1,0,4.67,8.75l15.27-8.15L49.4,49.49Z"/></g></g></svg>