<svg xmlns="http://www.w3.org/2000/svg" viewBox="0 0 113.39 113.39"><defs><style>.cls-1{fill:none;}.cls-2{fill:#040000;}</style></defs><title>アセット 404</title><g id="レイヤー_2" data-name="レイヤー 2"><g id="waku"><rect class="cls-1" width="113.39" height="113.39"/></g><g id="編集モード"><polygon class="cls-2" points="96.42 83.36 100.56 78.3 92.55 58.27 81.92 61.81 69.57 49.47 66.33 53.36 80.63 67.61 89.6 64.62 94.71 77.41 92.79 79.75 96.42 83.36"/><path class="cls-2" d="M30.15,25.3l28.28-9.38a11.42,11.42,0,0,1,7.22.06l25.06,8.66a1.59,1.59,0,0,1-.79,3.07L67.6,23.92a15.43,15.43,0,0,0-2.77-.18,9,9,0,0,0-3.39.44L48,28.66l2.41,5.17,12.86-4.27a3.35,3.35,0,0,1,4.25,2.18,3.37,3.37,0,0,1-2.14,4.17L53,40l2.25,2.24,2.25,2.24,9.66-3.22A9.06,9.06,0,0,0,73,30.59L89,33.3a7.26,7.26,0,0,0,3.58-14L67.5,10.62a17.12,17.12,0,0,0-10.88-.05l0,0L25.67,20.82,14.34,9.53,8.52,15.36l8.39,8.37-10,3.33,1.77,5.36h0L21.4,28.21,38.2,45l-11.6,3.88,1.78,5.38L42.7,49.44l13,12.93L43.17,58.08,37.43,88.69l22.8,19.19,8.29-9.94-5-2-4,4.69L43,86.71l4.11-21.9,7.54,2.59-4.94,5.92,3.91,3.26L61,67.7l3.71,3.7L58.63,89.12l25,9.83,3.9-4.77,11.32,11.28,5.82-5.84ZM82.07,92.85,65,86.17l3.7-10.75L83.94,90.57Z"/></g></g></svg>