<svg xmlns="http://www.w3.org/2000/svg" viewBox="0 0 113.39 113.39"><defs><style>.cls-1{fill:none;}.cls-2{fill:#040000;}</style></defs><title>アセット 301</title><g id="レイヤー_2" data-name="レイヤー 2"><g id="waku"><rect class="cls-1" width="113.39" height="113.39"/></g><g id="編集モード"><path class="cls-2" d="M82.54,20.75C61.83,6.18,28.63,6.14,8.1,20.66L28.29,53.91a28.58,28.58,0,0,0-4.23,3.94,28.34,28.34,0,1,0,49.5,21.52h34.16V73.7H73.55a28.23,28.23,0,0,0-6.91-15.85,28.58,28.58,0,0,0-4.24-3.94h0ZM57.67,25.34a48.87,48.87,0,0,1,12.7,4.54L57.56,51a28.15,28.15,0,0,0-4.32-1.64Zm-5.59-.93-4.4,23.88c-.77-.06-1.54-.1-2.32-.1s-1.56,0-2.32.1L38.61,24.37A61.14,61.14,0,0,1,52.07,24.41Zm-31.8,5.37A48,48,0,0,1,33,25.27l4.43,24.05A28.13,28.13,0,0,0,33.13,51ZM45.35,99.21A22.66,22.66,0,0,1,31.25,58.79L42.3,77l1.45,2.39H67.84A22.71,22.71,0,0,1,45.35,99.21ZM36.1,55.84a22.33,22.33,0,0,1,8-1.94c.43,0,.86,0,1.29,0s.86,0,1.29,0a22.61,22.61,0,0,1,12.8,4.89h0A22.88,22.88,0,0,1,63.52,63,22.56,22.56,0,0,1,67.84,73.7H46.94Z"/></g></g></svg>