<svg xmlns="http://www.w3.org/2000/svg" viewBox="0 0 113.39 113.39"><defs><style>.cls-1{fill:none;}.cls-2{fill:#040000;}</style></defs><title>アセット 296</title><g id="レイヤー_2" data-name="レイヤー 2"><g id="waku"><rect class="cls-1" width="113.39" height="113.39"/></g><g id="編集モード"><path class="cls-2" d="M99.21,56.63V21.38a9.11,9.11,0,0,0-12.26-8.55L20.13,37.45a9.11,9.11,0,0,0-6,8.55V88l85-31.34Zm-75.93,8V47a3,3,0,0,1,2-2.85l10.16-3.75v22L23.28,66.87ZM41.5,38.14l12.14-4.48v22L41.5,60.16Zm18.22-6.71,12.16-4.48V49L59.72,53.44ZM90.1,42.25,77.95,46.72v-22l8.06-3a3,3,0,0,1,4.09,2.85Z"/><polygon class="cls-2" points="8.5 96.94 8.5 102.98 104.88 67.47 104.88 61.43 8.5 96.94"/></g></g></svg>