<svg xmlns="http://www.w3.org/2000/svg" viewBox="0 0 113.39 113.39"><defs><style>.cls-1{fill:none;}.cls-2{fill:#040000;}</style></defs><title>アセット 309</title><g id="レイヤー_2" data-name="レイヤー 2"><g id="waku"><rect class="cls-1" width="113.39" height="113.39"/></g><g id="編集モード"><polygon class="cls-2" points="30.36 31.18 24.39 31.18 2.76 96.38 8.73 96.38 30.36 31.18"/><polygon class="cls-2" points="97.5 56.69 91.53 56.69 104.69 96.38 110.67 96.38 97.5 56.69"/><path class="cls-2" d="M22.68,89.2h3.59v7.18h7.18V89.2H65.76v7.18h7.18V89.2h3.59V74.83a7.18,7.18,0,0,0-5.69-7l-3-8.07a7.21,7.21,0,0,0-6.72-4.66H38a7.21,7.21,0,0,0-6.72,4.66l-3,8.08a7.17,7.17,0,0,0-5.61,7ZM33.45,82A3.59,3.59,0,1,1,37,78.42,3.59,3.59,0,0,1,33.45,82ZM36,61.13a3.76,3.76,0,0,1,3.52-2.45H59.68a3.76,3.76,0,0,1,3.52,2.45l2.44,6.52H33.57ZM65.76,82a3.59,3.59,0,1,1,3.59-3.59A3.59,3.59,0,0,1,65.76,82Z"/><path class="cls-2" d="M48.19,42.52H51v5.67h5.67V42.52H82.2v5.67h5.67V42.52h2.83V31.18a5.67,5.67,0,0,0-4.49-5.54l-2.39-6.37a5.7,5.7,0,0,0-5.31-3.68H60.32A5.7,5.7,0,0,0,55,19.27l-2.39,6.38a5.66,5.66,0,0,0-4.43,5.53Zm8.5-5.67A2.83,2.83,0,1,1,59.53,34,2.83,2.83,0,0,1,56.69,36.85Zm.09-11.34.25-.67,1.67-4.48a3,3,0,0,1,2.78-1.93H77.4a3,3,0,0,1,2.78,1.93l1.92,5.15ZM82.2,36.85A2.83,2.83,0,1,1,85,34,2.83,2.83,0,0,1,82.2,36.85Z"/></g></g></svg>