<svg xmlns="http://www.w3.org/2000/svg" viewBox="0 0 113.39 113.39"><defs><style>.cls-1{fill:none;}.cls-2{fill:#040000;}</style></defs><title>アセット 306</title><g id="レイヤー_2" data-name="レイヤー 2"><g id="waku"><rect class="cls-1" width="113.39" height="113.39"/></g><g id="編集モード"><path class="cls-2" d="M39,75.94A36.27,36.27,0,1,1,76,39.69a36,36,0,0,1-2.77,13.89H67.58a30.75,30.75,0,0,0,3.28-13.89A31.17,31.17,0,1,0,39.68,70.86l1.21,0Z"/><path class="cls-2" d="M43,99.09h4.31v8.63h8.63V99.09H94.77v8.63h8.63V99.09h4.31V81.84a8.63,8.63,0,0,0-6.83-8.44l-3.63-9.69a8.67,8.67,0,0,0-8.08-5.6H61.47a8.67,8.67,0,0,0-8.08,5.6l-1.68,4.47-2,5.24A8.62,8.62,0,0,0,43,81.84Zm12.94-8.63a4.31,4.31,0,1,1,4.31-4.31A4.31,4.31,0,0,1,55.95,90.46ZM59,65.37a4.52,4.52,0,0,1,4.23-2.94H87.46a4.52,4.52,0,0,1,4.23,2.94l2.93,7.84H56.09ZM94.77,90.46a4.31,4.31,0,1,1,4.31-4.31A4.31,4.31,0,0,1,94.77,90.46Z"/><path class="cls-2" d="M46.3,42.08A9.89,9.89,0,0,0,42.74,23H29.34V57.49h5.91V42.75H40l7.37,14.74H54Zm-3.55-5.24H35.25v-8h7.49a4,4,0,0,1,0,8Z"/></g></g></svg>