<svg xmlns="http://www.w3.org/2000/svg" viewBox="0 0 113.39 113.39"><defs><style>.cls-1{fill:none;}.cls-2{fill:#040000;}</style></defs><title>アセット 308</title><g id="レイヤー_2" data-name="レイヤー 2"><g id="waku"><rect class="cls-1" width="113.39" height="113.39"/></g><g id="編集モード"><path class="cls-2" d="M39.78,76A36.31,36.31,0,1,1,74,51.58H68.59A30.89,30.89,0,0,0,71,39.69,31.17,31.17,0,1,0,48.54,69.6l-2.23,5.74A36.29,36.29,0,0,1,39.78,76Z"/><path class="cls-2" d="M82.25,71.87h-25l3.54-9.09a4.09,4.09,0,0,1,3.33-2.28h5.91V56.12H64.15a8,8,0,0,0-4.33,1.41l-.28.2a8,8,0,0,0-2.79,3.46L49.38,80.11a14,14,0,1,0,4.08,1.57L55.29,77l.29-.74H75.85L68.18,96H79.9a14,14,0,1,0,0-4.38H74.58ZM56,93.77a9.71,9.71,0,1,1-8.27-9.52L44.38,93l4.08,1.59,3.39-8.73A9.62,9.62,0,0,1,56,93.77Zm37.67,9.62A9.63,9.63,0,0,1,84.35,96h9.36V91.58H84.35a9.62,9.62,0,1,1,9.36,11.81Z"/><rect class="cls-2" x="75.98" y="64" width="13.79" height="4.38"/><path class="cls-2" d="M54.1,57.49l-7.7-15.41A9.89,9.89,0,0,0,42.84,23H29.44V57.49h5.91V42.75h4.77l7.37,14.74ZM42.84,36.84H35.35v-8h7.49a4,4,0,0,1,0,8Z"/></g></g></svg>