<svg xmlns="http://www.w3.org/2000/svg" viewBox="0 0 113.39 113.39"><defs><style>.cls-1{fill:none;}.cls-2{fill:#040000;}</style></defs><title>アセット 304</title><g id="レイヤー_2" data-name="レイヤー 2"><g id="waku"><rect class="cls-1" width="113.39" height="113.39"/></g><g id="編集モード"><path class="cls-2" d="M90.74,53.86a19.84,19.84,0,0,0-19.6,17H62.76l11-28.35H37.88L43.14,29a6.15,6.15,0,0,1,5.08-3.48h8.5V19.84h-8.5a11.82,11.82,0,0,0-10.37,7.09L27.18,54.38a19.85,19.85,0,1,0,5.28,2.06l3.22-8.27H65.5l-11,28.35H71.14a19.82,19.82,0,1,0,19.6-22.66ZM36.87,73.69A14.25,14.25,0,1,1,25.09,59.74l-5,12.91,5.28,2.05,5-12.91A14.15,14.15,0,0,1,36.87,73.69ZM90.74,87.84A14.18,14.18,0,0,1,76.87,76.52H90.74V70.85H76.87a14.16,14.16,0,1,1,13.87,17Z"/><rect class="cls-2" x="65.23" y="31.18" width="19.84" height="5.67"/></g></g></svg>