<svg xmlns="http://www.w3.org/2000/svg" viewBox="0 0 113.39 113.39"><defs><style>.cls-1{fill:none;}.cls-2{fill:#040000;}</style></defs><title>アセット 360</title><g id="レイヤー_2" data-name="レイヤー 2"><g id="waku"><rect class="cls-1" width="113.39" height="113.39"/></g><g id="編集モード"><path class="cls-2" d="M104.27,32.8c.06-.64.1-1.29.1-1.95a19.3,19.3,0,0,0-37.29-7A19.29,19.29,0,0,0,30.35,35.37l-.81,1.78A19,19,0,0,0,21,55.92l-2.28,5a19.28,19.28,0,0,0-6.9,14.78c0,.13,0,.25,0,.38L9.19,81.95a10.27,10.27,0,0,0,9.39,14.43H74.51A10.27,10.27,0,0,0,84,89.92l20.1-49.85A10.15,10.15,0,0,0,104.27,32.8ZM71.45,30.85A13.52,13.52,0,0,1,72.36,26l.09-.25.31.25c2.63,2,7.15,3.35,12.29,3.35,4.9,0,9.23-1.21,11.9-3.07.25-.17.48-.35.7-.53.11.27.21.55.3.83a13.49,13.49,0,0,1-1.84,12.19H89a11.18,11.18,0,0,0-1.39-.92,19.11,19.11,0,0,0-15.68-3.41A13.55,13.55,0,0,1,71.45,30.85ZM80.7,75.71a13.52,13.52,0,0,1-2.55,7.9H56a13.53,13.53,0,0,1-1.52-13.09c2.58,2.14,7.23,3.57,12.56,3.57a25.2,25.2,0,0,0,8.85-1.5,13.15,13.15,0,0,0,3.73-2.09,14.29,14.29,0,0,1,1,5.2Zm-60.61,7.9a13.53,13.53,0,0,1-1.52-13.09c2.58,2.14,7.23,3.57,12.56,3.57A25.2,25.2,0,0,0,40,72.59a13.15,13.15,0,0,0,3.73-2.09,13.53,13.53,0,0,1-1.51,13.11ZM79.78,61.18A19.15,19.15,0,0,0,63,56.85a13.36,13.36,0,0,1,.91-9.54H65c2.69,1.74,6.88,2.86,11.58,2.86a28.1,28.1,0,0,0,4.63-.38,18.71,18.71,0,0,0,6.95-2.47h.09a13.49,13.49,0,0,1-1.15,13.87ZM62.72,30.85a13.52,13.52,0,0,1-2.55,7.9H53.06a11.14,11.14,0,0,0-1.39-.92A19.11,19.11,0,0,0,36,34.42a13.78,13.78,0,0,1,.52-8.69,10.27,10.27,0,0,0,1.23.89,22.44,22.44,0,0,0,11.37,2.71c5.14,0,9.66-1.33,12.29-3.35l.31-.25.09.25A13.51,13.51,0,0,1,62.72,30.85ZM26.52,53.28a13.52,13.52,0,0,1,1.71-6.58c2.61,2.08,7.2,3.47,12.44,3.47a28.1,28.1,0,0,0,4.63-.38,18.71,18.71,0,0,0,6.95-2.47h.09a13.49,13.49,0,0,1-1.15,13.87H43.84A19.15,19.15,0,0,0,27,56.85,13.54,13.54,0,0,1,26.52,53.28Z"/></g></g></svg>