<svg xmlns="http://www.w3.org/2000/svg" viewBox="0 0 113.39 113.39"><defs><style>.cls-1{fill:none;}.cls-2{fill:#040000;}</style></defs><title>アセット 362</title><g id="レイヤー_2" data-name="レイヤー 2"><g id="waku"><rect class="cls-1" width="113.39" height="113.39"/></g><g id="編集モード"><path class="cls-2" d="M86.85,35.76a49.26,49.26,0,0,1,5.37,2A17.32,17.32,0,0,0,71.35,16.87a17,17,0,0,0-3.51,1.26,17.28,17.28,0,0,0-24.56,1.14A17.28,17.28,0,0,0,21.21,29.33,17.32,17.32,0,0,0,4.52,50.68a17.24,17.24,0,0,0,3.34,6.8,27.94,27.94,0,0,1,2.72-4.33c.2-.27.42-.53.63-.79a11.71,11.71,0,0,1-1.18-3,11.66,11.66,0,0,1,8.62-14A11.43,11.43,0,0,1,21.32,35a11.89,11.89,0,0,1,1.57.1l2.55.34L26,32.93a11.62,11.62,0,0,1,16.79-7.68l2.25,1.19,1.43-2.1a11.62,11.62,0,0,1,18.63-.84l1.63,2,2.14-1.43a11.64,11.64,0,0,1,18,11.7Z"/><path class="cls-2" d="M31.7,46.12c-6.88,2.8-12.34,6.49-15.86,11A21.61,21.61,0,0,0,13,61.95,21.1,21.1,0,0,0,12,75.3c2.16,9.23,9.7,14.87,19.66,18Z"/><path class="cls-2" d="M81.23,93.73V41c-4.3-1.22-17.16-1.87-20.54-1V96.25A124.65,124.65,0,0,0,81.23,93.73Z"/><path class="cls-2" d="M90.14,43.81a43.73,43.73,0,0,0-4.69-1.74V92.66c15.82-4.51,22.28-12.87,22.28-25.18C107.73,57.75,101.49,48.81,90.14,43.81Z"/><path class="cls-2" d="M56.47,96.36v-56a94.11,94.11,0,0,0-20.54,4.22V94.4A92.26,92.26,0,0,0,56.47,96.36Z"/></g></g></svg>