<svg xmlns="http://www.w3.org/2000/svg" viewBox="0 0 113.39 113.39"><defs><style>.cls-1{fill:none;}.cls-2{fill:#040000;}</style></defs><title>アセット 285</title><g id="レイヤー_2" data-name="レイヤー 2"><g id="waku"><rect class="cls-1" width="113.39" height="113.39"/></g><g id="編集モード"><path class="cls-2" d="M88.94,82.48a68.45,68.45,0,0,0-7.56-6L88,65.73a57.61,57.61,0,0,0-12.52,7.12C74.38,72.22,73.2,71.6,72,71L45.74,56.48,39.43,66.7C22.7,70.55,10.48,82.39,9.87,83L8.33,84.5,9.87,86c.73.71,18,17.48,39.8,17.48,9.93,0,18.92-3.49,25.84-7.35A57.62,57.62,0,0,0,88,103.28L81.37,92.51a66.88,66.88,0,0,0,7.85-6.25l12.84,12.33L97.13,84.66l4.93-14.23Zm-74.4,2,0,0c2.36-1.2,15.51-7.42,34.94-7.42,20.16,0,33.58,6.69,35.18,7.53-4.82,4.1-18.82,14.66-35,14.66S19.27,88.54,14.54,84.5Z"/><circle class="cls-2" cx="27.79" cy="84.5" r="2.35"/><path class="cls-2" d="M102.07,18.89,88.94,30.94a68.48,68.48,0,0,0-7.56-6L88,14.2a57.61,57.61,0,0,0-12.52,7.12c-1.13-.63-2.3-1.25-3.54-1.84L45.74,4.95,39.43,15.17C22.7,19,10.48,30.86,9.87,31.46L8.33,33l1.54,1.52c.73.71,18,17.48,39.8,17.48,9.93,0,18.92-3.49,25.84-7.35A57.63,57.63,0,0,0,88,51.75L81.37,41a66.87,66.87,0,0,0,7.85-6.25l12.84,12.33L97.13,33.12ZM14.54,33l0,0c2.36-1.2,15.51-7.42,34.94-7.42,20.16,0,33.58,6.69,35.18,7.53-4.82,4.1-18.82,14.66-35,14.66S19.27,37,14.54,33Z"/><circle class="cls-2" cx="27.79" cy="32.97" r="2.35"/></g></g></svg>