<svg xmlns="http://www.w3.org/2000/svg" viewBox="0 0 113.39 113.39"><defs><style>.cls-1{fill:none;}.cls-2{fill:#040000;}</style></defs><title>アセット 369</title><g id="レイヤー_2" data-name="レイヤー 2"><g id="waku"><rect class="cls-1" width="113.39" height="113.39"/></g><g id="編集モード"><path class="cls-2" d="M101.28,16.28c-6.86-4.55-17.47-1.46-27.23,6.86-6.65-1.69-15.33,1.61-23.43,8.52C40.57,29.1,25.84,37.95,15.55,53.47,3.87,71.08,2.34,90.62,12.13,97.11c6.86,4.55,17.47,1.46,27.23-6.86,6.65,1.69,15.33-1.61,23.43-8.52,10.05,2.55,24.78-6.29,35.07-21.81C109.53,42.3,111.07,22.76,101.28,16.28ZM14,94.22C7.53,89.9,8.48,77,16.17,65.4,21.72,57,29.25,51.64,35.46,50.89a9.37,9.37,0,0,1,6.42,1.32,8.09,8.09,0,0,1,.75.6c5.65,4.81,4.48,17.1-2.89,28.21a44.55,44.55,0,0,1-3,4.06q-1.15,1.36-2.36,2.57C27.35,94.7,19.16,97.61,14,94.22ZM42.75,87.1A66.26,66.26,0,0,0,51,77c1-1.44,1.83-2.89,2.65-4.34a65,65,0,0,0,3-6,51.34,51.34,0,0,0,4-14.12,29.37,29.37,0,0,0-.4-10.23,8.91,8.91,0,0,1,5.12,1.41,8,8,0,0,1,.75.6c5.65,4.81,4.48,17.1-2.89,28.21a44.55,44.55,0,0,1-3,4.06Q59,77.94,57.8,79.15C52.87,84.08,47.37,87,42.75,87.1ZM86.62,64c-5.89,8.89-14,14.42-20.43,14.59a66.28,66.28,0,0,0,8.24-10.14c8.17-12.33,11.37-25.59,9.2-34.67a8.91,8.91,0,0,1,5.12,1.41C95.26,39.49,94.31,52.4,86.62,64Z"/></g></g></svg>