<svg xmlns="http://www.w3.org/2000/svg" viewBox="0 0 113.39 113.39"><defs><style>.cls-1{fill:none;}.cls-2{fill:#040000;}</style></defs><title>アセット 326</title><g id="レイヤー_2" data-name="レイヤー 2"><g id="waku"><rect class="cls-1" width="113.39" height="113.39"/></g><g id="編集モード"><path class="cls-2" d="M43.18,61.78l5.12,2.43C59,41.76,76.81,24.77,93.54,20.76V93.41a26.17,26.17,0,0,1,5.67,0V14.2c-12.58,1.52-22,6.33-31.31,14.48A103.88,103.88,0,0,0,43.18,61.78Z"/><path class="cls-2" d="M16.9,96.38h7.67l4-37.32,0-14.78s9.52,3.63,18.94,3.85c1.48-2.34,2.06-3.21,3.67-5.39a40.41,40.41,0,0,1-12.13-4.53,61.23,61.23,0,0,1-12.12-10,8.25,8.25,0,0,0-6.1-2.7,7.77,7.77,0,0,0-7.79,7.76l0,25.82Z"/><rect class="cls-2" x="2.83" y="99.21" width="34.02" height="5.68"/><path class="cls-2" d="M104.33,100c-7.12-3.31-16.63-2.88-23.12,1.7h0c-4.9,3.46-12.26,3.72-17.6,1.14-1.59-.77-3-1.89-4.57-2.63a22.89,22.89,0,0,0-5.43-1.72,25.54,25.54,0,0,0-11.06.37v5.89a19.34,19.34,0,0,1,11.31-.43c3.54.94,6.26,3.45,9.72,4.6,6.74,2.24,15,1.57,20.9-2.58h0c5.37-3.8,14-3.86,19.41-.08l3.25-4.64A18.45,18.45,0,0,0,104.33,100Z"/><path class="cls-2" d="M20.79,21.23A7.81,7.81,0,1,0,13,13.42,7.82,7.82,0,0,0,20.79,21.23Z"/></g></g></svg>