<svg xmlns="http://www.w3.org/2000/svg" viewBox="0 0 113.39 113.39"><defs><style>.cls-1{fill:none;}.cls-2{fill:#040000;}</style></defs><title>アセット 282</title><g id="レイヤー_2" data-name="レイヤー 2"><g id="waku"><rect class="cls-1" width="113.39" height="113.39"/></g><g id="編集モード"><path class="cls-2" d="M28.35,73.71l2.84,14.18h6.71L34,107.72h5.67L51.58,87.89H61.81L73.7,107.72h5.67L75.49,87.89H82.2L85,73.71H72.72L70.08,60.22l13-6.1V50.27L66.63,42.55v0H46.76v0L30.28,50.27v3.85l13,6.11L40.67,73.71ZM69.24,55.92l-1.6-8.2,9.55,4.48ZM36.19,52.2l9.56-4.48-1.61,8.21Z"/><rect class="cls-2" x="52.44" y="5.66" width="8.5" height="11.36"/><polygon class="cls-2" points="46.77 39.69 66.62 39.69 66.62 39.67 70.87 19.85 42.52 19.85 46.77 39.67 46.77 39.69"/></g></g></svg>