<svg xmlns="http://www.w3.org/2000/svg" viewBox="0 0 113.54 113.54"><defs><style>.cls-1{fill:none;}.cls-2{fill:#040000;}</style></defs><title>アセット 382</title><g id="レイヤー_2" data-name="レイヤー 2"><g id="waku"><rect class="cls-1" width="113.54" height="113.54"/></g><g id="編集モード"><path class="cls-2" d="M51.38,93h56.41V88.72H98V67.63H88.26v-8H68.12v8H58.39V88.72h-7a8.08,8.08,0,0,0,0,16.16h56.41v-4.25H51.38a3.83,3.83,0,0,1,0-7.66Zm21-29.14H84v3.71H72.37Z"/><path class="cls-2" d="M45.55,27.6a8.38,8.38,0,1,0,3.37-16,8.31,8.31,0,0,0-3.37,16Z"/><path class="cls-2" d="M42.37,50.4a36,36,0,0,0,10.92,5.42,53.49,53.49,0,0,0,5.56,1.43c.58.12,3.43.66,5.69.84l1.05-6a38.55,38.55,0,0,1-11.95-5.75c-4.6-3.58-7.79-7.83-11.1-14l0,0A8.34,8.34,0,0,0,28.88,30.8l-18.12,21a8.33,8.33,0,0,0-2,6.32h0l2.14,22.41,2.22,24.32,7.63,0,2.3-24.35,1.8-19.48L37.59,46.3A55.75,55.75,0,0,0,42.37,50.4Z"/></g></g></svg>