<svg xmlns="http://www.w3.org/2000/svg" viewBox="0 0 113.39 113.39"><defs><style>.cls-1{fill:none;}.cls-2{fill:#040000;}</style></defs><title>アセット 298</title><g id="レイヤー_2" data-name="レイヤー 2"><g id="waku"><rect class="cls-1" width="113.39" height="113.39"/></g><g id="編集モード"><path class="cls-2" d="M105.45,103.55l-2.94-4-.17-.23-.23.17a13,13,0,0,1-7.7,2.3,13.37,13.37,0,0,1-7.84-2.37,19.72,19.72,0,0,0-22.11-.08,13,13,0,0,1-7.7,2.3,13.37,13.37,0,0,1-7.84-2.37A18.72,18.72,0,0,0,37.8,95.87a18.56,18.56,0,0,0-11,3.35,13,13,0,0,1-7.7,2.3,13.38,13.38,0,0,1-7.84-2.37L11.06,99l-.17.23-3,4-.17.23.23.17A18.73,18.73,0,0,0,19.13,107a18.56,18.56,0,0,0,11-3.35,13,13,0,0,1,7.7-2.3,13.38,13.38,0,0,1,7.84,2.37,18.72,18.72,0,0,0,11.13,3.43,18.56,18.56,0,0,0,11-3.35,13,13,0,0,1,7.7-2.3,13.38,13.38,0,0,1,7.84,2.37,19.73,19.73,0,0,0,22.11.08l.23-.17Z"/><circle class="cls-2" cx="56.73" cy="16.41" r="10.63"/><path class="cls-2" d="M8.5,90.76h96.38V84.88h0L93.54,65.25H80.88A31.31,31.31,0,0,0,76.49,39.8c-3.53-5-11.36-8.61-19.76-8.61S40.5,34.75,37,39.8a31.31,31.31,0,0,0-4.39,25.45H19.84L8.5,84.88h0ZM91.9,70.87l6.55,11.34H83L77.72,70.88ZM43.71,49.21V62.36H69.76V49.21a17.61,17.61,0,0,1,3.54,16H40.16A17.61,17.61,0,0,1,43.71,49.21ZM40.56,70.9l32.26,0,5.24,11.33H35.33Zm-19.08,0H35.64l-5.23,11.3H15Z"/></g></g></svg>