<svg xmlns="http://www.w3.org/2000/svg" viewBox="0 0 113.39 113.39"><defs><style>.cls-1{fill:none;}.cls-2{fill:#040000;}</style></defs><title>アセット 300</title><g id="レイヤー_2" data-name="レイヤー 2"><g id="waku"><rect class="cls-1" width="113.39" height="113.39"/></g><g id="編集モード"><polygon class="cls-2" points="43.27 22.68 20.86 41.26 35.42 41.26 35.42 62.41 41.09 62.41 41.09 41.26 110.61 41.26 110.61 22.68 43.27 22.68"/><circle class="cls-2" cx="57.49" cy="53.91" r="8.5"/><circle class="cls-2" cx="84.05" cy="53.91" r="8.5"/><path class="cls-2" d="M102.1,53.91a8.5,8.5,0,0,0,8.5,8.5v-17A8.5,8.5,0,0,0,102.1,53.91Z"/><path class="cls-2" d="M6.7,56.69l-4.1,3.91,25.76,27A14.06,14.06,0,0,1,31,86.11a15.89,15.89,0,0,1,2.87-1,16.72,16.72,0,0,1,13.45,2.49h0a11,11,0,0,0,12,0,16.71,16.71,0,0,1,19,0h0a11,11,0,0,0,12,0,16.71,16.71,0,0,1,19,0h0a8,8,0,0,0,1.36.8V68H17.52Z"/></g></g></svg>