<svg xmlns="http://www.w3.org/2000/svg" viewBox="0 0 113.39 113.39"><defs><style>.cls-1{fill:none;}.cls-2{fill:#040000;}</style></defs><title>アセット 417</title><g id="レイヤー_2" data-name="レイヤー 2"><g id="waku"><rect class="cls-1" width="113.39" height="113.39"/></g><g id="編集モード"><path class="cls-2" d="M101.38,37.71a10.67,10.67,0,0,0-14.57-3.86l2.85,4.9A5,5,0,0,1,97,44.34a4.94,4.94,0,0,1-1.65,2.55A12.05,12.05,0,0,0,94.1,45.8a11.85,11.85,0,0,0-8.83-2.29l.79,5.62a6.25,6.25,0,1,1,1.73,12.38l.79,5.62A11.92,11.92,0,0,0,98.72,53.67a12,12,0,0,0-.43-1.89,10.65,10.65,0,0,0,3.09-14.07Z"/><path class="cls-2" d="M43,17.49a5.25,5.25,0,0,1,7.37,6.31l5.39,1.76a10.85,10.85,0,0,0-.65-8.33,11,11,0,0,0-1.65-2.38A9.51,9.51,0,0,1,71,19.49a11.79,11.79,0,0,0-6.18,12.44l5.59-1a6.1,6.1,0,1,1,12-2.07l5.59-1a11.78,11.78,0,0,0-11.45-9.77,15.16,15.16,0,0,0-27.84-6.4,10.91,10.91,0,0,0-13.71,7l5.39,1.76A5.22,5.22,0,0,1,43,17.49Z"/><path class="cls-2" d="M21.64,35.32a5.59,5.59,0,0,1,9.85-5L36.05,27A11.27,11.27,0,0,0,16.89,38.68a13.5,13.5,0,0,0,7.52,22.37l1-5.57a7.84,7.84,0,1,1,2.86-15.42l1-5.57A13.41,13.41,0,0,0,21.64,35.32Z"/><path class="cls-2" d="M73.7,107.83c-1.19-4.08-6.54-19.94-2.41-30.33a27.08,27.08,0,0,1,4-6.37,74.13,74.13,0,0,1,7.84-7.93l-3.5-4.46a80.31,80.31,0,0,0-9.53,7.57c-.94.9-1.86,1.87-2.74,2.9a45,45,0,0,1,2.19-12.64,35.34,35.34,0,0,1,4.51-8.94,41.93,41.93,0,0,1,7-7.71l-3.27-4.63a48.75,48.75,0,0,0-9.66,7.24,44.26,44.26,0,0,0-7.62,9.88A49.45,49.45,0,0,0,57.84,58c-.25-1.73-.57-3.46-1-5.19a45.1,45.1,0,0,0-5.43-13.18A53.25,53.25,0,0,0,42.68,29l-4.23,3.78A46.44,46.44,0,0,1,44.5,43.17a36.18,36.18,0,0,1,2.56,11.2,51.18,51.18,0,0,1-.21,8.77,45.9,45.9,0,0,0-5.14-6.72,94.78,94.78,0,0,0-9.35-8.72l-3.85,4.16a88.51,88.51,0,0,1,7.71,9,35.73,35.73,0,0,1,4.58,8.3,41.76,41.76,0,0,1,1.84,8.39c.14,1.33.22,2.68.27,4.06,0,.74,0,1.49,0,2.24A58.15,58.15,0,0,1,37,107.83Z"/></g></g></svg>